{"glyphs":{"0":{"ha":783,"x_min":68,"x_max":715,"o":"m 391 979 q 163 884 258 979 q 68 655 68 789 l 68 324 q 163 95 68 190 q 391 0 258 0 q 621 95 526 0 q 715 324 715 190 l 715 655 q 621 884 715 789 q 391 979 526 979 m 391 890 q 560 820 490 890 q 631 651 631 749 l 631 328 q 560 159 631 230 q 391 89 490 89 q 222 159 293 89 q 153 328 153 230 l 153 651 q 222 820 153 749 q 391 890 293 890 "},"1":{"ha":386,"x_min":7,"x_max":284,"o":"m 284 41 l 284 937 q 273 966 284 954 q 243 978 260 978 l 48 978 q 19 966 31 978 q 7 937 7 954 l 7 935 q 19 905 7 918 q 48 894 31 894 l 200 894 l 200 41 q 212 12 200 24 q 241 0 224 0 l 243 0 q 273 12 260 0 q 284 41 284 24 "},"2":{"ha":749,"x_min":68,"x_max":681,"o":"m 416 978 l 143 978 q 113 966 125 978 q 101 937 101 954 l 101 935 q 113 905 101 918 q 143 894 125 894 l 416 894 q 538 842 488 894 q 589 720 589 791 q 500 567 589 641 q 319 446 473 545 q 144 305 199 369 q 68 105 68 215 l 68 41 q 80 12 68 24 q 109 0 92 0 l 640 0 q 669 12 656 0 q 681 41 681 24 l 681 43 q 669 73 681 60 q 640 85 656 85 l 157 85 q 244 294 157 210 q 425 425 293 342 q 600 552 551 503 q 674 720 674 628 q 599 903 674 827 q 416 978 524 978 "},"3":{"ha":621,"x_min":47,"x_max":553,"o":"m 279 978 l 89 978 q 60 966 72 978 q 47 937 47 954 l 47 935 q 60 905 47 918 q 89 894 72 894 l 279 894 q 401 842 351 894 q 452 720 452 791 q 401 597 452 648 q 279 547 350 547 l 119 547 q 89 535 101 547 q 77 505 77 523 l 77 504 q 89 475 77 486 q 119 463 101 463 l 279 463 q 412 407 357 463 q 467 273 467 351 q 412 140 467 195 q 279 85 357 85 l 89 85 q 60 73 72 85 q 47 43 47 60 l 47 41 q 60 12 47 24 q 89 0 72 0 l 279 0 q 473 80 393 0 q 553 273 553 160 q 425 506 553 408 q 537 720 537 600 q 462 903 537 827 q 279 978 386 978 "},"4":{"ha":795,"x_min":78,"x_max":766,"o":"m 119 197 l 535 197 l 535 41 q 547 12 535 24 q 576 0 559 0 l 578 0 q 608 12 595 0 q 620 41 620 24 l 620 197 l 725 197 q 755 209 743 197 q 766 238 766 220 l 766 239 q 755 269 766 257 q 725 281 743 281 l 620 281 l 620 937 q 608 966 620 954 q 578 978 595 978 l 507 978 q 471 956 483 978 l 83 306 q 78 286 78 296 l 78 238 q 90 209 78 221 q 119 197 102 197 m 535 281 l 166 281 l 535 899 l 535 281 "},"5":{"ha":715,"x_min":81,"x_max":667,"o":"m 123 463 l 393 463 q 527 407 471 463 q 582 273 582 351 q 527 140 582 195 q 393 85 471 85 l 123 85 q 94 73 106 85 q 81 43 81 60 l 81 41 q 94 12 81 24 q 123 0 106 0 l 393 0 q 587 80 507 0 q 667 273 667 160 q 587 467 667 387 q 393 547 507 547 l 166 547 l 166 894 l 536 894 q 566 905 553 894 q 578 935 578 918 l 578 937 q 566 966 578 954 q 536 978 553 978 l 123 978 q 94 966 106 978 q 81 937 81 954 l 81 504 q 94 475 81 487 q 123 463 106 463 "},"6":{"ha":772,"x_min":68,"x_max":704,"o":"m 153 463 l 430 463 q 564 407 508 463 q 618 273 618 351 q 564 140 618 195 q 430 85 508 85 l 341 85 q 208 140 264 85 q 153 273 153 195 l 153 463 m 341 0 l 430 0 q 624 80 544 0 q 704 273 704 160 q 624 467 704 387 q 430 547 544 547 l 153 547 l 153 705 q 208 838 153 783 q 341 894 264 894 l 548 894 q 578 905 566 894 q 590 935 590 918 l 590 937 q 578 966 590 954 q 548 978 566 978 l 341 978 q 148 898 228 978 q 68 705 68 819 l 68 273 q 148 80 68 160 q 341 0 228 0 "},"7":{"ha":570,"x_min":7,"x_max":549,"o":"m 278 44 l 549 939 q 538 966 549 954 q 508 978 526 978 l 48 978 q 19 966 31 978 q 7 937 7 954 l 7 935 q 19 905 7 918 q 48 894 31 894 l 452 894 l 194 39 q 206 12 194 24 q 235 0 218 0 l 237 0 q 267 12 254 0 q 278 44 278 24 "},"8":{"ha":784,"x_min":68,"x_max":716,"o":"m 443 978 l 341 978 q 159 903 234 978 q 83 720 83 827 q 195 506 83 600 q 68 273 68 408 q 148 80 68 160 q 341 0 228 0 l 443 0 q 636 80 557 0 q 716 273 716 160 q 589 506 716 408 q 701 720 701 600 q 625 903 701 827 q 443 978 550 978 m 443 85 l 341 85 q 208 140 264 85 q 153 273 153 195 q 208 407 153 351 q 341 463 264 463 l 443 463 q 576 407 522 463 q 631 273 631 351 q 576 140 631 195 q 443 85 521 85 m 443 547 l 341 547 q 219 597 270 547 q 168 720 168 648 q 219 842 168 791 q 341 894 269 894 l 443 894 q 565 842 515 894 q 616 720 616 791 q 565 597 616 648 q 443 547 514 547 "},"9":{"ha":772,"x_min":68,"x_max":704,"o":"m 619 515 l 341 515 q 208 571 264 515 q 153 705 153 627 q 208 838 153 783 q 341 894 264 894 l 430 894 q 564 838 508 894 q 619 705 619 783 l 619 515 m 430 978 l 341 978 q 148 898 228 978 q 68 705 68 819 q 148 511 68 591 q 341 431 228 431 l 619 431 l 618 273 q 564 140 618 195 q 430 85 508 85 l 164 85 q 134 73 146 85 q 123 43 123 60 l 123 41 q 134 12 123 24 q 164 0 146 0 l 430 0 q 624 80 544 0 q 704 273 704 160 l 704 705 q 624 898 704 819 q 430 978 544 978 "},"\u0000":{"ha":95,"x_min":0,"x_max":0,"o":""},"\u001d":{"ha":95,"x_min":0,"x_max":0,"o":""}," ":{"ha":333,"x_min":0,"x_max":0,"o":""}," ":{"ha":333,"x_min":0,"x_max":0,"o":""},"!":{"ha":244,"x_min":68,"x_max":176,"o":"m 164 536 l 164 937 q 152 966 164 954 q 123 978 140 978 l 121 978 q 92 966 104 978 q 79 937 79 954 l 79 536 l 100 267 l 143 267 l 164 536 m 122 0 q 160 16 144 0 q 176 54 176 32 q 160 92 176 76 q 122 108 144 108 q 83 92 99 108 q 68 54 68 77 q 83 16 68 31 q 122 0 99 0 "},"\"":{"ha":353,"x_min":37,"x_max":316,"o":"m 37 979 l 37 856 l 58 669 l 102 669 l 122 856 l 122 979 l 37 979 m 231 979 l 231 856 l 252 669 l 296 669 l 316 856 l 316 979 l 231 979 "},"#":{"ha":876,"x_min":10,"x_max":866,"o":"m 219 366 l 45 366 q 20 356 30 366 q 10 332 10 346 l 10 330 q 20 306 10 316 q 45 296 30 296 l 205 296 l 165 98 q 170 72 162 83 q 195 57 178 60 l 196 56 q 220 62 208 54 q 234 83 231 69 l 276 296 l 513 296 l 473 98 q 479 72 471 83 q 502 57 487 60 l 504 56 q 528 62 516 54 q 543 83 540 69 l 585 296 l 778 296 q 802 306 792 296 q 812 330 812 316 l 812 332 q 802 356 812 346 q 778 366 792 366 l 599 366 l 647 606 l 832 606 q 856 616 846 606 q 866 640 866 626 l 866 642 q 856 666 866 656 q 832 676 846 676 l 661 676 l 699 861 q 694 888 701 876 q 671 902 686 899 l 669 903 q 644 897 656 905 q 629 876 633 890 l 590 676 l 353 676 l 391 861 q 385 888 393 876 q 360 902 378 899 l 359 903 q 336 897 348 905 q 321 876 324 890 l 281 676 l 98 676 q 74 666 84 676 q 64 642 64 656 l 64 640 q 74 616 64 626 q 98 606 84 606 l 267 606 l 219 366 m 338 606 l 576 606 l 528 366 l 290 366 l 338 606 "},"$":{"ha":625,"x_min":41,"x_max":584,"o":"m 336 76 q 312 74 320 74 q 288 76 304 74 l 288 456 q 336 443 315 448 l 336 76 m 248 550 q 125 719 125 608 q 156 822 125 775 q 248 895 183 863 l 248 550 m 376 430 q 499 260 499 372 q 468 157 499 204 q 376 85 441 117 l 376 430 m 376 515 l 376 895 q 491 774 468 849 q 525 749 498 749 l 539 749 q 568 763 557 749 q 573 794 578 777 q 499 916 553 865 q 376 982 451 962 l 376 1047 q 370 1076 376 1064 q 357 1088 365 1088 l 356 1088 q 342 1076 348 1088 q 336 1047 336 1064 l 336 990 q 312 991 319 991 q 288 989 305 991 l 288 1047 q 282 1077 288 1065 q 269 1088 277 1088 l 268 1088 q 254 1077 260 1088 q 248 1047 248 1065 l 248 983 q 100 888 153 956 q 41 719 41 814 q 104 534 41 594 q 248 465 144 494 l 248 85 q 134 205 156 131 q 100 231 126 231 l 85 231 q 57 216 68 231 q 52 185 46 203 q 125 64 71 115 q 248 -3 173 18 l 248 -52 q 254 -81 248 -68 q 268 -93 260 -93 l 269 -93 q 282 -81 277 -93 q 288 -52 288 -68 l 288 -10 q 312 -11 305 -11 q 336 -10 319 -11 l 336 -52 q 342 -81 336 -68 q 356 -93 348 -93 l 357 -93 q 370 -81 365 -93 q 376 -52 376 -68 l 376 -3 q 524 91 470 24 q 584 260 584 165 q 519 446 584 386 q 376 515 479 486 m 336 524 q 288 537 309 531 l 288 904 q 312 906 304 906 q 336 904 320 906 l 336 524 "},"%":{"ha":943,"x_min":68,"x_max":876,"o":"m 694 978 l 617 978 l 243 0 l 319 0 l 694 978 m 715 278 q 787 248 758 278 q 817 176 817 218 l 817 164 q 787 93 817 122 q 715 62 758 62 q 644 93 674 62 q 614 164 614 123 l 614 176 q 644 248 614 218 q 715 278 674 278 m 715 340 q 602 294 650 340 q 555 180 555 247 l 555 160 q 602 47 555 94 q 715 0 650 0 q 829 47 782 0 q 876 160 876 94 l 876 180 q 829 294 876 247 q 715 340 782 340 m 228 921 q 303 890 271 921 q 334 814 334 858 l 334 802 q 303 726 334 758 q 228 694 271 694 q 153 726 183 694 q 121 802 121 757 l 121 814 q 153 890 121 858 q 228 921 184 921 m 228 978 q 115 931 161 978 q 68 819 68 884 l 68 798 q 115 684 68 731 q 228 637 161 637 q 341 684 294 637 q 388 798 388 731 l 388 819 q 341 931 388 884 q 228 978 294 978 "},"&":{"ha":828,"x_min":68,"x_max":811,"o":"m 588 463 l 588 253 l 587 253 q 532 140 587 195 q 399 85 476 85 l 341 85 q 208 140 264 85 q 153 273 153 195 q 208 407 153 351 q 341 463 264 463 l 588 463 m 777 538 l 659 538 l 659 734 l 588 707 l 588 534 l 341 534 q 219 584 270 534 q 168 713 168 635 q 219 842 168 791 q 341 894 269 894 l 443 894 q 536 868 505 894 l 585 937 q 443 978 531 978 l 341 978 q 159 903 234 978 q 83 720 83 827 q 195 506 83 600 q 68 273 68 408 q 148 80 68 160 q 341 0 228 0 l 399 0 q 606 94 509 0 q 761 0 671 0 l 777 0 q 802 10 791 0 q 811 35 811 20 l 811 37 q 802 61 811 51 q 777 71 791 71 l 747 71 q 685 97 711 71 q 659 159 659 123 l 659 467 l 777 467 q 801 477 791 467 q 811 501 811 487 l 811 503 q 801 528 811 517 q 777 538 791 538 "},"'":{"ha":220,"x_min":68,"x_max":153,"o":"m 68 979 l 68 856 l 88 669 l 132 669 l 153 856 l 153 979 l 68 979 "},"(":{"ha":398,"x_min":68,"x_max":375,"o":"m 323 -278 q 359 -271 344 -283 q 375 -237 375 -258 l 375 -231 q 366 -205 375 -216 q 342 -190 357 -193 q 203 -106 259 -172 q 146 45 146 -39 l 146 653 q 203 805 146 738 q 342 888 259 870 q 366 903 357 892 q 375 930 375 915 l 375 935 q 359 968 375 956 q 323 977 343 981 q 141 863 213 951 q 68 657 68 772 l 68 41 q 141 -164 68 -74 q 323 -278 213 -253 "},")":{"ha":398,"x_min":23,"x_max":330,"o":"m 74 -278 q 257 -164 184 -253 q 330 41 330 -74 l 330 657 q 257 863 330 772 q 74 977 184 951 q 39 968 55 981 q 23 935 23 956 l 23 930 q 32 903 23 915 q 56 888 41 892 q 195 805 139 870 q 252 653 252 738 l 252 45 q 195 -106 252 -39 q 56 -190 139 -172 q 32 -205 41 -193 q 23 -231 23 -216 l 23 -237 q 39 -271 23 -258 q 74 -278 54 -282 "},"*":{"ha":581,"x_min":69,"x_max":511,"o":"m 291 864 l 290 864 q 265 854 275 864 q 255 829 255 844 l 255 686 l 118 730 q 92 728 104 734 q 74 706 79 721 l 73 705 q 76 680 69 692 q 96 662 83 667 l 233 618 l 149 501 q 142 475 140 490 q 160 450 144 461 l 161 449 q 184 446 168 444 q 205 459 197 448 l 290 576 l 375 459 q 397 446 383 448 q 422 451 412 444 l 424 452 q 438 475 436 461 q 433 502 441 490 l 347 618 l 484 662 q 505 680 498 667 q 507 705 511 692 l 507 706 q 489 728 502 721 q 463 730 477 734 l 326 686 l 326 829 q 315 854 326 844 q 291 864 305 864 "},"+":{"ha":700,"x_min":34,"x_max":666,"o":"m 393 532 l 393 764 q 380 793 393 781 q 351 806 368 806 l 349 806 q 320 793 332 806 q 308 764 308 781 l 308 532 l 75 532 q 46 519 58 532 q 34 490 34 507 l 34 488 q 46 459 34 471 q 75 447 58 447 l 308 447 l 308 216 q 320 186 308 198 q 349 174 332 174 l 351 174 q 380 186 368 174 q 393 216 393 198 l 393 447 l 624 447 q 654 459 642 447 q 666 488 666 471 l 666 490 q 654 519 666 507 q 624 532 642 532 l 393 532 "},",":{"ha":218,"x_min":16,"x_max":161,"o":"m 155 82 l 74 82 q 69 78 71 82 l 16 -118 q 17 -123 16 -121 q 22 -125 18 -125 l 66 -125 q 72 -121 70 -125 l 159 75 q 159 79 161 77 q 155 82 157 82 "},"-":{"ha":476,"x_min":34,"x_max":442,"o":"m 442 488 l 442 490 q 430 519 442 507 q 400 532 418 532 l 75 532 q 46 519 58 532 q 34 490 34 507 l 34 488 q 46 459 34 471 q 75 447 58 447 l 400 447 q 430 459 418 447 q 442 488 442 471 "},"­":{"ha":476,"x_min":34,"x_max":442,"o":"m 442 488 q 430 459 442 471 q 400 447 418 447 l 75 447 q 46 459 58 447 q 34 488 34 471 l 34 490 q 46 519 34 507 q 75 532 58 532 l 400 532 q 430 519 418 532 q 442 490 442 507 l 442 488 "},".":{"ha":1049,"x_min":68,"x_max":973,"o":"m 68 -191 l 973 -191 l 973 968 l 68 968 l 68 -191 m 92 -164 l 92 948 l 949 948 l 949 -164 l 92 -164 m 492 319 l 492 315 l 492 313 q 494 220 492 268 l 498 220 l 503 221 q 501 307 503 259 l 501 319 l 494 319 l 492 319 m 830 319 q 829 307 830 315 q 831 220 830 259 l 834 220 l 842 221 q 840 310 840 273 q 840 319 840 313 l 831 319 l 830 319 m 536 316 q 530 286 530 303 l 530 279 q 531 264 530 267 q 549 222 536 222 l 553 222 q 571 241 564 222 l 572 241 q 585 220 576 220 l 591 220 q 589 233 591 222 q 581 254 581 233 q 585 313 581 273 q 576 315 585 313 l 575 315 q 551 236 566 236 l 551 236 q 541 275 541 245 l 541 288 q 543 308 541 296 q 538 316 538 315 l 536 316 m 742 316 q 735 315 741 316 q 708 255 708 289 l 708 249 q 732 220 711 220 l 736 220 q 746 222 741 220 q 773 261 773 236 l 773 267 q 765 297 773 282 q 746 316 754 316 l 742 316 m 169 313 q 135 297 147 313 q 139 290 135 294 q 143 262 143 290 l 143 262 l 140 262 q 136 249 136 256 l 140 248 l 143 248 l 143 225 q 153 223 149 223 l 153 223 l 153 248 q 172 253 163 250 q 194 286 194 263 q 175 313 194 310 l 169 313 m 718 255 q 720 269 718 262 q 744 303 732 303 q 746 302 744 302 q 764 266 764 284 l 764 264 q 760 252 764 257 q 735 233 750 233 q 718 250 718 235 l 718 255 m 152 295 q 170 300 152 298 l 174 300 q 184 286 184 298 q 178 273 184 280 q 153 262 173 266 q 153 263 153 263 q 152 295 153 271 m 274 297 q 255 268 262 297 l 254 268 q 252 281 252 278 l 252 281 q 242 280 250 281 q 251 221 242 268 q 261 222 254 221 q 260 233 261 223 q 274 283 262 277 q 283 261 279 283 q 293 264 292 264 q 274 297 287 297 m 364 293 q 357 291 358 292 q 340 247 340 281 q 358 221 340 224 q 364 222 361 221 q 388 258 388 233 l 388 260 q 387 271 388 265 q 364 293 378 293 m 416 293 q 402 265 407 293 l 401 265 q 399 279 401 267 q 390 277 395 279 q 391 262 390 271 q 397 223 393 223 l 402 223 q 406 230 405 230 q 418 277 412 269 q 433 223 423 265 q 441 228 436 223 q 441 233 441 233 q 416 293 429 293 m 804 293 q 787 264 792 293 l 787 264 q 786 279 787 266 q 776 277 780 279 q 783 223 778 223 l 787 223 q 789 227 787 223 q 802 277 798 269 q 819 223 808 268 q 827 228 821 223 q 804 293 814 293 m 320 292 q 295 271 295 292 l 295 269 q 314 254 295 254 q 328 244 326 254 q 319 233 328 236 q 300 243 308 233 l 299 243 q 293 236 294 238 l 293 235 q 316 220 300 220 l 319 220 l 325 221 q 338 244 338 227 q 325 267 338 260 q 305 271 305 268 q 316 279 307 279 q 325 274 322 279 l 326 274 q 332 279 332 278 l 332 280 q 320 292 332 288 m 618 292 q 593 271 593 292 q 595 262 593 269 q 615 254 598 254 q 626 244 626 252 q 616 233 626 236 q 598 243 606 233 l 597 243 q 591 236 596 243 l 591 235 q 614 220 599 220 l 620 220 q 636 243 636 225 q 623 267 636 261 q 604 271 604 268 l 604 272 q 615 279 607 279 q 623 274 623 278 q 632 279 625 274 l 632 279 q 618 292 627 292 m 847 291 q 846 271 846 278 l 846 260 q 863 228 850 228 l 863 228 q 881 244 876 228 l 882 244 q 882 230 882 233 q 867 201 882 201 l 865 201 q 859 208 859 202 l 860 214 q 852 218 858 214 l 851 218 q 849 208 849 218 l 849 208 q 850 201 849 204 q 865 188 853 188 l 869 188 q 872 188 871 188 q 892 226 892 195 q 888 286 892 233 l 888 288 l 878 288 l 878 288 q 865 242 878 251 l 865 242 q 856 266 857 242 l 856 272 q 857 290 856 277 q 847 291 856 290 l 847 291 m 224 290 l 217 290 q 195 254 195 281 q 216 223 198 223 l 220 223 q 241 238 229 223 q 235 248 241 240 l 233 248 q 218 236 226 236 q 207 247 207 239 l 214 247 q 240 271 240 258 l 240 275 q 224 290 240 288 m 462 290 q 446 281 454 290 l 446 279 q 452 272 450 273 l 454 272 q 466 279 460 279 q 477 262 475 279 l 477 261 q 464 265 471 264 q 442 241 442 262 l 442 236 q 457 222 442 224 l 462 222 q 477 227 469 222 l 479 220 l 479 220 q 488 225 482 220 q 487 236 487 236 q 488 260 487 245 q 469 290 488 284 l 462 290 m 667 290 l 659 290 q 638 253 638 280 q 658 223 642 223 l 663 223 q 669 225 666 223 q 683 240 683 234 q 677 248 677 248 l 676 248 q 661 236 667 236 q 650 245 654 236 l 650 247 l 654 247 q 683 275 683 255 q 667 290 683 288 m 350 248 q 351 257 350 252 q 363 279 354 279 l 364 279 q 378 261 374 279 l 378 259 q 360 235 376 240 l 358 235 q 350 248 351 235 m 207 261 l 207 263 q 223 276 212 276 q 229 275 224 276 l 229 273 q 207 261 220 261 m 650 261 l 650 262 q 665 276 654 276 l 667 276 q 673 274 669 276 q 652 261 663 261 l 650 261 m 452 240 q 463 250 452 248 q 476 245 471 250 q 459 234 471 234 q 452 238 452 236 l 452 240 m 419 172 l 418 172 q 406 153 408 172 q 408 117 406 132 q 401 116 406 116 l 401 104 q 408 106 405 104 l 409 106 q 412 62 409 98 l 419 62 q 416 109 419 70 l 423 111 l 423 121 l 421 121 q 415 119 418 121 q 414 145 414 138 q 413 148 414 146 q 418 161 414 161 q 424 146 422 161 l 425 146 l 429 147 l 429 149 q 419 172 428 172 m 553 172 q 541 152 541 172 q 543 117 541 148 l 535 116 l 535 104 q 543 106 537 104 q 546 62 546 66 l 553 62 q 551 106 551 98 l 549 109 q 557 111 557 111 l 557 115 l 557 121 l 556 121 q 549 119 553 121 q 549 119 549 119 q 547 151 547 145 q 553 161 547 157 q 557 147 557 157 l 557 146 l 559 146 l 564 147 q 553 172 562 172 m 481 161 l 481 134 q 482 65 481 109 l 490 65 q 488 155 488 113 l 488 161 l 484 161 l 481 161 m 498 161 q 497 159 497 161 l 497 157 q 499 65 497 110 l 507 65 q 505 140 505 119 l 505 161 l 499 161 l 498 161 m 359 159 q 357 140 357 159 l 357 128 l 355 128 l 348 127 l 348 117 l 357 117 q 360 66 358 85 l 366 66 l 367 67 l 364 117 q 374 119 373 119 l 374 130 l 366 129 l 364 129 q 366 157 364 138 q 359 159 364 157 m 674 159 q 673 129 673 143 l 673 128 l 672 128 l 665 127 l 665 122 l 664 117 l 674 117 q 676 66 674 108 l 680 66 l 684 67 l 680 117 l 688 119 l 690 119 l 690 130 l 682 129 l 680 129 l 680 138 q 682 157 680 149 q 674 159 676 159 m 773 159 l 772 128 l 771 128 l 764 127 l 764 117 l 772 117 l 775 66 l 781 66 l 783 67 q 780 113 780 103 l 780 117 q 789 119 789 119 l 789 125 l 789 130 l 781 129 l 780 129 l 780 134 q 781 157 780 145 q 773 159 775 159 m 274 157 l 269 155 q 239 102 239 141 l 239 99 q 268 64 242 64 l 269 64 q 289 73 285 67 q 293 58 290 58 l 294 58 q 299 61 298 61 q 296 79 296 71 q 298 98 296 81 q 296 104 298 100 q 274 111 293 111 l 274 99 l 281 99 q 289 97 286 99 l 289 90 q 268 77 289 79 q 262 77 264 77 q 246 101 246 81 l 246 104 q 252 127 246 115 q 276 145 264 145 q 290 135 284 145 l 292 135 q 296 141 292 137 q 281 157 290 157 l 274 157 m 587 135 q 578 132 583 135 q 565 93 565 121 l 565 90 q 566 79 565 86 q 583 65 572 65 l 587 66 q 610 100 610 77 l 610 109 q 587 135 603 135 m 640 135 q 623 98 629 135 l 623 98 q 621 121 623 110 l 619 121 l 614 119 q 620 68 616 68 l 623 68 l 624 68 q 640 122 635 117 q 656 68 646 114 q 662 71 659 68 l 663 71 q 640 135 650 135 m 330 132 q 320 131 323 132 q 302 100 302 122 l 302 90 q 321 68 308 68 l 325 68 q 345 83 335 68 l 345 83 q 340 90 340 88 l 338 90 q 323 79 330 79 l 322 79 q 311 90 311 83 l 311 91 q 321 93 317 91 q 345 117 345 102 q 344 119 345 119 q 330 132 344 130 m 734 132 q 722 123 728 132 l 722 122 q 726 117 725 117 l 726 117 q 738 123 734 123 l 740 123 q 752 103 752 120 l 752 101 q 738 106 746 106 q 718 85 720 106 l 718 79 q 732 66 718 68 l 734 66 q 751 73 745 66 l 753 65 l 755 65 l 760 68 q 758 83 760 81 q 760 101 760 97 q 758 113 760 102 q 742 132 753 132 l 734 132 m 430 131 l 431 125 l 431 119 q 445 68 431 68 l 451 68 q 464 87 461 77 l 465 87 q 471 70 466 73 l 472 70 q 475 77 472 73 q 472 90 472 84 l 472 98 q 474 129 472 113 q 467 131 469 131 l 467 131 q 466 123 467 127 q 447 79 460 87 q 437 129 437 79 q 430 131 431 131 m 572 93 q 585 123 575 123 l 588 123 q 603 102 599 123 q 601 94 603 100 q 583 77 593 77 l 582 77 q 572 93 573 77 m 310 102 q 327 121 314 121 l 329 121 q 336 117 335 121 q 310 102 326 102 m 724 83 q 738 95 724 93 l 739 95 q 751 90 745 95 q 736 77 745 77 l 732 77 q 724 83 726 77 m 344 31 q 342 -14 342 -8 l 342 -14 q 322 -3 332 -3 l 319 -3 q 296 -43 296 -10 q 298 -62 296 -54 q 330 -90 308 -90 q 345 -79 345 -85 l 346 -79 q 350 -88 348 -88 l 351 -88 q 359 -81 351 -88 q 352 -35 352 -58 q 355 28 353 2 q 344 31 345 31 m 214 26 q 211 -5 211 26 l 211 -11 l 201 -11 l 201 -27 l 210 -27 l 212 -28 q 215 -88 212 -47 l 215 -89 q 227 -87 218 -89 q 223 -26 225 -68 q 233 -25 227 -26 l 235 -25 q 233 -9 235 -22 q 223 -11 232 -9 l 223 -1 q 224 23 223 7 l 214 26 m 457 26 q 455 -11 455 12 l 444 -11 l 444 -27 l 456 -27 q 459 -88 456 -37 l 459 -89 q 471 -87 462 -89 q 467 -26 467 -42 q 478 -25 467 -26 l 478 -18 l 477 -9 q 467 -11 476 -9 l 467 -7 q 468 23 467 4 l 458 26 l 457 26 m 370 24 q 362 15 363 24 q 368 3 362 7 l 372 3 q 378 14 378 7 l 378 15 q 370 24 376 24 m 412 -3 q 404 -5 411 -3 q 384 -52 384 -17 l 384 -61 q 406 -89 387 -89 q 414 -87 412 -89 q 441 -47 441 -74 l 441 -41 q 439 -29 441 -37 q 412 -3 429 -3 m 543 -3 q 546 -119 543 -30 l 557 -119 q 557 -92 557 -96 l 556 -87 l 563 -87 l 568 -86 q 589 -43 587 -78 q 589 -33 589 -41 q 566 -3 583 -3 q 553 -7 559 -3 l 553 -5 q 546 -3 553 -3 l 543 -3 m 621 -3 q 612 -5 620 -3 q 592 -55 592 -18 q 593 -71 592 -62 q 614 -89 600 -89 q 624 -87 618 -89 q 650 -43 650 -73 q 647 -27 650 -36 q 621 -3 636 -3 m 758 -3 q 750 -5 757 -3 q 730 -52 730 -17 l 730 -61 q 751 -89 732 -89 q 760 -87 758 -89 q 787 -45 787 -75 l 787 -40 q 784 -27 787 -33 q 758 -3 774 -3 m 821 -3 q 805 -33 811 -3 l 804 -33 q 801 -12 802 -17 q 789 -16 798 -12 l 798 -86 l 798 -87 q 809 -84 802 -87 q 820 -21 809 -60 q 833 -73 824 -21 q 840 -83 835 -83 q 847 -76 845 -83 q 859 -20 852 -35 q 876 -87 863 -20 l 876 -87 q 885 -83 878 -87 l 886 -83 q 859 -3 876 -3 l 859 -3 q 840 -43 846 -3 l 840 -43 q 821 -3 833 -3 m 175 -4 q 146 -27 146 -4 l 146 -33 q 149 -41 146 -35 q 171 -49 153 -49 q 185 -61 185 -51 q 173 -75 185 -75 q 153 -62 158 -75 l 151 -62 q 143 -73 143 -70 q 170 -90 154 -90 l 176 -90 q 182 -88 179 -90 q 197 -62 197 -81 l 197 -59 q 179 -33 197 -41 q 158 -29 158 -33 l 158 -26 q 172 -20 163 -20 l 172 -20 q 181 -25 181 -20 l 183 -25 q 191 -19 191 -20 l 191 -18 q 175 -4 191 -7 m 484 -5 q 481 -27 481 -5 l 481 -33 q 482 -47 481 -41 q 503 -81 487 -81 l 504 -81 q 524 -60 517 -81 l 524 -60 l 525 -69 l 525 -83 q 524 -91 525 -88 q 507 -113 521 -113 l 505 -113 q 497 -106 497 -112 l 497 -104 l 498 -98 l 488 -94 q 486 -104 486 -94 l 486 -110 q 487 -116 486 -113 q 507 -130 492 -130 q 517 -127 511 -130 q 536 -86 536 -116 l 536 -79 q 531 -9 536 -70 l 531 -9 l 519 -9 l 519 -16 q 505 -64 519 -52 l 501 -64 q 493 -35 493 -57 l 493 -31 q 494 -7 493 -23 q 484 -5 492 -7 m 701 -5 q 688 -14 696 -5 q 675 -57 675 -34 q 694 -88 679 -88 q 726 -76 709 -88 q 722 -61 726 -75 l 722 -61 q 699 -72 706 -72 l 696 -72 q 687 -56 687 -71 l 690 -41 q 702 -22 694 -26 l 703 -22 q 715 -33 708 -22 l 715 -33 q 724 -24 716 -33 q 716 -12 724 -20 q 706 -5 710 -5 l 701 -5 m 364 -7 q 366 -81 364 -35 l 366 -87 l 378 -87 q 376 -13 376 -58 q 376 -7 376 -9 l 372 -7 l 364 -7 m 237 -7 l 237 -24 q 257 -87 237 -87 l 259 -87 q 278 -67 271 -87 l 279 -67 q 287 -84 279 -76 l 287 -84 q 294 -72 294 -76 q 290 -58 290 -65 l 290 -52 q 292 -12 290 -40 q 282 -7 292 -9 l 281 -7 q 277 -33 280 -26 q 260 -71 272 -58 l 257 -71 q 249 -25 249 -71 l 249 -12 q 237 -7 249 -11 m 308 -45 l 308 -43 q 321 -20 309 -20 l 322 -20 l 326 -20 q 340 -53 340 -28 l 340 -55 q 330 -73 338 -73 l 328 -73 q 308 -45 308 -68 m 395 -56 q 412 -20 397 -20 l 413 -20 q 429 -41 425 -20 l 429 -47 q 428 -53 429 -50 q 408 -73 418 -73 l 406 -73 q 395 -56 395 -71 m 553 -25 q 566 -20 559 -20 l 566 -20 q 578 -43 576 -20 q 560 -71 575 -71 l 555 -71 q 553 -25 553 -27 m 604 -56 q 619 -20 606 -20 q 638 -43 634 -20 q 635 -55 638 -50 q 615 -73 626 -73 l 614 -73 q 604 -59 604 -71 l 604 -56 m 741 -56 q 758 -20 744 -20 l 758 -20 q 775 -41 770 -20 l 775 -45 q 774 -52 775 -48 q 754 -73 764 -73 l 752 -73 q 741 -56 741 -73 m 663 -65 q 655 -77 656 -65 q 663 -87 656 -87 q 671 -78 669 -87 l 671 -75 q 663 -65 669 -65 m 486 928 q 239 745 339 928 l 239 738 q 309 764 273 764 l 486 764 l 486 928 m 543 928 l 543 764 l 777 764 q 739 827 777 781 q 549 928 639 928 l 543 928 m 290 707 q 277 694 279 707 l 277 669 q 290 656 277 656 l 435 656 q 486 643 463 656 l 486 707 l 290 707 m 543 707 l 543 492 q 606 429 543 437 l 720 429 q 808 631 808 505 l 808 643 l 802 707 l 543 707 m 220 656 l 220 618 q 309 429 220 510 l 416 429 q 486 485 486 429 l 486 555 q 441 599 486 599 l 321 599 q 227 656 227 607 l 220 656 m 511 410 q 385 372 474 372 l 385 365 q 511 340 457 340 l 517 340 q 644 365 571 340 l 644 372 q 517 410 559 372 l 511 410 "},"/":{"ha":390,"x_min":14,"x_max":376,"o":"m 376 978 l 303 978 l 14 0 l 87 0 l 376 978 "},":":{"ha":244,"x_min":68,"x_max":176,"o":"m 122 0 q 160 16 144 0 q 176 54 176 32 q 160 92 176 76 q 122 108 144 108 q 83 92 99 108 q 68 54 68 77 q 83 16 68 31 q 122 0 99 0 m 122 592 q 160 608 144 592 q 176 646 176 624 q 160 684 176 668 q 122 700 144 700 q 83 684 99 700 q 68 646 68 669 q 83 608 68 623 q 122 592 99 592 "},";":{"ha":244,"x_min":16,"x_max":176,"o":"m 155 82 l 74 82 q 69 78 71 82 l 16 -118 q 17 -123 16 -121 q 22 -125 18 -125 l 66 -125 q 72 -121 70 -125 l 159 75 q 159 79 161 77 q 155 82 157 82 m 122 592 q 160 608 144 592 q 176 646 176 624 q 160 684 176 668 q 122 700 144 700 q 83 684 99 700 q 68 646 68 669 q 83 608 68 623 q 122 592 99 592 "},";":{"ha":244,"x_min":16,"x_max":176,"o":"m 155 82 q 159 79 157 82 q 159 75 161 77 l 72 -121 q 66 -125 70 -125 l 22 -125 q 17 -123 18 -125 q 16 -118 16 -121 l 69 78 q 74 82 71 82 l 155 82 m 122 592 q 83 608 99 592 q 68 646 68 623 q 83 684 68 669 q 122 700 99 700 q 160 684 144 700 q 176 646 176 668 q 160 608 176 624 q 122 592 144 592 "},"<":{"ha":726,"x_min":34,"x_max":692,"o":"m 34 516 l 34 448 q 44 433 34 437 l 669 189 q 684 191 677 186 q 692 204 692 195 l 692 250 q 682 264 692 260 l 130 482 l 682 699 q 692 714 692 703 l 692 760 q 684 773 692 768 q 669 774 677 778 l 44 532 q 34 516 34 528 "},"=":{"ha":700,"x_min":34,"x_max":666,"o":"m 666 336 l 666 337 q 654 367 666 355 q 624 379 642 379 l 75 379 q 46 367 58 379 q 34 337 34 355 l 34 336 q 46 307 34 319 q 75 294 58 294 l 624 294 q 654 307 642 294 q 666 336 666 319 m 666 631 l 666 632 q 654 662 666 650 q 624 674 642 674 l 75 674 q 46 662 58 674 q 34 632 34 650 l 34 631 q 46 602 34 614 q 75 589 58 589 l 624 589 q 654 602 642 589 q 666 631 666 614 "},">":{"ha":726,"x_min":34,"x_max":692,"o":"m 692 448 l 692 516 q 682 532 692 528 l 56 774 q 41 773 48 778 q 34 760 34 768 l 34 714 q 44 699 34 703 l 596 482 l 44 264 q 34 250 34 260 l 34 204 q 41 191 34 195 q 56 189 48 186 l 682 433 q 692 448 692 437 "},"?":{"ha":671,"x_min":52,"x_max":610,"o":"m 328 967 q 159 911 234 967 q 58 767 85 855 q 64 732 52 748 q 96 715 76 715 l 98 715 q 122 723 112 715 q 136 744 133 730 q 208 845 156 806 q 328 885 261 885 q 469 827 411 885 q 528 685 528 768 q 469 543 528 602 q 328 485 411 485 l 325 485 q 297 473 309 484 q 286 444 286 461 l 286 285 q 297 256 286 268 q 326 244 309 244 l 328 244 q 356 256 345 244 q 368 283 368 268 l 368 404 q 548 508 486 431 q 610 685 610 585 q 528 885 610 802 q 328 967 446 967 m 326 -1 q 364 15 349 -1 q 380 54 380 31 q 364 92 380 75 q 326 107 349 107 q 288 92 303 107 q 272 54 272 76 q 288 15 272 31 q 326 -1 303 -1 "},"@":{"ha":1414,"x_min":68,"x_max":1346,"o":"m 976 -218 l 944 -145 q 707 -200 839 -200 l 706 -200 q 317 -39 480 -200 q 153 358 153 126 q 315 752 153 589 q 707 916 479 916 q 1097 754 935 916 q 1261 358 1261 589 q 1202 136 1261 236 q 1092 43 1146 46 l 1088 43 q 1064 51 1074 43 q 1038 184 1038 77 l 1038 200 l 1038 353 q 933 600 1038 508 q 699 686 837 686 q 463 600 559 686 q 359 353 359 508 q 408 179 359 258 q 539 58 454 102 q 700 19 616 19 q 726 20 713 19 q 856 55 804 25 l 823 127 q 718 97 785 102 q 700 96 710 96 q 581 124 637 96 q 444 353 444 195 q 612 595 444 543 q 696 608 654 608 q 751 604 724 608 q 873 547 823 590 q 954 353 954 476 l 952 201 l 952 188 q 1002 -1 952 45 q 1086 -34 1035 -34 l 1097 -34 q 1264 82 1188 -30 q 1346 358 1346 200 q 1160 805 1346 620 q 707 993 973 993 q 254 805 441 993 q 68 358 68 620 q 254 -90 68 96 q 706 -277 440 -277 l 707 -277 q 976 -218 857 -277 "},"A":{"ha":770,"x_min":75,"x_max":695,"o":"m 695 41 l 695 668 q 604 888 695 797 q 385 978 513 978 q 165 888 256 978 q 75 668 75 797 l 75 41 q 87 12 75 24 q 116 0 99 0 l 118 0 q 147 12 135 0 q 159 41 159 24 l 159 385 l 610 385 l 610 41 q 623 12 610 24 q 652 0 635 0 l 654 0 q 683 12 671 0 q 695 41 695 24 m 610 469 l 159 469 l 159 668 q 225 827 159 761 q 385 894 292 894 q 545 827 478 894 q 610 668 610 761 l 610 469 "},"B":{"ha":708,"x_min":75,"x_max":661,"o":"m 159 547 l 159 827 q 178 874 159 854 q 225 894 198 894 l 387 894 q 509 842 459 894 q 560 720 560 791 q 509 597 560 648 q 387 547 458 547 l 159 547 m 75 827 l 75 151 q 119 44 75 88 q 225 0 163 0 l 387 0 q 581 80 500 0 q 661 273 661 160 q 533 506 661 408 q 645 720 645 600 q 570 903 645 827 q 387 978 494 978 l 225 978 q 119 935 163 978 q 75 827 75 890 m 387 85 l 225 85 q 178 104 198 85 q 159 151 159 123 l 159 463 l 387 463 q 520 407 465 463 q 575 273 575 351 q 520 140 575 195 q 387 85 465 85 "},"C":{"ha":734,"x_min":51,"x_max":693,"o":"m 540 978 q 194 835 337 978 q 51 489 51 692 q 194 143 51 286 q 540 0 337 0 q 662 15 602 0 q 693 56 693 23 l 693 57 q 677 90 693 77 q 641 97 661 102 q 540 85 591 85 q 254 203 373 85 q 136 489 136 321 q 254 775 136 656 q 540 894 373 894 q 641 881 591 894 q 677 888 661 876 q 693 921 693 901 l 693 923 q 662 963 693 955 q 540 978 602 978 "},"D":{"ha":857,"x_min":75,"x_max":817,"o":"m 159 151 l 159 827 q 178 874 159 854 q 225 894 198 894 l 328 894 q 614 775 495 894 q 732 489 732 656 q 614 203 732 321 q 328 85 495 85 l 225 85 q 178 104 198 85 q 159 151 159 123 m 328 978 l 225 978 q 119 935 163 978 q 75 827 75 890 l 75 151 q 119 44 75 88 q 225 0 163 0 l 328 0 q 673 143 530 0 q 817 489 817 286 q 673 835 817 692 q 328 978 530 978 "},"E":{"ha":602,"x_min":75,"x_max":565,"o":"m 159 531 l 159 771 q 195 857 159 821 q 281 893 231 893 l 524 893 q 553 905 541 893 q 565 935 565 918 l 565 937 q 553 966 565 954 q 524 978 541 978 l 281 978 q 135 918 195 978 q 75 771 75 857 l 75 207 q 135 60 75 121 q 281 0 195 0 l 524 0 q 553 12 541 0 q 565 41 565 24 l 565 43 q 553 73 565 60 q 524 85 541 85 l 281 85 q 195 121 231 85 q 159 207 159 157 l 159 447 l 524 447 q 553 458 541 447 q 565 488 565 471 l 565 490 q 553 519 565 507 q 524 531 541 531 l 159 531 "},"F":{"ha":551,"x_min":75,"x_max":531,"o":"m 159 531 l 159 771 q 195 858 159 822 q 281 894 231 894 l 490 894 q 519 905 507 894 q 531 935 531 918 l 531 937 q 519 966 531 954 q 490 978 507 978 l 281 978 q 135 918 195 978 q 75 771 75 857 l 75 41 q 87 12 75 24 q 116 0 99 0 l 118 0 q 147 12 135 0 q 159 41 159 24 l 159 447 l 483 447 q 512 459 500 447 q 524 488 524 471 l 524 490 q 512 519 524 507 q 483 531 500 531 l 159 531 "},"G":{"ha":1087,"x_min":54,"x_max":1033,"o":"m 543 978 q 197 835 340 978 q 54 489 54 692 q 197 143 54 286 q 543 0 340 0 q 890 143 746 0 q 1033 489 1033 286 l 1033 490 q 1021 519 1032 507 q 991 531 1008 531 l 560 531 q 530 519 543 531 q 519 490 519 507 l 519 488 q 530 459 519 471 q 560 447 543 447 l 946 447 q 807 182 919 278 q 543 85 693 85 q 258 203 376 85 q 139 489 139 321 q 258 775 139 656 q 543 894 376 894 q 841 763 721 894 q 867 750 852 751 q 895 756 883 748 l 896 758 q 914 787 912 769 q 903 821 916 806 q 543 978 758 978 "},"H":{"ha":776,"x_min":75,"x_max":701,"o":"m 118 978 l 116 978 q 87 966 99 978 q 75 937 75 954 l 75 41 q 87 12 75 24 q 116 0 99 0 l 118 0 q 147 12 135 0 q 159 41 159 24 l 159 447 l 616 447 l 616 41 q 629 12 616 24 q 658 0 641 0 l 660 0 q 689 12 677 0 q 701 41 701 24 l 701 937 q 689 966 701 954 q 660 978 677 978 l 658 978 q 629 966 641 978 q 616 937 616 954 l 616 531 l 159 531 l 159 937 q 147 966 159 954 q 118 978 135 978 "},"I":{"ha":275,"x_min":95,"x_max":180,"o":"m 138 978 l 136 978 q 107 966 119 978 q 95 937 95 954 l 95 41 q 107 12 95 24 q 136 0 119 0 l 138 0 q 168 12 155 0 q 180 41 180 24 l 180 937 q 168 966 180 954 q 138 978 155 978 "},"J":{"ha":462,"x_min":7,"x_max":380,"o":"m 296 937 l 296 207 q 260 121 296 157 q 174 85 224 85 l 48 85 q 19 73 31 85 q 7 43 7 60 l 7 41 q 19 12 7 24 q 48 0 31 0 l 174 0 q 320 60 260 0 q 380 207 380 121 l 380 937 q 369 966 380 954 q 339 978 357 978 l 338 978 q 308 966 320 978 q 296 937 296 954 "},"K":{"ha":724,"x_min":75,"x_max":650,"o":"m 118 978 l 116 978 q 87 966 99 978 q 75 937 75 954 l 75 41 q 87 12 75 24 q 116 0 99 0 l 118 0 q 147 12 135 0 q 159 41 159 24 l 159 479 l 300 479 q 487 401 409 479 q 566 215 565 325 l 566 41 q 577 12 566 24 q 607 0 589 0 l 608 0 q 638 12 626 0 q 650 41 650 24 l 650 215 q 604 389 650 309 q 455 530 559 467 q 621 829 621 653 l 621 937 q 608 966 621 954 q 579 978 596 978 l 577 978 q 548 966 559 978 q 536 937 536 954 l 536 829 q 457 642 535 719 q 271 565 380 565 l 159 565 l 159 937 q 147 966 159 954 q 118 978 135 978 "},"L":{"ha":534,"x_min":81,"x_max":528,"o":"m 166 207 l 166 937 q 154 966 166 954 q 125 978 142 978 l 123 978 q 94 966 106 978 q 81 937 81 954 l 81 207 q 142 60 81 121 q 288 0 202 0 l 486 0 q 515 12 503 0 q 528 41 528 24 l 528 43 q 515 73 528 60 q 486 85 503 85 l 288 85 q 202 121 238 85 q 166 207 166 157 "},"M":{"ha":1206,"x_min":75,"x_max":1132,"o":"m 159 41 l 159 692 q 218 835 159 776 q 360 894 277 894 q 502 835 443 894 q 561 692 561 776 l 561 41 q 573 12 561 24 q 603 0 585 0 l 604 0 q 633 12 621 0 q 646 41 646 24 l 646 692 q 705 835 646 776 q 846 894 764 894 q 989 835 930 894 q 1048 692 1048 776 l 1048 41 q 1060 12 1048 24 q 1089 0 1072 0 l 1090 0 q 1120 12 1108 0 q 1132 41 1132 24 l 1132 692 q 1048 895 1132 811 q 846 978 965 978 q 604 845 705 978 q 360 978 501 978 q 158 895 241 978 q 75 692 75 811 l 75 41 q 87 12 75 24 q 116 0 99 0 l 118 0 q 147 12 135 0 q 159 41 159 24 "},"N":{"ha":770,"x_min":75,"x_max":695,"o":"m 695 41 l 695 668 q 604 888 695 797 q 385 978 513 978 q 165 888 256 978 q 75 668 75 797 l 75 41 q 87 12 75 24 q 116 0 99 0 l 118 0 q 147 12 135 0 q 159 41 159 24 l 159 668 q 225 827 159 761 q 385 894 292 894 q 545 827 478 894 q 610 668 610 761 l 610 41 q 623 12 610 24 q 652 0 635 0 l 654 0 q 683 12 671 0 q 695 41 695 24 "},"O":{"ha":1087,"x_min":54,"x_max":1033,"o":"m 543 978 q 197 835 340 978 q 54 489 54 692 q 197 143 54 286 q 543 0 340 0 q 890 143 746 0 q 1033 489 1033 286 q 890 835 1033 692 q 543 978 746 978 m 543 894 q 829 775 711 894 q 948 489 948 656 q 829 203 948 321 q 543 85 711 85 q 258 203 376 85 q 139 489 139 321 q 258 775 139 656 q 543 894 376 894 "},"P":{"ha":761,"x_min":75,"x_max":713,"o":"m 159 424 l 159 659 q 228 825 159 755 q 394 894 297 894 q 560 825 491 894 q 629 659 629 755 q 560 493 629 562 q 394 424 491 424 l 159 424 m 159 339 l 394 339 q 620 433 527 339 q 713 659 713 526 q 620 885 713 791 q 394 978 527 978 q 168 885 262 978 q 75 659 75 791 l 75 41 q 87 12 75 24 q 116 0 99 0 l 118 0 q 147 12 135 0 q 159 41 159 24 l 159 339 "},"Q":{"ha":1087,"x_min":54,"x_max":1033,"o":"m 543 978 q 197 835 340 978 q 54 489 54 692 q 178 164 54 302 q 501 2 301 26 l 501 -141 q 513 -171 501 -159 q 543 -182 525 -182 l 544 -182 q 574 -171 562 -182 q 586 -141 586 -159 l 586 2 q 909 164 786 26 q 1033 489 1033 302 q 890 835 1033 692 q 543 978 746 978 m 544 319 l 543 319 q 513 307 526 319 q 501 278 501 295 l 501 86 q 236 226 332 113 q 139 489 139 339 q 258 775 139 656 q 543 894 376 894 q 829 775 711 894 q 948 489 948 656 q 851 227 948 340 q 586 86 755 113 l 586 278 q 574 307 586 295 q 544 319 562 319 "},"R":{"ha":726,"x_min":75,"x_max":685,"o":"m 387 465 l 159 465 l 159 748 q 161 780 159 768 q 201 853 169 823 q 309 893 241 893 l 387 893 q 538 831 475 893 q 601 679 601 768 q 538 528 601 591 q 387 465 475 465 m 601 167 l 601 41 q 613 12 601 24 q 642 0 625 0 l 644 0 q 673 12 661 0 q 685 41 685 24 l 685 167 q 598 378 685 291 q 544 423 582 393 q 597 468 581 452 q 685 679 685 555 q 597 890 685 803 q 387 978 511 978 l 298 978 q 140 912 205 978 q 75 754 75 847 l 75 41 q 87 12 75 24 q 116 0 99 0 l 117 0 q 147 12 135 0 q 159 41 159 24 l 159 380 l 401 380 q 538 318 481 376 q 601 167 601 255 "},"S":{"ha":662,"x_min":47,"x_max":614,"o":"m 319 895 l 508 895 q 538 907 526 895 q 549 937 549 920 l 549 941 q 538 970 549 958 q 508 982 526 982 l 326 982 q 136 904 214 982 q 58 715 58 826 q 125 549 58 608 q 279 472 171 507 q 451 408 417 429 q 534 267 534 358 q 481 140 534 193 q 354 87 428 87 l 89 87 q 60 75 72 87 q 47 45 47 62 l 47 41 q 60 12 47 24 q 89 0 72 0 l 347 0 q 536 78 458 0 q 614 267 614 156 q 548 441 614 381 q 395 515 501 484 q 222 574 254 556 q 138 715 138 623 q 191 842 138 789 q 319 895 244 895 "},"T":{"ha":633,"x_min":27,"x_max":606,"o":"m 606 935 l 606 937 q 594 966 606 954 q 565 978 583 978 l 68 978 q 39 966 52 978 q 27 937 27 954 l 27 935 q 39 905 27 918 q 68 894 52 894 l 275 894 l 275 41 q 286 12 275 24 q 316 0 298 0 l 317 0 q 347 12 335 0 q 359 41 359 24 l 359 894 l 565 894 q 594 905 583 894 q 606 935 606 918 "},"U":{"ha":770,"x_min":75,"x_max":695,"o":"m 695 310 l 695 937 q 683 966 695 954 q 654 978 671 978 l 652 978 q 623 966 635 978 q 610 937 610 954 l 610 310 q 545 151 610 217 q 385 85 478 85 q 225 151 292 85 q 159 310 159 217 l 159 937 q 147 966 159 954 q 118 978 135 978 l 116 978 q 87 966 99 978 q 75 937 75 954 l 75 310 q 165 91 75 181 q 385 0 256 0 q 604 91 513 0 q 695 310 695 181 "},"V":{"ha":743,"x_min":29,"x_max":713,"o":"m 372 1 q 429 42 412 0 l 707 923 q 701 960 713 943 q 667 978 689 978 l 663 978 q 624 951 633 978 l 377 135 l 372 111 l 366 135 l 119 951 q 81 978 111 978 l 76 978 q 41 960 54 978 q 37 923 29 943 l 314 42 q 372 1 331 0 "},"W":{"ha":1206,"x_min":75,"x_max":1132,"o":"m 159 286 l 159 937 q 147 966 159 954 q 118 978 135 978 l 116 978 q 87 966 99 978 q 75 937 75 954 l 75 286 q 158 83 75 167 q 360 0 241 0 q 604 133 501 0 q 846 0 705 0 q 1048 83 965 0 q 1132 286 1132 167 l 1132 937 q 1120 966 1132 954 q 1090 978 1108 978 l 1089 978 q 1060 966 1072 978 q 1048 937 1048 954 l 1048 286 q 989 144 1048 203 q 846 85 930 85 q 705 144 764 85 q 646 286 646 203 l 646 937 q 633 966 646 954 q 604 978 622 978 l 603 978 q 573 966 585 978 q 561 937 561 954 l 561 286 q 502 144 561 203 q 360 85 443 85 q 218 144 277 85 q 159 286 159 203 "},"X":{"ha":756,"x_min":68,"x_max":688,"o":"m 688 41 l 688 247 q 537 515 688 406 q 688 783 688 624 l 688 937 q 676 966 688 954 q 647 978 664 978 l 645 978 q 616 966 628 978 q 604 937 604 954 l 604 783 q 538 623 604 690 q 378 557 471 557 q 218 623 285 557 q 153 783 153 690 l 153 937 q 140 966 153 954 q 111 978 128 978 l 109 978 q 80 966 92 978 q 68 937 68 954 l 68 783 q 219 515 68 624 q 68 247 68 406 l 68 41 q 80 12 68 24 q 109 0 92 0 l 111 0 q 140 12 128 0 q 153 41 153 24 l 153 247 q 218 406 153 340 q 378 473 285 473 q 538 406 471 473 q 604 247 604 340 l 604 41 q 616 12 604 24 q 645 0 628 0 l 647 0 q 676 12 664 0 q 688 41 688 24 "},"Y":{"ha":756,"x_min":68,"x_max":688,"o":"m 688 635 l 688 937 q 676 966 688 954 q 647 978 664 978 l 645 978 q 616 966 628 978 q 604 937 604 954 l 604 635 q 538 475 604 542 q 378 410 471 410 q 218 475 285 410 q 153 635 153 542 l 153 937 q 140 966 153 954 q 111 978 128 978 l 109 978 q 80 966 92 978 q 68 937 68 954 l 68 635 q 140 436 68 523 q 336 328 211 351 l 336 41 q 348 12 336 24 q 377 0 360 0 l 379 0 q 408 12 396 0 q 420 41 420 24 l 420 328 q 616 436 545 351 q 688 635 688 523 "},"Z":{"ha":660,"x_min":27,"x_max":633,"o":"m 57 937 l 57 935 q 68 905 57 918 q 98 894 81 894 l 555 894 l 40 155 q 27 105 27 132 q 54 34 27 64 q 120 0 81 4 l 591 0 q 621 12 608 0 q 633 41 633 24 l 633 43 q 621 73 633 60 q 591 85 608 85 l 94 85 l 604 816 q 621 873 621 842 q 591 947 621 916 q 518 978 560 977 l 98 978 q 68 966 81 978 q 57 937 57 954 "},"[":{"ha":401,"x_min":68,"x_max":333,"o":"m 68 978 l 68 -279 l 333 -279 l 333 -210 l 153 -210 l 153 909 l 333 909 l 333 978 l 68 978 "},"\\":{"ha":390,"x_min":14,"x_max":376,"o":"m 87 978 l 14 978 l 302 0 l 376 0 l 87 978 "},"]":{"ha":401,"x_min":68,"x_max":333,"o":"m 333 -279 l 333 978 l 68 978 l 68 909 l 248 909 l 248 -210 l 68 -210 l 68 -279 l 333 -279 "},"^":{"ha":610,"x_min":68,"x_max":542,"o":"m 336 978 l 273 978 q 255 965 260 978 l 71 581 q 73 564 68 572 q 89 555 79 555 l 138 555 q 155 568 151 555 l 304 893 l 454 568 q 471 555 458 555 l 520 555 q 536 564 530 555 q 538 581 542 572 l 355 965 q 336 978 350 978 "},"_":{"ha":602,"x_min":-7,"x_max":608,"o":"m -7 -125 l 608 -125 l 608 -41 l -7 -41 l -7 -125 "},"`":{"ha":380,"x_min":9,"x_max":261,"o":"m 11 951 l 182 782 q 193 777 187 777 l 255 777 q 260 780 258 777 q 258 787 261 783 l 139 957 q 136 958 138 958 l 18 958 q 11 951 9 958 "},"a":{"ha":836,"x_min":68,"x_max":768,"o":"m 418 700 q 170 597 273 700 q 68 350 68 495 q 170 102 68 205 q 418 0 273 0 q 683 118 550 0 l 683 41 q 695 12 683 24 q 724 0 707 0 l 726 0 q 755 12 743 0 q 768 41 768 24 l 768 350 q 665 597 768 495 q 418 700 563 700 m 418 615 q 605 537 528 615 q 683 350 683 459 q 605 162 683 240 q 418 85 528 85 q 230 162 308 85 q 153 350 153 240 q 230 537 153 459 q 418 615 308 615 "},"b":{"ha":815,"x_min":68,"x_max":768,"o":"m 418 614 q 605 536 528 614 q 683 348 683 458 q 605 161 683 239 q 418 83 528 83 q 230 161 308 83 q 153 348 153 239 q 230 536 153 458 q 418 614 308 614 m 111 978 l 109 978 q 80 966 92 978 q 68 937 68 954 l 68 348 q 171 102 68 204 q 418 0 273 0 q 665 102 563 0 q 768 350 768 205 q 665 597 768 495 q 418 700 563 700 q 153 582 285 700 l 153 937 q 140 966 153 954 q 111 978 128 978 "},"c":{"ha":580,"x_min":47,"x_max":532,"o":"m 397 700 q 150 597 252 700 q 47 350 47 495 q 150 102 47 205 q 397 0 252 0 q 503 16 452 0 q 532 56 532 26 q 515 90 532 77 q 478 95 498 102 q 397 83 439 83 q 210 161 288 83 q 132 348 132 239 q 210 536 132 458 q 397 614 288 614 q 478 600 439 614 q 515 607 498 594 q 532 640 532 619 l 532 644 q 503 683 532 674 q 397 700 452 700 "},"d":{"ha":815,"x_min":47,"x_max":747,"o":"m 397 614 q 585 536 508 614 q 663 348 663 458 q 585 161 663 239 q 397 83 508 83 q 210 161 288 83 q 132 348 132 239 q 210 536 132 458 q 397 614 288 614 m 706 978 l 704 978 q 675 966 687 978 q 663 937 663 954 l 663 582 q 397 700 530 700 q 150 597 252 700 q 47 350 47 495 q 150 102 47 205 q 397 0 252 0 q 644 102 542 0 q 747 348 747 204 l 747 937 q 735 966 747 954 q 706 978 723 978 "},"e":{"ha":785,"x_min":47,"x_max":735,"o":"m 397 614 q 617 498 521 614 l 139 282 q 132 348 132 328 q 210 536 132 458 q 397 614 288 614 m 715 495 q 589 643 673 587 q 397 700 502 700 q 150 597 252 700 q 47 350 47 495 q 150 102 47 205 q 397 0 252 0 q 602 66 510 0 q 728 234 692 130 q 723 272 735 254 q 688 290 710 290 q 648 261 658 290 q 553 134 621 182 q 397 83 484 83 q 173 205 268 83 q 446 328 254 241 q 695 440 600 397 q 717 463 711 448 q 715 495 723 479 "},"f":{"ha":433,"x_min":68,"x_max":406,"o":"m 365 978 l 326 978 q 143 903 218 978 q 68 720 69 828 l 68 41 q 80 12 68 24 q 109 0 92 0 l 111 0 q 140 12 128 0 q 153 41 153 24 l 153 614 l 365 614 q 395 627 382 614 q 406 656 406 639 l 406 658 q 395 687 406 675 q 365 699 382 699 l 153 699 l 153 720 q 203 843 153 792 q 326 894 254 894 l 365 894 q 395 905 382 894 q 406 935 406 918 l 406 937 q 395 966 406 954 q 365 978 382 978 "},"g":{"ha":815,"x_min":47,"x_max":747,"o":"m 161 -74 q 112 -57 142 -47 l 110 -58 q 84 -83 91 -64 q 89 -120 78 -103 q 397 -279 191 -279 q 637 -176 530 -279 q 747 71 747 -70 l 747 351 q 644 598 747 496 q 397 700 542 700 q 150 597 252 700 q 47 350 47 495 q 150 102 47 205 q 397 0 252 0 q 663 118 530 0 l 663 71 q 579 -117 663 -37 q 397 -194 498 -194 q 161 -74 240 -194 m 663 354 l 663 350 q 585 162 663 240 q 397 85 507 85 q 210 162 288 85 q 132 350 132 240 q 210 537 132 459 q 397 615 288 615 q 583 538 506 615 q 663 354 661 463 "},"h":{"ha":710,"x_min":68,"x_max":642,"o":"m 111 978 l 109 978 q 80 966 92 978 q 68 937 68 954 l 68 41 q 80 12 68 24 q 109 0 92 0 l 111 0 q 140 12 128 0 q 153 41 153 24 l 153 412 q 212 555 153 496 q 355 615 271 615 q 498 555 439 615 q 557 412 557 496 l 557 41 q 570 12 557 24 q 600 0 582 0 l 601 0 q 630 12 618 0 q 642 41 642 24 l 642 412 q 558 616 642 532 q 355 700 474 700 q 153 619 260 700 l 153 937 q 140 966 153 954 q 111 978 128 978 "},"i":{"ha":271,"x_min":81,"x_max":190,"o":"m 136 700 l 135 700 q 105 688 117 700 q 93 658 93 675 l 93 41 q 105 12 93 24 q 135 0 117 0 l 136 0 q 165 12 153 0 q 178 41 178 24 l 178 658 q 165 688 178 675 q 136 700 153 700 m 136 869 q 174 885 158 869 q 190 924 190 901 q 174 962 190 945 q 136 977 158 977 q 97 962 113 977 q 81 924 81 946 q 97 885 81 901 q 136 869 113 869 "},"j":{"ha":277,"x_min":-142,"x_max":208,"o":"m -101 -279 l -62 -279 q 121 -203 46 -279 q 196 -20 195 -129 l 196 658 q 184 688 196 675 q 155 700 172 700 l 153 700 q 123 688 136 700 q 112 658 112 675 l 112 -20 q 60 -143 111 -94 q -62 -194 11 -194 l -101 -194 q -130 -206 -118 -194 q -142 -235 -142 -218 l -142 -237 q -130 -267 -142 -254 q -101 -279 -118 -279 m 153 871 q 191 886 176 871 q 208 925 208 903 q 191 963 208 947 q 153 979 176 979 q 115 963 130 979 q 99 925 99 947 q 115 886 99 902 q 153 871 130 871 "},"k":{"ha":646,"x_min":68,"x_max":599,"o":"m 111 978 l 109 978 q 80 966 92 978 q 68 937 68 954 l 68 41 q 80 12 68 24 q 109 0 92 0 l 111 0 q 140 12 128 0 q 153 41 153 24 l 153 340 l 249 340 q 436 262 358 340 q 514 76 513 186 l 514 41 q 526 12 514 24 q 555 0 538 0 l 557 0 q 587 12 574 0 q 599 41 599 24 l 599 76 q 552 250 599 170 q 404 391 507 328 q 567 654 552 501 q 557 686 569 673 q 526 700 545 700 l 524 700 q 496 689 509 700 q 483 663 484 678 q 397 494 473 563 q 219 426 321 426 l 153 426 l 153 937 q 140 966 153 954 q 111 978 128 978 "},"l":{"ha":275,"x_min":95,"x_max":180,"o":"m 138 978 l 136 978 q 107 966 119 978 q 95 937 95 954 l 95 41 q 107 12 95 24 q 136 0 119 0 l 138 0 q 168 12 155 0 q 180 41 180 24 l 180 937 q 168 966 180 954 q 138 978 155 978 "},"m":{"ha":1193,"x_min":68,"x_max":1125,"o":"m 153 41 l 153 414 q 212 556 153 497 q 353 615 271 615 q 495 556 436 615 q 554 414 554 497 l 554 41 q 566 12 554 24 q 596 0 578 0 l 597 0 q 627 12 614 0 q 639 41 639 24 l 639 414 q 698 556 639 497 q 840 615 757 615 q 982 556 923 615 q 1041 414 1041 497 l 1041 41 q 1053 12 1041 24 q 1082 0 1065 0 l 1084 0 q 1114 12 1101 0 q 1125 41 1125 24 l 1125 414 q 1042 616 1125 532 q 840 700 958 700 q 597 566 699 700 q 353 700 494 700 q 151 616 235 700 q 68 414 68 532 l 68 41 q 80 12 68 24 q 109 0 92 0 l 111 0 q 140 12 128 0 q 153 41 153 24 "},"n":{"ha":710,"x_min":68,"x_max":642,"o":"m 153 41 l 153 412 q 212 555 153 496 q 355 615 271 615 q 498 555 439 615 q 557 412 557 496 l 557 41 q 570 12 557 24 q 600 0 582 0 l 601 0 q 630 12 618 0 q 642 41 642 24 l 642 412 q 558 616 642 532 q 355 700 474 700 q 152 616 236 700 q 68 412 68 532 l 68 41 q 80 12 68 24 q 109 0 92 0 l 111 0 q 140 12 128 0 q 153 41 153 24 "},"o":{"ha":795,"x_min":47,"x_max":747,"o":"m 397 614 q 585 536 508 614 q 663 348 663 458 q 585 161 663 239 q 397 83 508 83 q 210 161 288 83 q 132 348 132 239 q 210 536 132 458 q 397 614 288 614 m 397 700 q 150 597 252 700 q 47 350 47 495 q 150 102 47 205 q 397 0 252 0 q 645 102 543 0 q 747 350 747 205 q 645 597 747 495 q 397 700 543 700 "},"p":{"ha":815,"x_min":68,"x_max":768,"o":"m 418 86 q 230 164 308 86 q 153 351 153 242 q 230 539 153 461 q 418 616 308 616 q 605 539 528 616 q 683 351 683 461 q 605 164 683 242 q 418 86 528 86 m 109 -279 l 111 -279 q 140 -267 128 -279 q 153 -237 153 -254 l 153 118 q 418 0 285 0 q 665 102 563 0 q 768 350 768 205 q 665 597 768 495 q 418 700 563 700 q 171 598 273 700 q 68 351 68 496 l 68 -237 q 80 -267 68 -254 q 109 -279 92 -279 "},"q":{"ha":815,"x_min":47,"x_max":747,"o":"m 397 86 q 210 164 288 86 q 132 351 132 242 q 210 539 132 461 q 397 616 288 616 q 585 539 507 616 q 663 351 663 461 q 585 164 663 242 q 397 86 508 86 m 704 -279 l 706 -279 q 735 -267 723 -279 q 747 -237 747 -254 l 747 351 q 644 598 747 496 q 397 700 542 700 q 150 597 252 700 q 47 350 47 495 q 150 102 47 205 q 397 0 252 0 q 663 118 530 0 l 663 -237 q 675 -267 663 -254 q 704 -279 687 -279 "},"r":{"ha":413,"x_min":68,"x_max":406,"o":"m 365 700 l 326 700 q 143 625 218 700 q 68 441 69 549 l 68 41 q 80 12 68 24 q 109 0 92 0 l 111 0 q 140 12 128 0 q 153 41 153 24 l 153 441 q 203 564 153 513 q 326 615 254 615 l 365 615 q 395 627 382 615 q 406 656 406 639 l 406 658 q 395 688 406 675 q 365 700 382 700 "},"s":{"ha":496,"x_min":41,"x_max":455,"o":"m 237 615 l 369 615 q 399 627 387 615 q 411 656 411 640 l 411 658 q 399 688 411 675 q 369 700 387 700 l 244 700 q 105 642 163 700 q 48 504 48 585 q 92 377 48 421 q 195 326 125 347 q 315 289 302 295 q 377 196 377 259 q 345 117 377 150 q 266 85 312 85 l 82 85 q 53 73 65 85 q 41 43 41 60 l 41 41 q 53 12 41 24 q 82 0 65 0 l 259 0 q 398 57 340 0 q 455 196 455 115 q 411 319 455 277 q 309 370 380 349 q 187 406 205 397 q 126 504 126 439 q 159 583 126 549 q 237 615 191 615 "},"t":{"ha":363,"x_min":68,"x_max":336,"o":"m 111 978 l 109 978 q 80 966 92 978 q 68 937 68 954 l 68 172 q 118 50 68 101 q 241 0 169 0 l 295 0 q 324 12 312 0 q 336 41 336 24 l 336 43 q 324 73 336 60 q 295 85 312 85 l 241 85 q 178 111 204 85 q 153 172 153 136 l 153 615 l 295 615 q 324 627 312 615 q 336 656 336 640 l 336 658 q 324 688 336 675 q 295 700 312 700 l 153 700 l 153 937 q 140 966 153 954 q 111 978 128 978 "},"u":{"ha":710,"x_min":68,"x_max":642,"o":"m 153 287 l 153 658 q 140 688 153 675 q 111 700 128 700 l 109 700 q 80 688 92 700 q 68 658 68 675 l 68 287 q 152 84 68 168 q 355 0 236 0 q 558 84 474 0 q 642 287 642 168 l 642 658 q 630 688 642 675 q 601 700 618 700 l 600 700 q 570 688 582 700 q 557 658 557 675 l 557 287 q 498 144 557 203 q 355 85 439 85 q 212 144 271 85 q 153 287 153 203 "},"v":{"ha":690,"x_min":7,"x_max":684,"o":"m 345 109 q 323 137 335 109 l 320 145 l 93 674 q 55 700 82 700 l 54 700 q 19 682 31 700 q 16 642 7 663 l 268 53 q 345 0 291 0 q 422 53 399 0 l 675 642 q 671 682 684 663 q 637 700 659 700 l 635 700 q 597 674 608 700 l 370 145 l 367 137 q 350 109 355 109 q 345 109 345 109 "},"w":{"ha":1193,"x_min":68,"x_max":1125,"o":"m 153 286 l 153 658 q 140 688 153 675 q 111 700 128 700 l 109 700 q 80 688 92 700 q 68 658 68 675 l 68 286 q 151 83 68 167 q 353 0 235 0 q 597 133 494 0 q 840 0 699 0 q 1042 83 958 0 q 1125 286 1125 167 l 1125 658 q 1114 688 1125 675 q 1084 700 1101 700 l 1082 700 q 1053 688 1065 700 q 1041 658 1041 675 l 1041 286 q 982 144 1041 203 q 840 85 923 85 q 698 144 757 85 q 639 286 639 203 l 639 658 q 627 688 639 675 q 597 700 614 700 l 596 700 q 566 688 578 700 q 554 658 554 675 l 554 286 q 495 144 554 203 q 353 85 436 85 q 212 144 271 85 q 153 286 153 203 "},"x":{"ha":690,"x_min":58,"x_max":632,"o":"m 142 598 l 142 658 q 130 688 142 675 q 101 700 118 700 l 99 700 q 70 688 82 700 q 58 658 58 675 l 58 598 q 192 353 58 456 q 58 109 58 250 l 58 41 q 70 12 58 24 q 99 0 82 0 l 101 0 q 130 12 118 0 q 142 41 142 24 l 142 109 q 201 252 142 192 q 345 311 261 311 q 488 252 429 311 q 547 109 547 192 l 547 41 q 559 12 547 24 q 589 0 572 0 l 591 0 q 620 12 608 0 q 632 41 632 24 l 632 109 q 498 353 632 250 q 632 598 632 456 l 632 659 q 620 688 632 675 q 591 700 608 700 l 589 700 q 559 688 572 700 q 547 658 547 675 l 547 598 q 488 455 547 515 q 345 395 429 395 q 201 455 261 395 q 142 598 142 515 "},"y":{"ha":710,"x_min":68,"x_max":642,"o":"m 153 302 l 153 658 q 140 688 153 675 q 111 700 128 700 l 109 700 q 80 688 92 700 q 68 658 68 675 l 68 302 q 152 99 68 182 q 355 15 236 15 q 557 94 450 15 l 557 9 q 496 -134 557 -75 q 355 -194 436 -194 q 239 -163 293 -194 q 159 -81 186 -132 q 138 -61 152 -67 q 111 -60 123 -56 l 108 -62 q 82 -85 89 -68 q 83 -119 75 -103 q 191 -234 120 -192 q 355 -279 264 -279 q 553 -195 467 -279 q 642 9 642 -108 l 642 658 q 630 688 642 675 q 601 700 618 700 l 600 700 q 570 688 582 700 q 557 658 557 675 l 557 302 q 498 159 557 217 q 355 99 439 99 q 212 159 271 99 q 153 302 153 218 "},"z":{"ha":653,"x_min":31,"x_max":612,"o":"m 600 649 q 608 615 607 631 q 582 556 608 583 l 125 84 l 570 84 q 600 73 588 84 q 612 43 612 60 l 612 41 q 600 12 612 24 q 570 0 588 0 l 133 0 q 54 51 76 -1 q 71 144 31 103 l 528 615 l 113 615 q 83 627 96 615 q 71 656 71 640 l 71 659 q 83 688 71 675 q 113 700 96 700 l 520 700 q 600 649 577 701 "},"{":{"ha":418,"x_min":34,"x_max":385,"o":"m 64 389 q 34 350 34 381 l 34 344 q 64 304 34 313 q 111 279 91 296 q 161 194 149 248 q 174 20 175 136 q 182 -151 174 -103 q 215 -230 190 -199 q 277 -274 239 -260 q 357 -283 302 -283 q 376 -276 369 -283 q 385 -256 385 -268 l 385 -243 q 377 -225 385 -233 q 359 -217 370 -218 q 285 -195 307 -213 q 250 -117 257 -171 q 249 2 249 -100 q 243 138 249 85 q 119 345 224 293 q 241 532 220 403 q 247 711 243 546 q 277 880 249 849 q 360 911 301 907 q 378 919 370 911 q 385 937 385 927 l 385 951 q 377 970 385 962 q 357 978 369 978 q 289 972 310 977 q 234 944 256 962 q 199 896 213 926 q 178 811 184 865 q 176 657 176 783 q 163 499 176 556 q 112 415 151 446 q 64 389 91 398 "},"|":{"ha":356,"x_min":136,"x_max":218,"o":"m 136 978 l 136 -282 l 218 -282 l 218 978 l 136 978 "},"}":{"ha":418,"x_min":34,"x_max":385,"o":"m 355 389 q 307 415 328 398 q 256 499 268 446 q 243 657 243 555 q 240 811 243 783 q 220 896 235 865 q 184 944 205 926 q 130 972 163 962 q 61 978 109 977 q 42 970 50 978 q 34 951 34 962 l 34 937 q 41 919 34 927 q 59 911 48 911 q 142 880 118 907 q 172 711 170 849 q 178 532 175 546 q 300 345 199 403 q 176 138 194 293 q 170 2 170 85 q 169 -117 170 -100 q 134 -195 161 -171 q 59 -217 111 -213 q 41 -225 48 -218 q 34 -243 34 -233 l 34 -256 q 42 -276 34 -268 q 61 -283 50 -283 q 141 -274 117 -283 q 204 -230 179 -260 q 236 -151 229 -199 q 244 20 244 -103 q 258 194 244 136 q 307 279 269 247 q 355 304 329 296 q 385 344 385 313 l 385 350 q 355 389 385 381 "},"~":{"ha":633,"x_min":24,"x_max":610,"o":"m 31 449 q 26 439 28 446 q 26 420 24 430 q 31 404 26 410 q 39 395 34 397 q 49 393 44 393 q 59 397 54 394 q 163 436 109 433 q 295 409 217 439 q 380 379 353 387 q 463 370 422 368 q 539 387 506 373 q 602 429 571 401 q 607 440 605 432 q 608 459 610 449 q 602 477 607 469 q 595 486 599 484 q 574 484 584 492 q 471 445 522 447 q 395 454 438 443 q 322 479 375 460 q 248 503 275 496 q 170 510 205 513 q 31 449 84 506 "},"¡":{"ha":285,"x_min":88,"x_max":197,"o":"m 100 205 l 100 -196 q 113 -226 100 -214 q 142 -237 125 -237 l 144 -237 q 173 -226 161 -237 q 185 -196 185 -214 l 185 205 l 164 473 l 121 473 l 100 205 m 142 701 q 104 685 120 701 q 88 646 88 669 q 104 608 88 625 q 142 593 120 593 q 181 608 165 593 q 197 646 197 624 q 181 685 197 669 q 142 701 165 701 "},"¢":{"ha":686,"x_min":33,"x_max":654,"o":"m 310 69 l 449 616 q 483 591 478 595 q 553 509 527 555 l 644 525 q 545 659 618 600 q 471 700 517 679 l 536 960 l 481 960 l 419 715 q 357 720 379 720 q 128 613 223 720 q 33 351 33 505 q 136 90 33 202 q 239 9 178 44 l 165 -277 l 222 -277 l 290 -9 q 357 -18 332 -18 q 557 45 473 -18 q 654 176 627 102 l 572 195 q 356 65 499 58 q 310 69 345 65 m 398 635 l 260 92 q 197 152 216 130 q 123 351 123 247 q 190 550 123 460 q 357 638 260 638 q 398 635 366 638 "},"£":{"ha":747,"x_min":68,"x_max":679,"o":"m 582 755 q 622 725 591 725 l 624 725 q 657 741 645 725 q 664 777 669 758 q 568 921 640 865 q 401 978 494 978 q 207 898 287 978 q 127 705 127 819 l 127 482 l 87 482 q 73 477 79 482 q 68 463 68 471 l 68 417 q 73 403 68 408 q 87 397 79 397 l 127 397 l 127 41 q 139 12 127 24 q 168 0 151 0 l 637 0 q 667 12 654 0 q 679 41 679 24 l 679 43 q 667 73 679 60 q 637 85 654 85 l 212 85 l 212 397 l 448 397 q 477 410 465 397 q 489 439 489 422 l 489 441 q 477 470 489 458 q 448 482 465 482 l 212 482 l 212 705 q 267 838 212 783 q 401 894 323 894 q 515 854 465 894 q 582 755 565 816 "},"¤":{"ha":755,"x_min":42,"x_max":713,"o":"m 378 718 q 534 652 469 718 q 600 496 600 587 q 534 338 600 404 q 378 273 469 273 q 221 338 286 273 q 156 496 156 404 q 221 652 156 587 q 378 718 286 718 m 145 672 q 87 496 87 587 q 146 317 87 404 l 43 215 l 98 160 l 201 263 q 378 204 286 204 q 555 263 470 204 l 658 160 l 713 215 l 610 319 q 669 496 669 403 q 610 672 669 588 l 713 776 l 659 831 l 556 728 q 378 787 471 787 q 201 728 286 787 l 98 831 l 42 774 l 145 672 "},"¥":{"ha":743,"x_min":20,"x_max":722,"o":"m 405 153 l 610 153 l 610 223 l 405 223 l 405 334 l 610 334 l 610 404 l 397 404 l 722 1021 l 635 1021 l 364 505 l 106 1021 l 20 1021 l 332 404 l 133 404 l 133 334 l 326 334 l 326 223 l 133 223 l 133 153 l 326 153 l 326 0 l 405 0 l 405 153 "},"¦":{"ha":287,"x_min":102,"x_max":185,"o":"m 102 1019 l 102 488 l 185 488 l 185 1019 l 102 1019 m 102 218 l 102 -314 l 185 -314 l 185 218 l 102 218 "},"§":{"ha":688,"x_min":54,"x_max":659,"o":"m 484 129 q 602 211 569 172 q 657 349 654 272 q 650 422 659 389 q 623 479 641 453 q 410 600 570 552 q 287 636 331 621 q 208 687 243 651 q 173 741 184 711 q 162 813 161 773 q 228 937 164 889 q 359 978 284 978 q 450 959 410 978 q 559 822 541 914 l 637 833 q 553 981 621 926 q 370 1038 488 1034 q 295 1034 331 1040 q 170 983 222 1021 q 81 793 81 918 q 144 634 81 691 q 244 578 167 614 q 170 536 188 549 q 81 346 81 471 q 144 187 81 244 q 346 98 197 141 q 460 59 408 79 q 559 -18 530 28 q 574 -139 593 -71 q 527 -218 562 -184 q 350 -278 456 -286 q 259 -256 296 -275 q 129 -95 153 -205 l 54 -108 q 357 -338 99 -332 q 475 -319 416 -340 q 602 -236 555 -292 q 657 -98 654 -175 q 650 -25 659 -58 q 623 32 641 6 q 484 129 591 75 m 354 169 q 289 189 314 180 q 208 240 243 204 q 173 294 184 264 q 162 366 161 326 q 228 490 164 442 q 359 531 284 531 q 403 527 381 531 q 460 506 433 517 q 559 429 530 475 q 574 308 593 376 q 527 229 562 263 q 354 169 458 163 "},"¨":{"ha":490,"x_min":68,"x_max":422,"o":"m 122 802 q 160 818 144 802 q 176 857 176 834 q 160 895 176 878 q 122 910 144 910 q 83 895 99 910 q 68 857 68 879 q 83 818 68 833 q 122 802 99 802 m 368 802 q 406 818 391 802 q 422 857 422 834 q 406 895 422 878 q 368 910 391 910 q 330 895 345 910 q 314 857 314 879 q 330 818 314 833 q 368 802 345 802 "},"©":{"ha":1187,"x_min":68,"x_max":1120,"o":"m 594 1013 q 336 945 462 1013 q 139 750 210 877 q 68 486 68 623 q 138 225 68 351 q 333 30 208 99 q 594 -39 458 -39 q 856 30 730 -39 q 1050 225 981 99 q 1120 486 1120 351 q 1049 750 1120 623 q 852 945 979 877 q 594 1013 726 1013 m 594 963 q 828 901 714 963 q 1006 725 942 840 q 1070 486 1070 610 q 1007 250 1070 363 q 831 74 944 137 q 594 10 718 10 q 357 74 471 10 q 181 250 244 137 q 117 486 117 363 q 182 725 117 610 q 360 901 246 840 q 594 963 473 963 m 798 627 l 836 635 q 768 745 824 692 q 604 809 698 809 q 417 730 494 809 q 340 539 340 651 l 340 427 q 417 237 340 315 q 604 157 494 157 q 767 221 698 157 q 845 359 835 284 l 805 363 q 743 251 797 303 q 604 197 686 197 q 448 264 512 197 q 385 422 385 330 l 385 543 q 448 702 385 637 q 604 768 512 768 q 745 714 688 768 q 798 627 788 671 "},"ª":{"ha":584,"x_min":68,"x_max":516,"o":"m 292 978 q 133 918 199 978 q 68 776 68 859 q 133 634 68 693 q 292 574 199 574 q 474 679 420 574 l 474 591 q 479 580 474 585 q 494 574 485 574 l 496 574 q 511 580 505 574 q 516 591 516 585 l 516 776 q 451 918 516 859 q 292 978 385 978 m 292 926 q 407 883 359 926 q 456 776 456 839 q 407 669 456 713 q 292 626 359 626 q 176 669 224 626 q 128 776 128 713 q 176 883 128 839 q 292 926 224 926 "},"«":{"ha":686,"x_min":20,"x_max":632,"o":"m 273 699 l 26 481 q 20 468 20 477 q 26 455 20 460 l 273 237 l 365 237 l 100 468 l 365 699 l 273 699 m 540 699 l 293 481 q 288 468 288 477 q 293 455 288 460 l 540 237 l 632 237 l 367 468 l 632 699 l 540 699 "},"¬":{"ha":669,"x_min":88,"x_max":581,"o":"m 88 513 l 88 471 l 532 471 l 532 237 l 581 237 l 581 513 l 88 513 "},"®":{"ha":1187,"x_min":68,"x_max":1120,"o":"m 594 1019 q 336 951 462 1019 q 139 757 210 884 q 68 493 68 630 q 138 232 68 357 q 333 37 208 106 q 594 -33 458 -33 q 856 37 730 -33 q 1050 232 981 106 q 1120 493 1120 357 q 1049 757 1120 630 q 852 951 979 884 q 594 1019 726 1019 m 594 970 q 828 908 714 970 q 1006 732 942 846 q 1070 493 1070 617 q 1007 257 1070 370 q 831 80 944 144 q 594 17 718 17 q 357 80 471 17 q 181 257 244 144 q 117 493 117 370 q 182 732 117 617 q 360 908 246 846 q 594 970 473 970 m 417 798 l 417 143 l 463 143 l 463 467 l 557 467 l 766 143 l 810 143 l 604 467 q 695 472 660 465 q 760 505 730 479 q 820 633 820 555 q 772 749 820 701 q 656 798 724 797 l 417 798 m 656 507 l 463 507 l 463 758 l 656 758 q 744 720 708 757 q 780 633 780 684 q 744 545 780 581 q 656 507 715 511 "},"¯":{"ha":564,"x_min":34,"x_max":442,"o":"m 442 923 l 442 924 q 430 954 442 942 q 400 966 418 966 l 75 966 q 46 954 58 966 q 34 924 34 942 l 34 923 q 46 894 34 906 q 75 882 58 882 l 400 882 q 430 894 418 882 q 442 923 442 906 "},"°":{"ha":530,"x_min":68,"x_max":463,"o":"m 128 802 q 167 892 128 854 q 257 930 205 930 l 272 930 q 363 892 326 930 q 402 802 402 854 q 363 710 402 747 q 272 671 326 671 l 257 671 q 167 710 204 671 q 128 802 128 747 m 68 802 q 122 670 68 724 q 254 616 176 616 l 277 616 q 408 670 353 616 q 463 802 463 724 q 408 932 463 878 q 277 986 353 986 l 254 986 q 122 932 176 986 q 68 802 68 878 "},"±":{"ha":700,"x_min":34,"x_max":666,"o":"m 393 532 l 393 764 q 380 793 393 781 q 351 806 368 806 l 349 806 q 320 793 332 806 q 308 764 308 781 l 308 532 l 75 532 q 46 519 58 532 q 34 490 34 507 l 34 488 q 46 459 34 471 q 75 447 58 447 l 308 447 l 308 216 q 320 186 308 198 q 349 174 332 174 l 351 174 q 380 186 368 174 q 393 216 393 198 l 393 447 l 624 447 q 654 459 642 447 q 666 488 666 471 l 666 490 q 654 519 666 507 q 624 532 642 532 l 393 532 m 666 41 l 666 43 q 654 73 666 60 q 624 85 642 85 l 75 85 q 46 73 58 85 q 34 43 34 60 l 34 41 q 46 12 34 24 q 75 0 58 0 l 624 0 q 654 12 642 0 q 666 41 666 24 "},"´":{"ha":380,"x_min":110,"x_max":361,"o":"m 189 782 l 360 951 q 353 958 361 958 l 235 958 q 232 957 233 958 l 113 787 q 111 780 110 783 q 116 777 113 777 l 178 777 q 189 782 184 777 "},"µ":{"ha":724,"x_min":75,"x_max":649,"o":"m 159 137 q 362 -1 247 -1 q 564 137 477 -1 l 564 -34 q 576 -63 564 -51 q 606 -75 589 -75 l 608 -75 q 637 -63 625 -75 q 649 -34 649 -51 l 649 658 q 637 688 649 675 q 608 699 625 699 l 606 699 q 576 688 589 699 q 564 658 564 675 l 564 286 q 505 143 564 203 q 362 84 446 84 q 218 143 278 84 q 159 286 159 203 l 159 657 q 147 687 159 675 q 118 699 135 699 l 116 699 q 87 688 99 699 q 75 658 75 675 l 75 -237 q 87 -267 75 -254 q 116 -279 99 -279 l 118 -279 q 147 -267 135 -279 q 159 -237 159 -254 l 159 137 "},"¶":{"ha":684,"x_min":68,"x_max":646,"o":"m 646 959 l 646 1019 l 316 1019 q 134 922 204 1010 q 68 747 68 846 q 134 571 68 646 q 336 474 199 494 l 336 0 l 403 0 l 403 959 l 526 959 l 526 0 l 587 0 l 587 959 l 646 959 "},"·":{"ha":222,"x_min":68,"x_max":154,"o":"m 111 446 q 141 458 129 446 q 154 489 154 471 q 141 519 154 507 q 111 532 129 532 q 80 519 92 532 q 68 489 68 507 q 80 458 68 471 q 111 446 92 446 "},"∙":{"ha":222,"x_min":68,"x_max":154,"o":"m 111 446 q 80 458 92 446 q 68 489 68 471 q 80 519 68 507 q 111 532 92 532 q 141 519 129 532 q 154 489 154 507 q 141 458 154 471 q 111 446 129 446 "},"¸":{"ha":393,"x_min":62,"x_max":331,"o":"m 167 -111 q 198 -107 179 -107 q 238 -120 222 -107 q 255 -153 255 -134 q 243 -182 255 -169 q 225 -197 236 -190 q 121 -212 193 -219 q 85 -209 100 -210 q 71 -215 77 -210 q 64 -229 64 -220 l 62 -241 q 68 -255 62 -248 q 83 -263 74 -261 q 148 -266 116 -266 q 288 -230 243 -266 q 331 -153 331 -196 q 298 -89 329 -116 q 205 -60 268 -61 l 219 3 l 163 3 l 145 -92 q 149 -108 144 -100 q 161 -113 155 -115 q 167 -111 167 -111 "},"»":{"ha":693,"x_min":54,"x_max":673,"o":"m 393 481 l 146 699 l 54 699 l 319 468 l 54 237 l 146 237 l 393 455 q 399 468 399 460 q 393 481 399 477 m 667 481 l 420 699 l 328 699 l 593 468 l 328 237 l 420 237 l 667 455 q 673 468 673 460 q 667 481 673 477 "},"¼":{"ha":1126,"x_min":27,"x_max":1099,"o":"m 229 410 l 229 947 q 220 968 229 959 q 191 978 208 978 l 64 978 q 37 968 48 978 q 27 947 27 959 l 27 947 q 37 927 27 935 q 64 917 48 917 l 153 917 l 153 410 q 163 389 153 399 q 190 380 174 380 l 191 380 q 218 389 208 380 q 229 410 229 399 m 611 1025 l 558 1025 l 229 -84 l 283 -84 l 611 1025 m 857 581 l 623 190 q 619 176 619 184 l 619 148 q 629 128 619 137 q 656 118 640 118 l 918 118 l 918 30 q 928 11 918 19 q 956 0 939 0 l 957 0 q 985 11 974 0 q 995 30 995 19 l 995 118 l 1061 118 q 1088 127 1078 118 q 1099 148 1099 137 l 1099 149 q 1089 169 1099 160 q 1061 180 1078 180 l 995 180 l 995 567 q 985 587 995 578 q 957 597 974 597 l 891 597 q 857 581 867 597 m 918 180 l 701 180 l 918 543 l 918 180 "},"½":{"ha":1066,"x_min":27,"x_max":1039,"o":"m 229 410 l 229 947 q 220 968 229 959 q 191 978 208 978 l 64 978 q 37 968 48 978 q 27 947 27 959 l 27 947 q 37 927 27 935 q 64 917 48 917 l 153 917 l 153 410 q 163 389 153 399 q 190 380 174 380 l 191 380 q 218 389 208 380 q 229 410 229 399 m 611 1025 l 558 1025 l 229 -84 l 283 -84 l 611 1025 m 856 597 l 679 597 q 650 587 662 597 q 641 567 641 578 l 641 566 q 650 546 641 555 q 679 536 661 536 l 856 536 q 926 509 897 536 q 958 437 958 479 q 903 348 958 391 q 785 276 884 335 q 670 191 707 229 q 619 68 619 135 l 619 30 q 629 10 619 19 q 656 0 640 0 l 1001 0 q 1029 10 1018 0 q 1039 30 1039 19 l 1039 31 q 1029 51 1039 42 q 1001 62 1018 62 l 699 62 q 753 180 699 130 q 869 256 784 208 q 984 334 952 304 q 1034 437 1034 381 q 983 551 1034 503 q 856 597 931 597 "},"¾":{"ha":1274,"x_min":27,"x_max":1246,"o":"m 188 978 l 64 978 q 37 968 48 978 q 27 947 27 959 l 27 947 q 37 927 27 935 q 64 917 48 917 l 188 917 q 259 889 229 917 q 290 818 290 860 q 258 747 290 776 q 188 720 229 720 l 84 719 q 56 709 67 719 q 47 689 47 700 l 47 688 q 58 667 47 677 q 84 658 67 658 l 188 658 q 266 628 233 658 q 300 550 300 596 q 266 472 300 504 q 188 442 233 442 l 64 442 q 39 433 48 442 q 27 412 27 422 l 27 410 q 37 391 27 399 q 64 380 48 380 l 188 380 q 321 430 267 380 q 376 550 376 481 q 296 690 376 632 q 366 818 366 745 q 316 930 366 883 q 188 978 262 978 m 759 1025 l 706 1025 l 377 -84 l 431 -84 l 759 1025 m 1005 581 l 770 190 q 767 176 767 184 l 767 148 q 777 128 767 137 q 804 118 788 118 l 1066 118 l 1066 30 q 1076 11 1066 19 q 1104 0 1087 0 l 1105 0 q 1133 11 1122 0 q 1143 30 1143 19 l 1143 118 l 1209 118 q 1236 127 1226 118 q 1246 148 1246 137 l 1246 149 q 1237 169 1246 160 q 1209 180 1225 180 l 1143 180 l 1143 567 q 1133 587 1143 578 q 1105 597 1122 597 l 1039 597 q 1005 581 1015 597 m 1066 180 l 849 180 l 1066 543 l 1066 180 "},"¿":{"ha":671,"x_min":91,"x_max":649,"o":"m 373 -227 q 543 -171 467 -227 q 643 -27 616 -115 q 637 8 649 -8 q 605 24 625 24 l 603 24 q 579 17 589 24 q 565 -4 568 9 q 493 -105 545 -66 q 373 -145 440 -145 q 232 -87 290 -145 q 173 55 173 -28 q 232 197 173 138 q 373 255 290 255 l 376 255 q 404 267 392 256 q 416 296 416 279 l 416 455 q 404 484 416 472 q 376 496 393 496 l 374 496 q 345 484 357 496 q 334 456 334 472 l 334 336 q 153 232 215 309 q 91 55 91 155 q 173 -145 91 -62 q 373 -227 256 -227 m 375 741 q 337 725 353 741 q 321 686 321 709 q 337 648 321 665 q 375 633 353 633 q 414 648 398 633 q 429 686 429 664 q 414 725 429 709 q 375 741 398 741 "},"À":{"ha":770,"x_min":75,"x_max":695,"o":"m 695 41 l 695 668 q 604 888 695 797 q 385 978 513 978 q 165 888 256 978 q 75 668 75 797 l 75 41 q 87 12 75 24 q 116 0 99 0 l 118 0 q 147 12 135 0 q 159 41 159 24 l 159 385 l 610 385 l 610 41 q 623 12 610 24 q 652 0 635 0 l 654 0 q 683 12 671 0 q 695 41 695 24 m 610 469 l 159 469 l 159 668 q 225 827 159 761 q 385 894 292 894 q 545 827 478 894 q 610 668 610 761 l 610 469 m 224 1229 l 395 1060 q 406 1055 400 1055 l 468 1055 q 473 1058 471 1055 q 471 1065 474 1061 l 352 1235 q 349 1236 351 1236 l 231 1236 q 224 1229 222 1236 "},"Á":{"ha":770,"x_min":75,"x_max":695,"o":"m 695 41 l 695 668 q 604 888 695 797 q 385 978 513 978 q 165 888 256 978 q 75 668 75 797 l 75 41 q 87 12 75 24 q 116 0 99 0 l 118 0 q 147 12 135 0 q 159 41 159 24 l 159 385 l 610 385 l 610 41 q 623 12 610 24 q 652 0 635 0 l 654 0 q 683 12 671 0 q 695 41 695 24 m 610 469 l 159 469 l 159 668 q 225 827 159 761 q 385 894 292 894 q 545 827 478 894 q 610 668 610 761 l 610 469 m 378 1060 l 549 1229 q 543 1236 551 1236 l 425 1236 q 421 1235 422 1236 l 302 1065 q 300 1058 299 1061 q 305 1055 302 1055 l 367 1055 q 378 1060 373 1055 "},"Â":{"ha":770,"x_min":75,"x_max":695,"o":"m 695 41 l 695 668 q 604 888 695 797 q 385 978 513 978 q 165 888 256 978 q 75 668 75 797 l 75 41 q 87 12 75 24 q 116 0 99 0 l 118 0 q 147 12 135 0 q 159 41 159 24 l 159 385 l 610 385 l 610 41 q 623 12 610 24 q 652 0 635 0 l 654 0 q 683 12 671 0 q 695 41 695 24 m 610 469 l 159 469 l 159 668 q 225 827 159 761 q 385 894 292 894 q 545 827 478 894 q 610 668 610 761 l 610 469 m 445 1236 l 325 1236 q 321 1235 322 1236 l 202 1065 q 201 1058 199 1061 q 205 1055 202 1055 l 267 1055 q 278 1060 273 1055 l 385 1172 l 492 1060 q 503 1055 496 1055 l 564 1055 q 569 1058 568 1055 q 568 1065 570 1061 l 448 1235 q 445 1236 448 1236 "},"Ã":{"ha":770,"x_min":75,"x_max":695,"o":"m 695 41 l 695 668 q 604 888 695 797 q 385 978 513 978 q 165 888 256 978 q 75 668 75 797 l 75 41 q 87 12 75 24 q 116 0 99 0 l 118 0 q 147 12 135 0 q 159 41 159 24 l 159 385 l 610 385 l 610 41 q 623 12 610 24 q 652 0 635 0 l 654 0 q 683 12 671 0 q 695 41 695 24 m 610 469 l 159 469 l 159 668 q 225 827 159 761 q 385 894 292 894 q 545 827 478 894 q 610 668 610 761 l 610 469 m 157 1085 q 161 1071 156 1078 q 176 1065 168 1065 l 208 1065 q 225 1078 222 1065 q 279 1114 235 1114 q 342 1099 311 1114 q 441 1068 399 1068 q 553 1165 537 1068 q 549 1179 554 1173 q 534 1185 543 1185 l 511 1185 q 493 1173 496 1185 q 443 1133 484 1135 q 376 1152 411 1136 q 275 1180 317 1180 q 194 1154 227 1180 q 157 1085 165 1128 "},"Ä":{"ha":770,"x_min":75,"x_max":695,"o":"m 695 41 l 695 668 q 604 888 695 797 q 385 978 513 978 q 165 888 256 978 q 75 668 75 797 l 75 41 q 87 12 75 24 q 116 0 99 0 l 118 0 q 147 12 135 0 q 159 41 159 24 l 159 385 l 610 385 l 610 41 q 623 12 610 24 q 652 0 635 0 l 654 0 q 683 12 671 0 q 695 41 695 24 m 610 469 l 159 469 l 159 668 q 225 827 159 761 q 385 894 292 894 q 545 827 478 894 q 610 668 610 761 l 610 469 m 262 1080 q 300 1096 284 1080 q 316 1135 316 1112 q 300 1173 316 1156 q 262 1188 284 1188 q 223 1173 239 1188 q 208 1135 208 1157 q 223 1096 208 1112 q 262 1080 239 1080 m 508 1080 q 546 1096 530 1080 q 562 1135 562 1112 q 546 1173 562 1156 q 508 1188 530 1188 q 469 1173 485 1188 q 454 1135 454 1157 q 469 1096 454 1112 q 508 1080 485 1080 "},"Å":{"ha":770,"x_min":75,"x_max":695,"o":"m 695 41 l 695 668 q 604 888 695 797 q 385 978 513 978 q 165 888 256 978 q 75 668 75 797 l 75 41 q 87 12 75 24 q 116 0 99 0 l 118 0 q 147 12 135 0 q 159 41 159 24 l 159 385 l 610 385 l 610 41 q 623 12 610 24 q 652 0 635 0 l 654 0 q 683 12 671 0 q 695 41 695 24 m 610 469 l 159 469 l 159 668 q 225 827 159 761 q 385 894 292 894 q 545 827 478 894 q 610 668 610 761 l 610 469 m 315 1141 q 335 1189 315 1168 q 381 1208 354 1208 l 389 1208 q 435 1189 416 1208 q 456 1141 456 1168 q 435 1094 456 1113 q 389 1074 416 1074 l 381 1074 q 335 1094 354 1074 q 315 1141 315 1113 m 254 1141 q 290 1054 254 1090 q 377 1018 326 1018 l 393 1018 q 481 1054 444 1018 q 517 1141 517 1090 q 481 1228 517 1192 q 393 1264 444 1264 l 377 1264 q 290 1228 326 1264 q 254 1141 254 1192 "},"Æ":{"ha":1152,"x_min":75,"x_max":1101,"o":"m 610 469 l 159 469 l 159 668 q 225 827 159 761 q 385 894 292 894 q 545 827 478 894 q 610 668 610 761 l 610 469 m 611 271 l 611 207 q 671 60 611 121 q 818 0 732 0 l 1059 0 q 1089 12 1077 0 q 1101 41 1101 24 l 1101 43 q 1089 73 1101 60 q 1059 84 1077 84 l 818 84 q 731 120 767 84 q 695 207 695 156 l 695 446 l 1059 446 q 1089 458 1077 446 q 1101 488 1101 471 l 1101 490 q 1089 519 1101 507 q 1059 531 1077 531 l 695 531 l 695 771 q 731 857 695 821 q 818 893 767 893 l 1059 893 q 1089 905 1077 893 q 1101 935 1101 918 l 1101 937 q 1089 966 1101 954 q 1059 978 1077 978 l 818 978 q 671 918 732 978 q 630 862 656 901 q 604 888 608 884 q 385 978 513 978 q 165 888 256 978 q 75 668 75 797 l 75 41 q 87 12 75 24 q 116 0 99 0 l 118 0 q 147 12 135 0 q 159 41 159 24 l 159 385 l 610 385 l 610 279 q 611 271 610 275 "},"Ç":{"ha":734,"x_min":51,"x_max":693,"o":"m 540 978 q 194 835 337 978 q 51 489 51 692 q 194 143 51 286 q 540 0 337 0 q 662 15 602 0 q 693 56 693 23 l 693 57 q 677 90 693 77 q 641 97 661 102 q 540 85 591 85 q 254 203 373 85 q 136 489 136 321 q 254 775 136 656 q 540 894 373 894 q 641 881 591 894 q 677 888 661 876 q 693 921 693 901 l 693 923 q 662 963 693 955 q 540 978 602 978 m 500 -94 q 531 -90 512 -90 q 571 -103 555 -90 q 588 -136 588 -117 q 576 -165 588 -152 q 558 -180 569 -173 q 454 -195 526 -202 q 418 -192 433 -193 q 404 -198 410 -193 q 397 -212 397 -203 l 395 -224 q 401 -238 395 -231 q 416 -246 407 -244 q 481 -249 449 -249 q 621 -213 576 -249 q 664 -136 664 -179 q 631 -72 662 -99 q 538 -43 601 -44 l 552 20 l 496 20 l 478 -75 q 482 -91 477 -83 q 494 -96 488 -98 q 500 -94 500 -94 "},"È":{"ha":602,"x_min":75,"x_max":565,"o":"m 159 531 l 159 771 q 195 857 159 821 q 281 893 231 893 l 524 893 q 553 905 541 893 q 565 935 565 918 l 565 937 q 553 966 565 954 q 524 978 541 978 l 281 978 q 135 918 195 978 q 75 771 75 857 l 75 207 q 135 60 75 121 q 281 0 195 0 l 524 0 q 553 12 541 0 q 565 41 565 24 l 565 43 q 553 73 565 60 q 524 85 541 85 l 281 85 q 195 121 231 85 q 159 207 159 157 l 159 447 l 524 447 q 553 458 541 447 q 565 488 565 471 l 565 490 q 553 519 565 507 q 524 531 541 531 l 159 531 m 159 1229 l 330 1060 q 341 1055 335 1055 l 403 1055 q 408 1058 406 1055 q 406 1065 409 1061 l 287 1235 q 283 1236 286 1236 l 165 1236 q 159 1229 157 1236 "},"É":{"ha":602,"x_min":75,"x_max":565,"o":"m 159 531 l 159 771 q 195 857 159 821 q 281 893 231 893 l 524 893 q 553 905 541 893 q 565 935 565 918 l 565 937 q 553 966 565 954 q 524 978 541 978 l 281 978 q 135 918 195 978 q 75 771 75 857 l 75 207 q 135 60 75 121 q 281 0 195 0 l 524 0 q 553 12 541 0 q 565 41 565 24 l 565 43 q 553 73 565 60 q 524 85 541 85 l 281 85 q 195 121 231 85 q 159 207 159 157 l 159 447 l 524 447 q 553 458 541 447 q 565 488 565 471 l 565 490 q 553 519 565 507 q 524 531 541 531 l 159 531 m 313 1060 l 484 1229 q 477 1236 486 1236 l 359 1236 q 356 1235 357 1236 l 237 1065 q 235 1058 234 1061 q 240 1055 237 1055 l 302 1055 q 313 1060 308 1055 "},"Ê":{"ha":602,"x_min":75,"x_max":565,"o":"m 159 531 l 159 771 q 195 857 159 821 q 281 893 231 893 l 524 893 q 553 905 541 893 q 565 935 565 918 l 565 937 q 553 966 565 954 q 524 978 541 978 l 281 978 q 135 918 195 978 q 75 771 75 857 l 75 207 q 135 60 75 121 q 281 0 195 0 l 524 0 q 553 12 541 0 q 565 41 565 24 l 565 43 q 553 73 565 60 q 524 85 541 85 l 281 85 q 195 121 231 85 q 159 207 159 157 l 159 447 l 524 447 q 553 458 541 447 q 565 488 565 471 l 565 490 q 553 519 565 507 q 524 531 541 531 l 159 531 m 380 1236 l 260 1236 q 256 1235 257 1236 l 137 1065 q 136 1058 134 1061 q 140 1055 137 1055 l 202 1055 q 213 1060 208 1055 l 320 1172 l 427 1060 q 437 1055 431 1055 l 499 1055 q 504 1058 503 1055 q 503 1065 505 1061 l 383 1235 q 380 1236 382 1236 "},"Ë":{"ha":602,"x_min":75,"x_max":565,"o":"m 159 531 l 159 771 q 195 857 159 821 q 281 893 231 893 l 524 893 q 553 905 541 893 q 565 935 565 918 l 565 937 q 553 966 565 954 q 524 978 541 978 l 281 978 q 135 918 195 978 q 75 771 75 857 l 75 207 q 135 60 75 121 q 281 0 195 0 l 524 0 q 553 12 541 0 q 565 41 565 24 l 565 43 q 553 73 565 60 q 524 85 541 85 l 281 85 q 195 121 231 85 q 159 207 159 157 l 159 447 l 524 447 q 553 458 541 447 q 565 488 565 471 l 565 490 q 553 519 565 507 q 524 531 541 531 l 159 531 m 197 1080 q 235 1096 219 1080 q 251 1135 251 1112 q 235 1173 251 1156 q 197 1188 219 1188 q 158 1173 174 1188 q 142 1135 142 1157 q 158 1096 142 1112 q 197 1080 174 1080 m 443 1080 q 481 1096 465 1080 q 497 1135 497 1112 q 481 1173 497 1156 q 443 1188 465 1188 q 404 1173 420 1188 q 389 1135 389 1157 q 404 1096 389 1112 q 443 1080 420 1080 "},"Ì":{"ha":275,"x_min":-31,"x_max":221,"o":"m 138 978 l 136 978 q 107 966 119 978 q 95 937 95 954 l 95 41 q 107 12 95 24 q 136 0 119 0 l 138 0 q 168 12 155 0 q 180 41 180 24 l 180 937 q 168 966 180 954 q 138 978 155 978 m -29 1229 l 142 1060 q 153 1055 147 1055 l 215 1055 q 220 1058 218 1055 q 218 1065 221 1061 l 99 1235 q 96 1236 98 1236 l -22 1236 q -29 1229 -31 1236 "},"Í":{"ha":275,"x_min":54,"x_max":305,"o":"m 138 978 l 136 978 q 107 966 119 978 q 95 937 95 954 l 95 41 q 107 12 95 24 q 136 0 119 0 l 138 0 q 168 12 155 0 q 180 41 180 24 l 180 937 q 168 966 180 954 q 138 978 155 978 m 132 1060 l 304 1229 q 297 1236 305 1236 l 179 1236 q 176 1235 176 1236 l 56 1065 q 55 1058 54 1061 q 60 1055 56 1055 l 121 1055 q 132 1060 127 1055 "},"Î":{"ha":275,"x_min":-48,"x_max":323,"o":"m 138 978 l 136 978 q 107 966 119 978 q 95 937 95 954 l 95 41 q 107 12 95 24 q 136 0 119 0 l 138 0 q 168 12 155 0 q 180 41 180 24 l 180 937 q 168 966 180 954 q 138 978 155 978 m 197 1236 l 77 1236 q 74 1235 75 1236 l -45 1065 q -47 1058 -48 1061 q -42 1055 -45 1055 l 20 1055 q 31 1060 26 1055 l 138 1172 l 244 1060 q 255 1055 249 1055 l 317 1055 q 321 1058 320 1055 q 320 1065 323 1061 l 201 1235 q 197 1236 200 1236 "},"Ï":{"ha":275,"x_min":-40,"x_max":315,"o":"m 138 978 l 136 978 q 107 966 119 978 q 95 937 95 954 l 95 41 q 107 12 95 24 q 136 0 119 0 l 138 0 q 168 12 155 0 q 180 41 180 24 l 180 937 q 168 966 180 954 q 138 978 155 978 m 14 1080 q 52 1096 37 1080 q 68 1135 68 1112 q 52 1173 68 1156 q 14 1188 37 1188 q -24 1173 -9 1188 q -40 1135 -40 1157 q -24 1096 -40 1112 q 14 1080 -9 1080 m 260 1080 q 298 1096 283 1080 q 315 1135 315 1112 q 298 1173 315 1156 q 260 1188 283 1188 q 222 1173 237 1188 q 206 1135 206 1157 q 222 1096 206 1112 q 260 1080 237 1080 "},"Ð":{"ha":878,"x_min":7,"x_max":830,"o":"m 88 532 l 7 532 l 7 447 l 88 447 l 88 151 q 132 44 88 88 q 239 0 176 0 l 341 0 q 687 143 544 0 q 830 489 830 286 q 687 835 830 692 q 341 978 544 978 l 239 978 q 132 935 176 978 q 88 827 88 890 l 88 532 m 173 532 l 173 827 q 192 874 173 854 q 239 894 212 894 l 341 894 q 627 775 509 894 q 746 489 746 656 q 627 203 746 321 q 341 85 509 85 l 239 85 q 192 104 212 85 q 173 151 173 123 l 173 447 l 380 447 l 380 532 l 173 532 "},"Ñ":{"ha":770,"x_min":75,"x_max":695,"o":"m 695 41 l 695 668 q 604 888 695 797 q 385 978 513 978 q 165 888 256 978 q 75 668 75 797 l 75 41 q 87 12 75 24 q 116 0 99 0 l 118 0 q 147 12 135 0 q 159 41 159 24 l 159 668 q 225 827 159 761 q 385 894 292 894 q 545 827 478 894 q 610 668 610 761 l 610 41 q 623 12 610 24 q 652 0 635 0 l 654 0 q 683 12 671 0 q 695 41 695 24 m 157 1085 q 161 1071 156 1078 q 176 1065 168 1065 l 208 1065 q 225 1078 222 1065 q 279 1114 235 1114 q 342 1099 311 1114 q 441 1068 399 1068 q 553 1165 537 1068 q 549 1179 554 1173 q 534 1185 543 1185 l 511 1185 q 493 1173 496 1185 q 443 1133 484 1135 q 376 1152 411 1136 q 275 1180 317 1180 q 194 1154 227 1180 q 157 1085 165 1128 "},"Ò":{"ha":1087,"x_min":54,"x_max":1033,"o":"m 543 978 q 197 835 340 978 q 54 489 54 692 q 197 143 54 286 q 543 0 340 0 q 890 143 746 0 q 1033 489 1033 286 q 890 835 1033 692 q 543 978 746 978 m 543 894 q 829 775 711 894 q 948 489 948 656 q 829 203 948 321 q 543 85 711 85 q 258 203 376 85 q 139 489 139 321 q 258 775 139 656 q 543 894 376 894 m 382 1229 l 554 1060 q 565 1055 559 1055 l 627 1055 q 631 1058 630 1055 q 630 1065 633 1061 l 511 1235 q 507 1236 510 1236 l 389 1236 q 382 1229 381 1236 "},"Ó":{"ha":1087,"x_min":54,"x_max":1033,"o":"m 543 978 q 197 835 340 978 q 54 489 54 692 q 197 143 54 286 q 543 0 340 0 q 890 143 746 0 q 1033 489 1033 286 q 890 835 1033 692 q 543 978 746 978 m 543 894 q 829 775 711 894 q 948 489 948 656 q 829 203 948 321 q 543 85 711 85 q 258 203 376 85 q 139 489 139 321 q 258 775 139 656 q 543 894 376 894 m 536 1060 l 708 1229 q 701 1236 709 1236 l 583 1236 q 580 1235 581 1236 l 460 1065 q 459 1058 458 1061 q 464 1055 460 1055 l 526 1055 q 536 1060 532 1055 "},"Ô":{"ha":1087,"x_min":54,"x_max":1033,"o":"m 543 978 q 197 835 340 978 q 54 489 54 692 q 197 143 54 286 q 543 0 340 0 q 890 143 746 0 q 1033 489 1033 286 q 890 835 1033 692 q 543 978 746 978 m 543 894 q 829 775 711 894 q 948 489 948 656 q 829 203 948 321 q 543 85 711 85 q 258 203 376 85 q 139 489 139 321 q 258 775 139 656 q 543 894 376 894 m 604 1236 l 484 1236 q 480 1235 481 1236 l 361 1065 q 359 1058 358 1061 q 364 1055 361 1055 l 426 1055 q 437 1060 432 1055 l 544 1172 l 650 1060 q 661 1055 655 1055 l 723 1055 q 728 1058 726 1055 q 726 1065 729 1061 l 607 1235 q 604 1236 606 1236 "},"Õ":{"ha":1087,"x_min":54,"x_max":1033,"o":"m 543 978 q 197 835 340 978 q 54 489 54 692 q 197 143 54 286 q 543 0 340 0 q 890 143 746 0 q 1033 489 1033 286 q 890 835 1033 692 q 543 978 746 978 m 543 894 q 829 775 711 894 q 948 489 948 656 q 829 203 948 321 q 543 85 711 85 q 258 203 376 85 q 139 489 139 321 q 258 775 139 656 q 543 894 376 894 m 316 1085 q 319 1071 315 1078 q 334 1065 326 1065 l 366 1065 q 384 1078 381 1065 q 437 1114 393 1114 q 501 1099 469 1114 q 600 1068 558 1068 q 711 1165 696 1068 q 707 1179 713 1173 q 693 1185 702 1185 l 670 1185 q 652 1173 655 1185 q 602 1133 643 1135 q 534 1152 570 1136 q 433 1180 475 1180 q 353 1154 385 1180 q 316 1085 323 1128 "},"Ö":{"ha":1087,"x_min":54,"x_max":1033,"o":"m 543 978 q 197 835 340 978 q 54 489 54 692 q 197 143 54 286 q 543 0 340 0 q 890 143 746 0 q 1033 489 1033 286 q 890 835 1033 692 q 543 978 746 978 m 543 894 q 829 775 711 894 q 948 489 948 656 q 829 203 948 321 q 543 85 711 85 q 258 203 376 85 q 139 489 139 321 q 258 775 139 656 q 543 894 376 894 m 420 1080 q 458 1096 443 1080 q 475 1135 475 1112 q 458 1173 475 1156 q 420 1188 443 1188 q 382 1173 397 1188 q 366 1135 366 1157 q 382 1096 366 1112 q 420 1080 397 1080 m 667 1080 q 705 1096 689 1080 q 721 1135 721 1112 q 705 1173 721 1156 q 667 1188 689 1188 q 628 1173 644 1188 q 612 1135 612 1157 q 628 1096 612 1112 q 667 1080 644 1080 "},"×":{"ha":541,"x_min":34,"x_max":507,"o":"m 271 550 l 106 714 q 77 726 94 726 q 47 713 59 726 l 46 713 q 35 684 34 701 q 46 654 34 666 l 210 490 l 46 326 q 35 296 34 313 q 47 266 35 278 l 47 265 q 77 254 60 253 q 106 265 94 253 l 271 429 l 434 266 q 464 254 446 254 q 495 269 481 254 l 496 269 q 507 296 507 279 q 494 326 507 314 l 331 490 l 494 653 q 507 683 507 665 q 492 714 507 700 l 491 715 q 464 726 481 726 q 434 713 446 726 l 271 550 "},"Ø":{"ha":1087,"x_min":54,"x_max":1033,"o":"m 679 873 l 351 131 q 258 203 292 168 q 139 489 139 321 q 258 775 139 656 q 543 894 376 894 q 679 873 603 894 m 412 105 l 739 846 q 829 775 796 809 q 948 489 948 656 q 829 203 948 321 q 543 85 711 85 q 412 105 486 85 m 773 923 l 836 1066 l 766 1066 l 714 949 q 543 978 625 978 q 197 835 340 978 q 54 489 54 692 q 197 143 54 286 q 317 54 245 95 l 228 -147 l 299 -147 l 376 28 q 543 0 464 0 q 890 143 746 0 q 1033 489 1033 286 q 890 835 1033 692 q 773 923 842 882 "},"Ù":{"ha":770,"x_min":75,"x_max":695,"o":"m 695 310 l 695 937 q 683 966 695 954 q 654 978 671 978 l 652 978 q 623 966 635 978 q 610 937 610 954 l 610 310 q 545 151 610 217 q 385 85 478 85 q 225 151 292 85 q 159 310 159 217 l 159 937 q 147 966 159 954 q 118 978 135 978 l 116 978 q 87 966 99 978 q 75 937 75 954 l 75 310 q 165 91 75 181 q 385 0 256 0 q 604 91 513 0 q 695 310 695 181 m 224 1229 l 395 1060 q 406 1055 400 1055 l 468 1055 q 473 1058 471 1055 q 471 1065 474 1061 l 352 1235 q 349 1236 351 1236 l 231 1236 q 224 1229 222 1236 "},"Ú":{"ha":770,"x_min":75,"x_max":695,"o":"m 695 310 l 695 937 q 683 966 695 954 q 654 978 671 978 l 652 978 q 623 966 635 978 q 610 937 610 954 l 610 310 q 545 151 610 217 q 385 85 478 85 q 225 151 292 85 q 159 310 159 217 l 159 937 q 147 966 159 954 q 118 978 135 978 l 116 978 q 87 966 99 978 q 75 937 75 954 l 75 310 q 165 91 75 181 q 385 0 256 0 q 604 91 513 0 q 695 310 695 181 m 378 1060 l 549 1229 q 543 1236 551 1236 l 425 1236 q 421 1235 422 1236 l 302 1065 q 300 1058 299 1061 q 305 1055 302 1055 l 367 1055 q 378 1060 373 1055 "},"Û":{"ha":770,"x_min":75,"x_max":695,"o":"m 695 310 l 695 937 q 683 966 695 954 q 654 978 671 978 l 652 978 q 623 966 635 978 q 610 937 610 954 l 610 310 q 545 151 610 217 q 385 85 478 85 q 225 151 292 85 q 159 310 159 217 l 159 937 q 147 966 159 954 q 118 978 135 978 l 116 978 q 87 966 99 978 q 75 937 75 954 l 75 310 q 165 91 75 181 q 385 0 256 0 q 604 91 513 0 q 695 310 695 181 m 445 1236 l 325 1236 q 321 1235 322 1236 l 202 1065 q 201 1058 199 1061 q 205 1055 202 1055 l 267 1055 q 278 1060 273 1055 l 385 1172 l 492 1060 q 503 1055 496 1055 l 564 1055 q 569 1058 568 1055 q 568 1065 570 1061 l 448 1235 q 445 1236 448 1236 "},"Ü":{"ha":770,"x_min":75,"x_max":695,"o":"m 695 310 l 695 937 q 683 966 695 954 q 654 978 671 978 l 652 978 q 623 966 635 978 q 610 937 610 954 l 610 310 q 545 151 610 217 q 385 85 478 85 q 225 151 292 85 q 159 310 159 217 l 159 937 q 147 966 159 954 q 118 978 135 978 l 116 978 q 87 966 99 978 q 75 937 75 954 l 75 310 q 165 91 75 181 q 385 0 256 0 q 604 91 513 0 q 695 310 695 181 m 262 1080 q 300 1096 284 1080 q 316 1135 316 1112 q 300 1173 316 1156 q 262 1188 284 1188 q 223 1173 239 1188 q 208 1135 208 1157 q 223 1096 208 1112 q 262 1080 239 1080 m 508 1080 q 546 1096 530 1080 q 562 1135 562 1112 q 546 1173 562 1156 q 508 1188 530 1188 q 469 1173 485 1188 q 454 1135 454 1157 q 469 1096 454 1112 q 508 1080 485 1080 "},"Ý":{"ha":756,"x_min":68,"x_max":688,"o":"m 688 635 l 688 937 q 676 966 688 954 q 647 978 664 978 l 645 978 q 616 966 628 978 q 604 937 604 954 l 604 635 q 538 475 604 542 q 378 410 471 410 q 218 475 285 410 q 153 635 153 542 l 153 937 q 140 966 153 954 q 111 978 128 978 l 109 978 q 80 966 92 978 q 68 937 68 954 l 68 635 q 140 436 68 523 q 336 328 211 351 l 336 41 q 348 12 336 24 q 377 0 360 0 l 379 0 q 408 12 396 0 q 420 41 420 24 l 420 328 q 616 436 545 351 q 688 635 688 523 m 371 1060 l 543 1229 q 536 1236 544 1236 l 418 1236 q 414 1235 415 1236 l 295 1065 q 294 1058 292 1061 q 298 1055 295 1055 l 360 1055 q 371 1060 366 1055 "},"Þ":{"ha":787,"x_min":95,"x_max":736,"o":"m 180 202 l 448 202 q 652 286 568 202 q 736 490 736 370 q 652 692 736 608 q 448 777 568 777 l 180 777 l 180 937 q 168 966 180 954 q 138 978 155 978 l 136 978 q 107 966 119 978 q 95 937 95 954 l 95 41 q 107 12 95 24 q 136 0 119 0 l 138 0 q 168 12 155 0 q 180 41 180 24 l 180 202 m 180 692 l 448 692 q 591 633 532 692 q 651 490 651 573 q 591 346 651 406 q 448 287 532 287 l 180 287 l 180 692 "},"ß":{"ha":722,"x_min":68,"x_max":654,"o":"m 153 41 l 153 827 q 172 874 153 854 q 218 894 191 894 l 380 894 q 503 842 452 894 q 553 720 553 791 q 503 597 553 648 q 380 547 452 547 l 341 547 q 311 535 323 547 q 300 505 300 523 l 300 504 q 311 475 300 486 q 341 463 323 463 l 380 463 q 513 407 458 463 q 568 273 568 351 q 513 140 568 195 q 380 85 458 85 l 338 85 q 309 73 321 85 q 297 43 297 60 l 297 41 q 309 12 297 24 q 338 0 321 0 l 380 0 q 574 80 494 0 q 654 273 654 160 q 526 506 654 408 q 638 720 638 600 q 563 903 638 827 q 380 978 488 978 l 218 978 q 112 935 156 978 q 68 827 68 890 l 68 41 q 80 12 68 24 q 109 0 92 0 l 111 0 q 140 12 128 0 q 153 41 153 24 "},"à":{"ha":836,"x_min":68,"x_max":768,"o":"m 418 700 q 170 597 273 700 q 68 350 68 495 q 170 102 68 205 q 418 0 273 0 q 683 118 550 0 l 683 41 q 695 12 683 24 q 724 0 707 0 l 726 0 q 755 12 743 0 q 768 41 768 24 l 768 350 q 665 597 768 495 q 418 700 563 700 m 418 615 q 605 537 528 615 q 683 350 683 459 q 605 162 683 240 q 418 85 528 85 q 230 162 308 85 q 153 350 153 240 q 230 537 153 459 q 418 615 308 615 m 256 951 l 428 782 q 439 777 433 777 l 500 777 q 505 780 504 777 q 504 787 507 783 l 385 957 q 381 958 384 958 l 263 958 q 256 951 255 958 "},"á":{"ha":836,"x_min":68,"x_max":768,"o":"m 418 700 q 170 597 273 700 q 68 350 68 495 q 170 102 68 205 q 418 0 273 0 q 683 118 550 0 l 683 41 q 695 12 683 24 q 724 0 707 0 l 726 0 q 755 12 743 0 q 768 41 768 24 l 768 350 q 665 597 768 495 q 418 700 563 700 m 418 615 q 605 537 528 615 q 683 350 683 459 q 605 162 683 240 q 418 85 528 85 q 230 162 308 85 q 153 350 153 240 q 230 537 153 459 q 418 615 308 615 m 410 782 l 582 951 q 575 958 583 958 l 457 958 q 454 957 454 958 l 334 787 q 333 780 332 783 q 338 777 334 777 l 399 777 q 410 782 406 777 "},"â":{"ha":836,"x_min":68,"x_max":768,"o":"m 418 700 q 170 597 273 700 q 68 350 68 495 q 170 102 68 205 q 418 0 273 0 q 683 118 550 0 l 683 41 q 695 12 683 24 q 724 0 707 0 l 726 0 q 755 12 743 0 q 768 41 768 24 l 768 350 q 665 597 768 495 q 418 700 563 700 m 418 615 q 605 537 528 615 q 683 350 683 459 q 605 162 683 240 q 418 85 528 85 q 230 162 308 85 q 153 350 153 240 q 230 537 153 459 q 418 615 308 615 m 477 958 l 357 958 q 354 957 355 958 l 235 787 q 233 780 232 783 q 238 777 235 777 l 300 777 q 311 782 306 777 l 418 894 l 524 782 q 535 777 529 777 l 597 777 q 602 780 600 777 q 600 787 603 783 l 481 957 q 477 958 480 958 "},"ã":{"ha":836,"x_min":68,"x_max":768,"o":"m 418 700 q 170 597 273 700 q 68 350 68 495 q 170 102 68 205 q 418 0 273 0 q 683 118 550 0 l 683 41 q 695 12 683 24 q 724 0 707 0 l 726 0 q 755 12 743 0 q 768 41 768 24 l 768 350 q 665 597 768 495 q 418 700 563 700 m 418 615 q 605 537 528 615 q 683 350 683 459 q 605 162 683 240 q 418 85 528 85 q 230 162 308 85 q 153 350 153 240 q 230 537 153 459 q 418 615 308 615 m 190 807 q 193 793 189 800 q 208 787 200 787 l 240 787 q 258 800 255 787 q 311 836 267 836 q 375 821 343 836 q 473 790 432 790 q 585 887 570 790 q 581 901 587 895 q 567 907 576 907 l 544 907 q 526 895 529 907 q 475 855 517 857 q 408 874 444 858 q 307 902 349 902 q 227 876 259 902 q 190 807 197 850 "},"ä":{"ha":836,"x_min":68,"x_max":768,"o":"m 418 700 q 170 597 273 700 q 68 350 68 495 q 170 102 68 205 q 418 0 273 0 q 683 118 550 0 l 683 41 q 695 12 683 24 q 724 0 707 0 l 726 0 q 755 12 743 0 q 768 41 768 24 l 768 350 q 665 597 768 495 q 418 700 563 700 m 418 615 q 605 537 528 615 q 683 350 683 459 q 605 162 683 240 q 418 85 528 85 q 230 162 308 85 q 153 350 153 240 q 230 537 153 459 q 418 615 308 615 m 294 802 q 332 818 317 802 q 349 857 349 834 q 332 895 349 878 q 294 910 317 910 q 256 895 271 910 q 240 857 240 879 q 256 818 240 833 q 294 802 271 802 m 541 802 q 578 818 563 802 q 595 857 595 834 q 578 895 595 878 q 541 910 563 910 q 502 895 517 910 q 486 857 486 879 q 502 818 486 833 q 541 802 517 802 "},"å":{"ha":836,"x_min":68,"x_max":768,"o":"m 418 700 q 170 597 273 700 q 68 350 68 495 q 170 102 68 205 q 418 0 273 0 q 683 118 550 0 l 683 41 q 695 12 683 24 q 724 0 707 0 l 726 0 q 755 12 743 0 q 768 41 768 24 l 768 350 q 665 597 768 495 q 418 700 563 700 m 418 615 q 605 537 528 615 q 683 350 683 459 q 605 162 683 240 q 418 85 528 85 q 230 162 308 85 q 153 350 153 240 q 230 537 153 459 q 418 615 308 615 m 347 863 q 368 911 347 890 q 414 930 387 930 l 421 930 q 468 911 449 930 q 488 863 488 890 q 468 816 488 835 q 421 796 449 796 l 414 796 q 368 816 387 796 q 347 863 347 835 m 286 863 q 322 776 286 812 q 410 740 358 740 l 426 740 q 513 776 477 740 q 549 863 549 812 q 513 950 549 914 q 426 986 477 986 l 410 986 q 322 950 358 986 q 286 863 286 914 "},"æ":{"ha":1441,"x_min":68,"x_max":1371,"o":"m 230 537 q 418 615 308 615 q 605 537 528 615 q 683 350 683 459 q 605 162 683 240 q 418 85 528 85 q 230 162 308 85 q 153 350 153 240 q 230 537 153 459 m 1034 614 q 1253 498 1157 614 l 775 282 q 768 348 768 328 q 846 536 768 458 q 1034 614 924 614 m 768 118 q 1034 0 899 0 q 1238 66 1146 0 q 1364 234 1328 130 q 1359 272 1371 254 q 1324 290 1346 290 q 1284 261 1294 290 q 1190 134 1257 182 q 1034 83 1120 83 q 809 205 904 83 q 1082 328 890 241 q 1331 440 1236 397 q 1353 463 1347 448 q 1352 495 1359 479 q 1225 643 1310 587 q 1034 700 1138 700 q 786 597 888 700 q 726 521 761 572 q 665 597 690 572 q 418 700 563 700 q 170 597 273 700 q 68 350 68 495 q 170 102 68 205 q 418 0 273 0 q 683 118 550 0 l 683 41 q 695 12 683 24 q 724 0 707 0 l 726 0 q 755 12 743 0 q 768 41 768 24 l 768 118 "},"ç":{"ha":580,"x_min":47,"x_max":532,"o":"m 397 700 q 150 597 252 700 q 47 350 47 495 q 150 102 47 205 q 397 0 252 0 q 503 16 452 0 q 532 56 532 26 q 515 90 532 77 q 478 95 498 102 q 397 83 439 83 q 210 161 288 83 q 132 348 132 239 q 210 536 132 458 q 397 614 288 614 q 478 600 439 614 q 515 607 498 594 q 532 640 532 619 l 532 644 q 503 683 532 674 q 397 700 452 700 m 367 -105 q 398 -101 379 -101 q 438 -114 422 -101 q 455 -146 455 -127 q 444 -176 455 -163 q 425 -191 436 -184 q 321 -205 393 -213 q 286 -203 300 -203 q 271 -209 277 -203 q 264 -223 264 -214 l 262 -235 q 268 -249 262 -242 q 283 -257 274 -255 q 348 -260 316 -260 q 488 -224 444 -260 q 531 -147 531 -190 q 498 -82 529 -110 q 406 -54 468 -55 l 419 9 l 363 9 l 345 -85 q 349 -102 344 -94 q 361 -107 355 -109 q 367 -105 367 -105 "},"è":{"ha":785,"x_min":47,"x_max":735,"o":"m 397 614 q 617 498 521 614 l 139 282 q 132 348 132 328 q 210 536 132 458 q 397 614 288 614 m 715 495 q 589 643 673 587 q 397 700 502 700 q 150 597 252 700 q 47 350 47 495 q 150 102 47 205 q 397 0 252 0 q 602 66 510 0 q 728 234 692 130 q 723 272 735 254 q 688 290 710 290 q 648 261 658 290 q 553 134 621 182 q 397 83 484 83 q 173 205 268 83 q 446 328 254 241 q 695 440 600 397 q 717 463 711 448 q 715 495 723 479 m 228 951 l 399 782 q 410 777 404 777 l 472 777 q 477 780 475 777 q 475 787 478 783 l 356 957 q 353 958 355 958 l 235 958 q 228 951 227 958 "},"é":{"ha":785,"x_min":47,"x_max":735,"o":"m 397 614 q 617 498 521 614 l 139 282 q 132 348 132 328 q 210 536 132 458 q 397 614 288 614 m 715 495 q 589 643 673 587 q 397 700 502 700 q 150 597 252 700 q 47 350 47 495 q 150 102 47 205 q 397 0 252 0 q 602 66 510 0 q 728 234 692 130 q 723 272 735 254 q 688 290 710 290 q 648 261 658 290 q 553 134 621 182 q 397 83 484 83 q 173 205 268 83 q 446 328 254 241 q 695 440 600 397 q 717 463 711 448 q 715 495 723 479 m 382 782 l 553 951 q 547 958 555 958 l 429 958 q 425 957 426 958 l 306 787 q 304 780 303 783 q 309 777 306 777 l 371 777 q 382 782 377 777 "},"ê":{"ha":785,"x_min":47,"x_max":735,"o":"m 397 614 q 617 498 521 614 l 139 282 q 132 348 132 328 q 210 536 132 458 q 397 614 288 614 m 715 495 q 589 643 673 587 q 397 700 502 700 q 150 597 252 700 q 47 350 47 495 q 150 102 47 205 q 397 0 252 0 q 602 66 510 0 q 728 234 692 130 q 723 272 735 254 q 688 290 710 290 q 648 261 658 290 q 553 134 621 182 q 397 83 484 83 q 173 205 268 83 q 446 328 254 241 q 695 440 600 397 q 717 463 711 448 q 715 495 723 479 m 448 958 l 328 958 q 325 957 326 958 l 205 787 q 204 780 203 783 q 209 777 205 777 l 271 777 q 281 782 277 777 l 389 894 l 495 782 q 506 777 500 777 l 568 777 q 572 780 571 777 q 571 787 574 783 l 452 957 q 448 958 451 958 "},"ë":{"ha":785,"x_min":47,"x_max":735,"o":"m 397 614 q 617 498 521 614 l 139 282 q 132 348 132 328 q 210 536 132 458 q 397 614 288 614 m 715 495 q 589 643 673 587 q 397 700 502 700 q 150 597 252 700 q 47 350 47 495 q 150 102 47 205 q 397 0 252 0 q 602 66 510 0 q 728 234 692 130 q 723 272 735 254 q 688 290 710 290 q 648 261 658 290 q 553 134 621 182 q 397 83 484 83 q 173 205 268 83 q 446 328 254 241 q 695 440 600 397 q 717 463 711 448 q 715 495 723 479 m 266 802 q 304 818 288 802 q 320 857 320 834 q 304 895 320 878 q 266 910 288 910 q 227 895 243 910 q 212 857 212 879 q 227 818 212 833 q 266 802 243 802 m 512 802 q 550 818 534 802 q 566 857 566 834 q 550 895 566 878 q 512 910 534 910 q 473 895 489 910 q 458 857 458 879 q 473 818 458 833 q 512 802 489 802 "},"ì":{"ha":271,"x_min":-33,"x_max":219,"o":"m 136 700 l 135 700 q 105 688 117 700 q 93 658 93 675 l 93 41 q 105 12 93 24 q 135 0 117 0 l 136 0 q 165 12 153 0 q 178 41 178 24 l 178 658 q 165 688 178 675 q 136 700 153 700 m -31 951 l 140 782 q 151 777 145 777 l 213 777 q 218 780 216 777 q 216 787 219 783 l 97 957 q 94 958 96 958 l -24 958 q -31 951 -33 958 "},"í":{"ha":271,"x_min":52,"x_max":303,"o":"m 136 700 l 135 700 q 105 688 117 700 q 93 658 93 675 l 93 41 q 105 12 93 24 q 135 0 117 0 l 136 0 q 165 12 153 0 q 178 41 178 24 l 178 658 q 165 688 178 675 q 136 700 153 700 m 130 782 l 302 951 q 295 958 303 958 l 177 958 q 174 957 174 958 l 54 787 q 53 780 52 783 q 58 777 54 777 l 119 777 q 130 782 125 777 "},"î":{"ha":271,"x_min":-50,"x_max":321,"o":"m 136 700 l 135 700 q 105 688 117 700 q 93 658 93 675 l 93 41 q 105 12 93 24 q 135 0 117 0 l 136 0 q 165 12 153 0 q 178 41 178 24 l 178 658 q 165 688 178 675 q 136 700 153 700 m 195 958 l 75 958 q 72 957 73 958 l -47 787 q -49 780 -50 783 q -44 777 -47 777 l 18 777 q 28 782 24 777 l 136 894 l 242 782 q 253 777 247 777 l 315 777 q 319 780 318 777 q 318 787 321 783 l 199 957 q 195 958 198 958 "},"ï":{"ha":271,"x_min":-42,"x_max":313,"o":"m 136 700 l 135 700 q 105 688 117 700 q 93 658 93 675 l 93 41 q 105 12 93 24 q 135 0 117 0 l 136 0 q 165 12 153 0 q 178 41 178 24 l 178 658 q 165 688 178 675 q 136 700 153 700 m 12 802 q 50 818 35 802 q 66 857 66 834 q 50 895 66 878 q 12 910 35 910 q -26 895 -11 910 q -42 857 -42 879 q -26 818 -42 833 q 12 802 -11 802 m 258 802 q 296 818 281 802 q 313 857 313 834 q 296 895 313 878 q 258 910 281 910 q 220 895 235 910 q 204 857 204 879 q 220 818 204 833 q 258 802 235 802 "},"ð":{"ha":836,"x_min":68,"x_max":768,"o":"m 418 614 q 605 536 528 614 q 683 348 683 458 q 605 161 683 239 q 418 83 528 83 q 230 161 308 83 q 153 348 153 239 q 230 536 153 458 q 418 614 308 614 m 456 1018 q 448 1017 451 1021 l 386 933 q 309 971 340 958 q 302 969 304 973 l 273 926 q 273 921 272 924 q 275 917 273 918 q 345 880 300 905 l 279 792 q 280 784 276 787 l 313 760 q 320 761 317 756 l 389 851 q 587 665 480 785 q 418 700 470 700 q 170 597 273 700 q 68 350 68 495 q 170 102 68 205 q 418 0 273 0 q 665 102 563 0 q 768 350 768 205 q 766 389 768 369 q 721 565 762 463 q 430 907 639 768 l 489 986 q 488 994 492 990 l 456 1018 "},"ñ":{"ha":710,"x_min":68,"x_max":642,"o":"m 153 41 l 153 412 q 212 555 153 496 q 355 615 271 615 q 498 555 439 615 q 557 412 557 496 l 557 41 q 570 12 557 24 q 600 0 582 0 l 601 0 q 630 12 618 0 q 642 41 642 24 l 642 412 q 558 616 642 532 q 355 700 474 700 q 152 616 236 700 q 68 412 68 532 l 68 41 q 80 12 68 24 q 109 0 92 0 l 111 0 q 140 12 128 0 q 153 41 153 24 m 127 807 q 131 793 126 800 q 146 787 138 787 l 178 787 q 195 800 193 787 q 249 836 205 836 q 313 821 281 836 q 411 790 370 790 q 523 887 507 790 q 519 901 524 895 q 505 907 513 907 l 481 907 q 463 895 467 907 q 413 855 454 857 q 346 874 381 858 q 245 902 287 902 q 164 876 197 902 q 127 807 135 850 "},"ò":{"ha":795,"x_min":47,"x_max":747,"o":"m 397 614 q 585 536 508 614 q 663 348 663 458 q 585 161 663 239 q 397 83 508 83 q 210 161 288 83 q 132 348 132 239 q 210 536 132 458 q 397 614 288 614 m 397 700 q 150 597 252 700 q 47 350 47 495 q 150 102 47 205 q 397 0 252 0 q 645 102 543 0 q 747 350 747 205 q 645 597 747 495 q 397 700 543 700 m 236 951 l 408 782 q 418 777 412 777 l 480 777 q 485 780 484 777 q 484 787 486 783 l 364 957 q 361 958 363 958 l 243 958 q 236 951 235 958 "},"ó":{"ha":795,"x_min":47,"x_max":747,"o":"m 397 614 q 585 536 508 614 q 663 348 663 458 q 585 161 663 239 q 397 83 508 83 q 210 161 288 83 q 132 348 132 239 q 210 536 132 458 q 397 614 288 614 m 397 700 q 150 597 252 700 q 47 350 47 495 q 150 102 47 205 q 397 0 252 0 q 645 102 543 0 q 747 350 747 205 q 645 597 747 495 q 397 700 543 700 m 390 782 l 562 951 q 555 958 563 958 l 437 958 q 433 957 434 958 l 314 787 q 313 780 311 783 q 317 777 314 777 l 379 777 q 390 782 385 777 "},"ô":{"ha":795,"x_min":47,"x_max":747,"o":"m 397 614 q 585 536 508 614 q 663 348 663 458 q 585 161 663 239 q 397 83 508 83 q 210 161 288 83 q 132 348 132 239 q 210 536 132 458 q 397 614 288 614 m 397 700 q 150 597 252 700 q 47 350 47 495 q 150 102 47 205 q 397 0 252 0 q 645 102 543 0 q 747 350 747 205 q 645 597 747 495 q 397 700 543 700 m 457 958 l 337 958 q 334 957 334 958 l 214 787 q 213 780 212 783 q 218 777 214 777 l 279 777 q 290 782 286 777 l 397 894 l 504 782 q 515 777 509 777 l 576 777 q 581 780 580 777 q 580 787 583 783 l 460 957 q 457 958 460 958 "},"õ":{"ha":795,"x_min":47,"x_max":747,"o":"m 397 614 q 585 536 508 614 q 663 348 663 458 q 585 161 663 239 q 397 83 508 83 q 210 161 288 83 q 132 348 132 239 q 210 536 132 458 q 397 614 288 614 m 397 700 q 150 597 252 700 q 47 350 47 495 q 150 102 47 205 q 397 0 252 0 q 645 102 543 0 q 747 350 747 205 q 645 597 747 495 q 397 700 543 700 m 170 807 q 173 793 168 800 q 188 787 180 787 l 220 787 q 237 800 235 787 q 291 836 247 836 q 355 821 323 836 q 453 790 412 790 q 565 887 549 790 q 561 901 566 895 q 547 907 555 907 l 524 907 q 505 895 509 907 q 455 855 496 857 q 388 874 423 858 q 287 902 329 902 q 206 876 239 902 q 170 807 177 850 "},"ö":{"ha":795,"x_min":47,"x_max":747,"o":"m 397 614 q 585 536 508 614 q 663 348 663 458 q 585 161 663 239 q 397 83 508 83 q 210 161 288 83 q 132 348 132 239 q 210 536 132 458 q 397 614 288 614 m 397 700 q 150 597 252 700 q 47 350 47 495 q 150 102 47 205 q 397 0 252 0 q 645 102 543 0 q 747 350 747 205 q 645 597 747 495 q 397 700 543 700 m 274 802 q 312 818 296 802 q 328 857 328 834 q 312 895 328 878 q 274 910 296 910 q 235 895 251 910 q 220 857 220 879 q 235 818 220 833 q 274 802 251 802 m 520 802 q 558 818 543 802 q 574 857 574 834 q 558 895 574 878 q 520 910 543 910 q 481 895 497 910 q 466 857 466 879 q 481 818 466 833 q 520 802 497 802 "},"÷":{"ha":564,"x_min":34,"x_max":530,"o":"m 530 488 l 530 490 q 518 519 530 507 q 488 532 506 532 l 75 532 q 46 519 58 532 q 34 490 34 507 l 34 488 q 46 459 34 471 q 75 447 58 447 l 488 447 q 518 459 506 447 q 530 488 530 471 m 282 208 q 320 223 304 208 q 336 262 336 239 q 320 300 336 283 q 282 315 304 315 q 243 300 259 315 q 228 262 228 284 q 243 223 228 239 q 282 208 259 208 m 282 664 q 320 680 304 664 q 336 718 336 696 q 320 756 336 740 q 282 772 304 772 q 243 756 259 772 q 228 718 228 741 q 243 680 228 695 q 282 664 259 664 "},"ø":{"ha":795,"x_min":47,"x_max":747,"o":"m 224 44 l 140 -142 l 211 -142 l 283 18 q 397 0 346 0 q 645 102 543 0 q 747 350 747 205 q 645 597 747 495 q 574 654 618 625 l 656 836 l 586 836 l 516 681 q 397 700 451 700 q 150 597 252 700 q 47 350 47 495 q 150 102 47 205 q 224 44 178 74 m 538 574 q 585 536 572 549 q 663 348 663 458 q 585 161 663 239 q 397 83 508 83 q 318 93 370 83 l 538 574 m 259 119 q 210 161 223 146 q 132 348 132 239 q 210 536 132 458 q 397 614 288 614 q 480 603 427 614 l 259 119 "},"ù":{"ha":710,"x_min":68,"x_max":642,"o":"m 153 287 l 153 658 q 140 688 153 675 q 111 700 128 700 l 109 700 q 80 688 92 700 q 68 658 68 675 l 68 287 q 152 84 68 168 q 355 0 236 0 q 558 84 474 0 q 642 287 642 168 l 642 658 q 630 688 642 675 q 601 700 618 700 l 600 700 q 570 688 582 700 q 557 658 557 675 l 557 287 q 498 144 557 203 q 355 85 439 85 q 212 144 271 85 q 153 287 153 203 m 194 951 l 366 782 q 376 777 370 777 l 438 777 q 443 780 441 777 q 441 787 444 783 l 322 957 q 319 958 321 958 l 201 958 q 194 951 193 958 "},"ú":{"ha":710,"x_min":68,"x_max":642,"o":"m 153 287 l 153 658 q 140 688 153 675 q 111 700 128 700 l 109 700 q 80 688 92 700 q 68 658 68 675 l 68 287 q 152 84 68 168 q 355 0 236 0 q 558 84 474 0 q 642 287 642 168 l 642 658 q 630 688 642 675 q 601 700 618 700 l 600 700 q 570 688 582 700 q 557 658 557 675 l 557 287 q 498 144 557 203 q 355 85 439 85 q 212 144 271 85 q 153 287 153 203 m 348 782 l 519 951 q 513 958 521 958 l 395 958 q 391 957 392 958 l 272 787 q 271 780 269 783 q 275 777 272 777 l 337 777 q 348 782 343 777 "},"û":{"ha":710,"x_min":68,"x_max":642,"o":"m 153 287 l 153 658 q 140 688 153 675 q 111 700 128 700 l 109 700 q 80 688 92 700 q 68 658 68 675 l 68 287 q 152 84 68 168 q 355 0 236 0 q 558 84 474 0 q 642 287 642 168 l 642 658 q 630 688 642 675 q 601 700 618 700 l 600 700 q 570 688 582 700 q 557 658 557 675 l 557 287 q 498 144 557 203 q 355 85 439 85 q 212 144 271 85 q 153 287 153 203 m 415 958 l 295 958 q 292 957 292 958 l 172 787 q 171 780 170 783 q 176 777 172 777 l 237 777 q 248 782 243 777 l 355 894 l 462 782 q 473 777 467 777 l 534 777 q 539 780 538 777 q 538 787 541 783 l 418 957 q 415 958 418 958 "},"ü":{"ha":710,"x_min":68,"x_max":642,"o":"m 153 287 l 153 658 q 140 688 153 675 q 111 700 128 700 l 109 700 q 80 688 92 700 q 68 658 68 675 l 68 287 q 152 84 68 168 q 355 0 236 0 q 558 84 474 0 q 642 287 642 168 l 642 658 q 630 688 642 675 q 601 700 618 700 l 600 700 q 570 688 582 700 q 557 658 557 675 l 557 287 q 498 144 557 203 q 355 85 439 85 q 212 144 271 85 q 153 287 153 203 m 232 802 q 270 818 254 802 q 286 857 286 834 q 270 895 286 878 q 232 910 254 910 q 193 895 209 910 q 178 857 178 879 q 193 818 178 833 q 232 802 209 802 m 478 802 q 516 818 500 802 q 532 857 532 834 q 516 895 532 878 q 478 910 500 910 q 439 895 455 910 q 424 857 424 879 q 439 818 424 833 q 478 802 455 802 "},"ý":{"ha":710,"x_min":68,"x_max":642,"o":"m 153 302 l 153 658 q 140 688 153 675 q 111 700 128 700 l 109 700 q 80 688 92 700 q 68 658 68 675 l 68 302 q 152 99 68 182 q 355 15 236 15 q 557 94 450 15 l 557 9 q 496 -134 557 -75 q 355 -194 436 -194 q 239 -163 293 -194 q 159 -81 186 -132 q 138 -61 152 -67 q 111 -60 123 -56 l 108 -62 q 82 -85 89 -68 q 83 -119 75 -103 q 191 -234 120 -192 q 355 -279 264 -279 q 553 -195 467 -279 q 642 9 642 -108 l 642 658 q 630 688 642 675 q 601 700 618 700 l 600 700 q 570 688 582 700 q 557 658 557 675 l 557 302 q 498 159 557 217 q 355 99 439 99 q 212 159 271 99 q 153 302 153 218 m 348 782 l 519 951 q 513 958 521 958 l 395 958 q 391 957 392 958 l 272 787 q 271 780 269 783 q 275 777 272 777 l 337 777 q 348 782 343 777 "},"þ":{"ha":815,"x_min":68,"x_max":768,"o":"m 153 583 l 153 937 q 140 966 153 954 q 111 978 128 978 l 109 978 q 80 966 92 978 q 68 937 68 954 l 68 -237 q 80 -267 68 -254 q 109 -279 92 -279 l 111 -279 q 140 -267 128 -279 q 153 -237 153 -254 l 153 118 q 418 0 285 0 q 665 102 563 0 q 768 350 768 205 q 665 597 768 495 q 418 700 563 700 q 153 583 283 700 m 153 351 q 230 539 153 461 q 418 616 308 616 q 605 539 528 616 q 683 351 683 461 q 605 164 683 242 q 418 86 528 86 q 230 164 308 86 q 153 351 153 242 "},"ÿ":{"ha":710,"x_min":68,"x_max":642,"o":"m 153 302 l 153 658 q 140 688 153 675 q 111 700 128 700 l 109 700 q 80 688 92 700 q 68 658 68 675 l 68 302 q 152 99 68 182 q 355 15 236 15 q 557 94 450 15 l 557 9 q 496 -134 557 -75 q 355 -194 436 -194 q 239 -163 293 -194 q 159 -81 186 -132 q 138 -61 152 -67 q 111 -60 123 -56 l 108 -62 q 82 -85 89 -68 q 83 -119 75 -103 q 191 -234 120 -192 q 355 -279 264 -279 q 553 -195 467 -279 q 642 9 642 -108 l 642 658 q 630 688 642 675 q 601 700 618 700 l 600 700 q 570 688 582 700 q 557 658 557 675 l 557 302 q 498 159 557 217 q 355 99 439 99 q 212 159 271 99 q 153 302 153 218 m 232 802 q 270 818 254 802 q 286 857 286 834 q 270 895 286 878 q 232 910 254 910 q 193 895 209 910 q 178 857 178 879 q 193 818 178 833 q 232 802 209 802 m 478 802 q 516 818 500 802 q 532 857 532 834 q 516 895 532 878 q 478 910 500 910 q 439 895 455 910 q 424 857 424 879 q 439 818 424 833 q 478 802 455 802 "},"ı":{"ha":271,"x_min":93,"x_max":178,"o":"m 136 700 l 135 700 q 105 688 117 700 q 93 658 93 675 l 93 41 q 105 12 93 24 q 135 0 117 0 l 136 0 q 165 12 153 0 q 178 41 178 24 l 178 658 q 165 688 178 675 q 136 700 153 700 "},"ˆ":{"ha":557,"x_min":93,"x_max":464,"o":"m 338 958 l 218 958 q 215 957 216 958 l 96 787 q 94 780 93 783 q 99 777 96 777 l 161 777 q 172 782 167 777 l 279 894 l 385 782 q 396 777 390 777 l 458 777 q 463 780 461 777 q 461 787 464 783 l 342 957 q 338 958 341 958 "},"ˇ":{"ha":557,"x_min":93,"x_max":464,"o":"m 218 777 l 338 777 q 342 779 341 777 l 461 949 q 463 956 464 953 q 458 958 461 958 l 396 958 q 385 954 390 958 l 279 842 l 172 954 q 161 958 167 958 l 99 958 q 94 956 96 958 q 96 949 93 953 l 215 779 q 218 777 216 777 "},"ˉ":{"ha":361,"x_min":34,"x_max":327,"o":"m 327 840 l 327 842 q 315 869 327 858 q 285 880 302 880 l 75 880 q 46 869 58 880 q 34 842 34 858 l 34 840 q 46 814 34 825 q 75 802 58 802 l 285 802 q 315 814 302 802 q 327 840 327 825 "},"˘":{"ha":467,"x_min":34,"x_max":433,"o":"m 401 960 l 388 960 q 361 941 368 960 q 233 858 328 858 q 106 942 140 858 q 80 960 99 960 l 66 960 q 42 947 52 960 q 39 922 34 936 q 116 820 61 857 q 233 786 168 786 q 351 820 298 786 q 429 922 406 857 q 425 947 433 936 q 401 960 416 960 "},"˙":{"ha":244,"x_min":68,"x_max":176,"o":"m 122 802 q 160 818 144 802 q 176 857 176 834 q 160 895 176 878 q 122 910 144 910 q 83 895 99 910 q 68 857 68 879 q 83 818 68 833 q 122 802 99 802 "},"˚":{"ha":399,"x_min":68,"x_max":331,"o":"m 129 863 q 149 911 129 890 q 195 930 168 930 l 203 930 q 250 911 231 930 q 270 863 270 890 q 250 816 270 835 q 203 796 231 796 l 195 796 q 149 816 168 796 q 129 863 129 835 m 68 863 q 104 776 68 812 q 191 740 140 740 l 208 740 q 295 776 258 740 q 331 863 331 812 q 295 950 331 914 q 208 986 258 986 l 191 986 q 104 950 140 986 q 68 863 68 914 "},"˛":{"ha":314,"x_min":68,"x_max":253,"o":"m 253 -240 l 253 -193 q 149 -155 176 -201 q 172 -28 127 -106 q 194 0 180 -16 l 134 0 q 124 -12 128 -5 q 97 -52 109 -33 q 68 -151 68 -110 q 97 -223 68 -197 q 177 -248 132 -248 q 253 -240 236 -248 "},"˜":{"ha":530,"x_min":58,"x_max":456,"o":"m 60 807 q 63 793 58 800 q 78 787 70 787 l 110 787 q 127 800 125 787 q 181 836 137 836 q 245 821 213 836 q 343 790 302 790 q 455 887 439 790 q 451 901 456 895 q 437 907 446 907 l 414 907 q 395 895 399 907 q 345 855 387 857 q 278 874 313 858 q 177 902 219 902 q 96 876 129 902 q 60 807 67 850 "},"˝":{"ha":694,"x_min":-8,"x_max":479,"o":"m 71 782 l 242 951 q 235 958 243 958 l 117 958 q 114 957 115 958 l -5 787 q -7 780 -8 783 q -2 777 -5 777 l 60 777 q 71 782 66 777 m 307 782 l 478 951 q 471 958 479 958 l 353 958 q 350 957 351 958 l 231 787 q 229 780 228 783 q 234 777 231 777 l 296 777 q 307 782 302 777 "},"–":{"ha":730,"x_min":68,"x_max":663,"o":"m 68 386 l 68 312 l 663 312 l 663 386 l 68 386 "},"—":{"ha":1002,"x_min":68,"x_max":934,"o":"m 68 386 l 68 312 l 934 312 l 934 386 l 68 386 "},"‘":{"ha":227,"x_min":68,"x_max":159,"o":"m 141 977 l 100 977 q 68 890 75 953 l 68 783 q 80 753 68 766 q 110 742 92 742 l 118 742 q 147 753 135 742 q 159 783 159 766 l 159 828 q 147 857 159 845 q 118 869 135 869 l 113 869 q 141 977 112 937 "},"’":{"ha":227,"x_min":68,"x_max":159,"o":"m 86 742 l 127 742 q 159 829 153 766 l 159 936 q 147 966 159 954 q 117 977 135 977 l 109 977 q 80 966 92 977 q 68 936 68 954 l 68 891 q 80 862 68 874 q 110 850 92 850 l 114 850 q 86 742 115 782 "},"‚":{"ha":227,"x_min":68,"x_max":159,"o":"m 86 -117 l 127 -117 q 159 -30 153 -93 l 159 77 q 147 106 159 94 q 117 118 135 118 l 109 118 q 80 106 92 118 q 68 77 68 94 l 68 32 q 80 3 68 15 q 110 -9 92 -9 l 114 -9 q 86 -117 115 -77 "},"“":{"ha":355,"x_min":68,"x_max":288,"o":"m 141 977 l 100 977 q 68 890 75 953 l 68 783 q 80 753 68 766 q 110 742 92 742 l 118 742 q 147 753 135 742 q 159 783 159 766 l 159 828 q 147 857 159 845 q 118 869 135 869 l 113 869 q 141 977 112 937 m 269 977 l 229 977 q 196 890 203 953 l 196 783 q 208 753 196 766 q 238 742 220 742 l 246 742 q 275 753 263 742 q 288 783 288 766 l 288 828 q 275 857 288 845 q 246 869 263 869 l 241 869 q 269 977 240 937 "},"”":{"ha":355,"x_min":68,"x_max":288,"o":"m 86 742 l 127 742 q 159 829 153 766 l 159 936 q 147 966 159 954 q 117 977 135 977 l 109 977 q 80 966 92 977 q 68 936 68 954 l 68 891 q 80 862 68 874 q 110 850 92 850 l 114 850 q 86 742 115 782 m 214 742 l 255 742 q 288 829 281 766 l 288 936 q 275 966 288 954 q 245 977 263 977 l 237 977 q 208 966 220 977 q 196 936 196 954 l 196 891 q 208 862 196 874 q 238 850 220 850 l 242 850 q 214 742 243 782 "},"„":{"ha":355,"x_min":68,"x_max":288,"o":"m 86 -117 l 127 -117 q 159 -30 153 -93 l 159 77 q 147 106 159 94 q 117 118 135 118 l 109 118 q 80 106 92 118 q 68 77 68 94 l 68 32 q 80 3 68 15 q 110 -9 92 -9 l 114 -9 q 86 -117 115 -77 m 214 -117 l 255 -117 q 288 -30 281 -93 l 288 77 q 275 106 288 94 q 245 118 263 118 l 237 118 q 208 106 220 118 q 196 77 196 94 l 196 32 q 208 3 196 15 q 238 -9 220 -9 l 242 -9 q 214 -117 243 -77 "},"†":{"ha":692,"x_min":7,"x_max":685,"o":"m 380 646 l 685 646 l 685 713 l 380 713 l 380 1019 l 312 1019 l 312 713 l 7 713 l 7 646 l 312 646 l 312 -189 l 380 -189 l 380 646 "},"‡":{"ha":692,"x_min":7,"x_max":685,"o":"m 312 707 l 7 707 l 7 639 l 312 639 l 312 191 l 7 191 l 7 123 l 312 123 l 312 -189 l 380 -189 l 380 123 l 685 123 l 685 191 l 380 191 l 380 639 l 685 639 l 685 707 l 380 707 l 380 1019 l 312 1019 l 312 707 "},"•":{"ha":524,"x_min":68,"x_max":456,"o":"m 262 651 q 124 594 181 651 q 68 457 68 538 q 124 319 68 376 q 262 262 181 262 q 400 319 343 262 q 456 457 456 376 q 400 594 456 538 q 262 651 343 651 "},"…":{"ha":1348,"x_min":68,"x_max":1103,"o":"m 122 0 q 160 16 144 0 q 176 54 176 32 q 160 92 176 76 q 122 108 144 108 q 83 92 99 108 q 68 54 68 77 q 83 16 68 31 q 122 0 99 0 m 585 0 q 623 16 608 0 q 640 54 640 32 q 623 92 640 76 q 585 108 608 108 q 547 92 562 108 q 531 54 531 77 q 547 16 531 31 q 585 0 562 0 m 1048 0 q 1086 16 1071 0 q 1103 54 1103 32 q 1086 92 1103 76 q 1048 108 1071 108 q 1010 92 1025 108 q 994 54 994 77 q 1010 16 994 31 q 1048 0 1025 0 "},"‹":{"ha":419,"x_min":20,"x_max":365,"o":"m 273 699 l 26 481 q 20 468 20 477 q 26 455 20 460 l 273 237 l 365 237 l 100 468 l 365 699 l 273 699 "},"›":{"ha":419,"x_min":54,"x_max":399,"o":"m 393 481 l 146 699 l 54 699 l 319 468 l 54 237 l 146 237 l 393 455 q 399 468 399 460 q 393 481 399 477 "},"⁄":{"ha":255,"x_min":-67,"x_max":315,"o":"m 315 1025 l 262 1025 l -67 -84 l -14 -84 l 315 1025 "},"∕":{"ha":255,"x_min":-67,"x_max":315,"o":"m 315 1025 l -14 -84 l -67 -84 l 262 1025 l 315 1025 "},"₣":{"ha":617,"x_min":7,"x_max":583,"o":"m 308 277 l 212 277 l 212 447 l 535 447 q 564 459 552 447 q 576 488 576 471 l 576 490 q 564 519 576 507 q 535 531 552 531 l 212 531 l 212 771 q 248 858 212 822 q 334 894 283 894 l 542 894 q 571 905 559 894 q 583 935 583 918 l 583 937 q 571 966 583 954 q 542 978 559 978 l 334 978 q 187 918 248 978 q 127 771 127 857 l 127 277 l 45 277 q 19 265 31 276 q 7 235 7 253 l 7 234 q 19 204 7 216 q 66 192 31 193 l 66 192 l 127 192 l 127 41 q 139 12 127 24 q 168 0 151 0 l 170 0 q 199 12 187 0 q 212 41 212 24 l 212 192 l 288 192 l 288 192 q 334 204 323 193 q 347 234 347 216 l 347 235 q 334 265 347 253 q 308 277 323 276 "},"₤":{"ha":747,"x_min":68,"x_max":679,"o":"m 582 755 q 622 725 591 725 l 624 725 q 657 741 645 725 q 664 777 669 758 q 568 921 640 865 q 401 978 494 978 q 207 898 287 978 q 127 705 127 819 l 127 482 l 87 482 q 73 477 79 482 q 68 463 68 471 l 68 417 q 73 403 68 408 q 87 397 79 397 l 127 397 l 127 41 q 139 12 127 24 q 168 0 151 0 l 637 0 q 667 12 654 0 q 679 41 679 24 l 679 43 q 667 73 679 60 q 637 85 654 85 l 212 85 l 212 397 l 448 397 q 477 410 465 397 q 489 439 489 422 l 489 441 q 477 470 489 458 q 448 482 465 482 l 212 482 l 212 705 q 267 838 212 783 q 401 894 323 894 q 515 854 465 894 q 582 755 565 816 "},"₧":{"ha":1596,"x_min":109,"x_max":1586,"o":"m 559 558 q 446 503 513 505 l 186 503 l 186 937 l 446 937 q 559 882 513 935 q 606 720 606 829 q 559 558 606 611 m 1034 -9 l 1305 -9 q 1480 43 1405 -3 q 1577 186 1569 96 q 1512 333 1586 280 q 1339 401 1464 368 q 1191 444 1225 431 q 1121 543 1118 474 q 1187 633 1124 600 q 1293 658 1237 658 q 1468 550 1444 658 l 1548 560 q 1303 720 1518 714 q 1176 703 1234 722 l 882 703 l 882 1002 l 805 954 l 805 703 l 675 703 q 608 941 673 867 q 425 1019 540 1017 l 425 1019 l 109 1019 l 109 0 l 186 0 l 186 427 l 423 427 q 591 488 536 427 q 669 637 646 541 l 791 637 l 791 222 q 856 14 792 56 q 1034 -9 893 -10 m 1306 60 l 1014 60 l 1014 62 q 928 77 951 64 q 882 208 886 103 l 882 637 l 1071 637 q 1038 526 1038 572 q 1114 387 1038 436 q 1280 324 1162 354 q 1421 282 1396 294 q 1487 152 1516 235 q 1401 76 1469 101 q 1306 60 1358 60 "},"€":{"ha":892,"x_min":68,"x_max":825,"o":"m 672 978 q 369 873 502 978 q 193 593 238 770 l 87 593 q 73 587 79 593 q 68 574 68 582 l 68 558 q 74 544 68 550 q 87 538 79 538 l 184 538 q 183 489 183 503 q 187 423 183 467 l 87 423 q 73 418 79 423 q 68 404 68 412 l 68 389 q 74 374 68 380 q 87 369 79 369 l 197 369 q 375 100 245 199 q 672 0 506 0 q 794 15 734 0 q 825 56 825 23 l 825 57 q 809 90 825 77 q 772 97 793 102 q 672 85 724 85 q 441 156 545 85 q 284 369 340 227 l 583 369 q 597 375 591 369 q 602 389 602 380 l 602 404 q 597 417 602 412 q 583 423 591 423 l 272 423 q 267 489 267 465 q 271 538 267 505 l 627 538 q 640 545 635 538 q 646 558 646 550 l 646 574 q 641 587 646 582 q 627 593 635 593 l 280 593 q 434 817 330 741 q 672 894 541 894 q 773 881 724 894 q 809 888 793 876 q 825 921 825 901 l 825 923 q 794 963 825 955 q 672 978 734 978 "},"№":{"ha":1471,"x_min":109,"x_max":1440,"o":"m 208 1019 l 109 1019 l 109 0 l 199 0 l 199 918 q 717 0 359 604 l 816 0 l 816 1019 l 726 1019 l 726 111 q 208 1019 566 416 m 967 1 l 1419 1 l 1419 79 l 967 79 l 967 1 m 962 507 q 1038 302 962 378 q 1202 235 1105 235 q 1366 302 1299 235 q 1440 507 1440 377 q 1366 713 1440 638 q 1202 781 1299 781 q 1038 713 1105 781 q 962 507 962 638 m 1045 508 q 1093 647 1045 595 q 1201 695 1137 695 q 1309 647 1265 695 q 1357 508 1357 595 q 1309 369 1357 420 q 1201 321 1265 321 q 1093 369 1137 321 q 1045 508 1045 420 "},"™":{"ha":838,"x_min":27,"x_max":764,"o":"m 288 955 l 288 956 q 282 968 288 963 q 269 972 277 972 l 46 972 q 33 968 38 972 q 27 956 27 963 l 27 955 q 33 943 27 948 q 46 939 38 939 l 139 939 l 139 598 q 144 586 139 591 q 157 581 149 581 l 158 581 q 171 586 166 581 q 176 598 176 591 l 176 939 l 269 939 q 282 943 277 939 q 288 955 288 948 m 326 598 l 326 858 q 353 915 326 892 q 416 939 379 939 q 480 915 454 939 q 507 858 507 892 l 507 598 q 512 586 507 591 q 526 581 518 581 l 526 581 q 539 586 534 581 q 545 598 545 591 l 545 858 q 571 915 545 892 q 635 939 598 939 q 699 915 673 939 q 726 858 726 892 l 726 598 q 731 586 726 591 q 744 581 737 581 l 745 581 q 758 586 753 581 q 764 598 764 591 l 764 858 q 726 939 764 906 q 635 972 689 972 q 526 919 572 972 q 416 972 480 972 q 325 939 363 972 q 288 858 288 906 l 288 598 q 293 586 288 591 q 306 581 299 581 l 307 581 q 321 586 315 581 q 326 598 326 591 "},"∂":{"ha":682,"x_min":68,"x_max":614,"o":"m 525 545 q 525 543 525 544 q 486 352 516 433 q 349 181 445 238 q 214 162 267 132 q 172 301 159 192 q 297 486 185 423 q 525 545 386 537 m 613 589 l 613 591 q 614 686 614 620 q 526 923 614 857 q 429 954 484 954 q 268 867 342 954 q 214 784 234 826 q 213 751 207 768 q 235 727 219 734 q 268 726 251 720 q 292 748 284 732 q 347 826 313 791 q 429 869 389 869 q 511 801 486 869 q 528 686 528 755 q 528 631 528 645 q 241 553 355 623 q 86 311 104 469 q 172 87 68 144 q 393 108 269 34 q 567 322 515 180 q 610 536 601 414 q 613 584 612 559 q 613 589 613 586 "},"∆":{"ha":861,"x_min":68,"x_max":793,"o":"m 404 899 l 74 162 q 76 135 68 148 q 100 122 85 122 l 760 122 q 784 135 776 122 q 786 162 793 148 l 456 899 q 430 916 449 916 q 404 899 412 916 m 672 210 l 188 210 l 430 750 l 672 210 "},"∏":{"ha":912,"x_min":68,"x_max":844,"o":"m 758 934 l 758 -83 q 771 -113 758 -101 q 801 -126 783 -126 q 831 -113 819 -126 q 844 -83 844 -101 l 844 977 q 831 1007 844 994 q 801 1020 819 1020 l 111 1020 q 81 1007 93 1020 q 68 977 68 994 l 68 -83 q 81 -113 68 -101 q 111 -126 93 -126 q 141 -113 128 -126 q 154 -83 154 -101 l 154 934 l 758 934 "},"∑":{"ha":928,"x_min":68,"x_max":861,"o":"m 207 932 l 818 932 q 848 945 836 932 q 861 975 861 958 q 848 1006 861 993 q 818 1019 836 1019 l 118 1019 q 79 994 92 1019 q 85 949 68 970 l 467 465 l 85 -18 q 79 -64 68 -40 q 118 -88 92 -88 l 818 -88 q 848 -75 836 -88 q 861 -45 861 -63 q 848 -15 861 -28 q 818 -2 836 -2 l 207 -2 l 555 439 q 555 492 576 465 l 207 932 "},"−":{"ha":564,"x_min":34,"x_max":530,"o":"m 530 488 l 530 490 q 518 519 530 507 q 488 532 506 532 l 75 532 q 46 519 58 532 q 34 490 34 507 l 34 488 q 46 459 34 471 q 75 447 58 447 l 488 447 q 518 459 506 447 q 530 488 530 471 "},"√":{"ha":787,"x_min":68,"x_max":720,"o":"m 632 1065 l 490 184 l 292 589 q 269 611 285 605 q 237 610 253 617 l 98 553 q 75 530 81 546 q 75 497 68 513 q 98 473 81 480 q 131 473 114 467 l 233 515 l 473 25 q 517 1 486 -3 q 553 37 549 6 l 717 1051 q 709 1084 720 1069 q 682 1101 699 1098 q 650 1093 664 1103 q 632 1065 635 1082 "},"∞":{"ha":824,"x_min":68,"x_max":756,"o":"m 386 583 q 212 679 307 681 l 210 679 q 103 629 141 675 q 68 517 68 587 q 102 397 68 441 q 214 348 140 348 q 385 437 310 348 q 580 315 475 315 q 715 369 669 315 q 756 512 756 420 q 720 656 756 610 q 585 709 679 709 q 386 583 478 709 m 422 509 q 519 620 481 597 q 585 637 549 637 q 658 618 637 637 q 685 512 685 593 q 649 405 685 433 q 580 386 625 386 q 487 427 530 386 q 422 509 463 450 m 352 509 q 214 419 286 419 q 139 517 139 419 q 213 608 139 604 q 352 509 281 608 "},"∫":{"ha":412,"x_min":1,"x_max":412,"o":"m 349 920 q 382 920 366 913 q 405 943 398 927 q 405 977 412 960 q 381 1000 397 993 q 277 1019 326 1022 q 191 968 215 1015 q 170 854 177 941 q 164 689 165 791 q 163 427 163 654 q 163 166 163 200 q 157 9 161 70 q 145 -75 151 -60 q 119 -79 142 -81 q 63 -66 92 -77 q 31 -66 47 -60 q 7 -90 14 -73 q 7 -123 1 -106 q 31 -146 14 -139 q 135 -165 86 -168 q 222 -114 197 -161 q 242 -1 235 -87 q 248 165 247 63 q 249 427 249 199 q 250 688 249 654 q 256 845 252 784 q 267 928 260 914 q 293 933 270 935 q 349 920 321 931 "},"≈":{"ha":812,"x_min":68,"x_max":745,"o":"m 84 581 q 69 551 71 569 q 79 520 68 534 q 109 505 91 507 q 140 515 126 504 q 277 570 203 570 q 385 544 313 570 q 552 497 514 497 q 728 571 640 497 q 743 600 742 583 q 733 631 745 618 q 705 647 722 645 q 673 637 686 648 q 552 583 608 583 q 414 625 529 583 q 277 656 328 656 q 84 581 171 656 m 84 397 q 69 368 71 385 q 79 336 68 349 q 109 321 91 323 q 140 332 126 320 q 277 385 203 385 q 385 359 313 385 q 552 313 514 313 q 728 387 640 313 q 743 416 741 398 q 733 447 745 433 q 704 463 722 461 q 673 452 686 464 q 552 399 608 399 q 414 440 529 399 q 277 471 328 471 q 84 397 171 471 "},"≤":{"ha":747,"x_min":68,"x_max":680,"o":"m 633 243 l 111 243 q 81 230 93 243 q 68 200 68 218 q 81 170 68 182 q 111 157 93 157 l 633 157 q 663 170 651 157 q 676 200 676 182 q 663 230 676 218 q 633 243 651 243 m 650 416 l 222 597 l 650 777 q 673 800 666 783 q 673 833 680 817 q 650 856 666 849 q 616 856 633 863 l 94 636 q 68 597 68 625 q 94 557 68 568 l 616 337 q 650 337 633 330 q 673 360 666 344 q 673 393 680 376 q 650 416 666 410 "},"≥":{"ha":747,"x_min":64,"x_max":676,"o":"m 633 243 l 111 243 q 81 230 93 243 q 68 200 68 218 q 81 170 68 182 q 111 157 93 157 l 633 157 q 664 170 651 157 q 676 200 676 182 q 664 230 676 218 q 633 243 651 243 m 522 597 l 94 416 q 71 393 78 410 q 71 360 64 376 q 95 337 78 344 q 127 337 111 330 l 650 557 q 676 597 676 568 q 650 636 676 625 l 127 856 q 95 856 111 863 q 71 833 78 849 q 71 800 64 817 q 94 777 78 783 l 522 597 "},"":{"ha":745,"x_min":68,"x_max":664,"o":"m 365 978 l 326 978 q 143 903 218 978 q 68 720 69 828 l 68 41 q 80 12 68 24 q 109 0 92 0 l 111 0 q 140 12 128 0 q 153 41 153 24 l 153 614 l 365 614 q 395 627 382 614 q 406 656 406 639 l 406 658 q 395 687 406 675 q 365 699 382 699 l 153 699 l 153 720 q 203 843 153 792 q 326 894 254 894 l 365 894 q 395 905 382 894 q 406 935 406 918 l 406 937 q 395 966 406 954 q 365 978 382 978 m 610 700 l 609 700 q 579 688 591 700 q 567 658 567 675 l 567 41 q 579 12 567 24 q 609 0 591 0 l 610 0 q 640 12 627 0 q 652 41 652 24 l 652 658 q 640 688 652 675 q 610 700 627 700 m 610 869 q 648 885 632 869 q 664 924 664 901 q 648 962 664 945 q 610 977 632 977 q 571 962 587 977 q 555 924 555 946 q 571 885 555 901 q 610 869 587 869 "},"ﬁ":{"ha":745,"x_min":68,"x_max":664,"o":"m 365 978 q 395 966 382 978 q 406 937 406 954 l 406 935 q 395 905 406 918 q 365 894 382 894 l 326 894 q 203 843 254 894 q 153 720 153 792 l 153 699 l 365 699 q 395 687 382 699 q 406 658 406 675 l 406 656 q 395 627 406 639 q 365 614 382 614 l 153 614 l 153 41 q 140 12 153 24 q 111 0 128 0 l 109 0 q 80 12 92 0 q 68 41 68 24 l 68 720 q 143 903 69 828 q 326 978 218 978 l 365 978 m 610 700 q 640 688 627 700 q 652 658 652 675 l 652 41 q 640 12 652 24 q 610 0 627 0 l 609 0 q 579 12 591 0 q 567 41 567 24 l 567 658 q 579 688 567 675 q 609 700 591 700 l 610 700 m 610 869 q 571 885 587 869 q 555 924 555 901 q 571 962 555 946 q 610 977 587 977 q 648 962 632 977 q 664 924 664 945 q 648 885 664 901 q 610 869 632 869 "},"":{"ha":814,"x_min":68,"x_max":654,"o":"m 365 978 l 326 978 q 143 903 218 978 q 68 720 69 828 l 68 41 q 80 12 68 24 q 109 0 92 0 l 111 0 q 140 12 128 0 q 153 41 153 24 l 153 614 l 365 614 q 395 627 382 614 q 406 656 406 639 l 406 658 q 395 687 406 675 q 365 699 382 699 l 153 699 l 153 720 q 203 843 153 792 q 326 894 254 894 l 365 894 q 395 905 382 894 q 406 935 406 918 l 406 937 q 395 966 406 954 q 365 978 382 978 m 612 978 l 610 978 q 581 966 593 978 q 569 937 569 954 l 569 41 q 581 12 569 24 q 610 0 593 0 l 612 0 q 642 12 629 0 q 654 41 654 24 l 654 937 q 642 966 654 954 q 612 978 629 978 "},"ﬂ":{"ha":814,"x_min":68,"x_max":654,"o":"m 365 978 q 395 966 382 978 q 406 937 406 954 l 406 935 q 395 905 406 918 q 365 894 382 894 l 326 894 q 203 843 254 894 q 153 720 153 792 l 153 699 l 365 699 q 395 687 382 699 q 406 658 406 675 l 406 656 q 395 627 406 639 q 365 614 382 614 l 153 614 l 153 41 q 140 12 153 24 q 111 0 128 0 l 109 0 q 80 12 92 0 q 68 41 68 24 l 68 720 q 143 903 69 828 q 326 978 218 978 l 365 978 m 612 978 q 642 966 629 978 q 654 937 654 954 l 654 41 q 642 12 654 24 q 612 0 629 0 l 610 0 q 581 12 593 0 q 569 41 569 24 l 569 937 q 581 966 569 954 q 610 978 593 978 l 612 978 "},"⁰":{"ha":496,"x_min":27,"x_max":469,"o":"m 248 979 q 92 920 156 979 q 27 779 27 860 l 27 581 q 92 439 27 499 q 248 380 156 380 q 405 439 340 380 q 469 581 469 499 l 469 779 q 405 920 469 860 q 248 979 340 979 m 248 915 q 350 874 307 915 q 393 777 393 835 l 393 583 q 350 485 393 525 q 248 445 307 445 q 147 484 189 445 q 103 583 103 525 l 103 777 q 147 876 103 835 q 248 915 189 915 "},"¹":{"ha":256,"x_min":27,"x_max":229,"o":"m 229 410 l 229 947 q 220 968 229 959 q 191 978 208 978 l 64 978 q 37 968 48 978 q 27 947 27 959 l 27 947 q 37 927 27 935 q 64 917 48 917 l 153 917 l 153 410 q 163 389 153 399 q 190 380 174 380 l 191 380 q 218 389 208 380 q 229 410 229 399 "},"²":{"ha":474,"x_min":27,"x_max":447,"o":"m 264 978 l 87 978 q 58 968 70 978 q 49 947 49 959 l 49 947 q 58 926 49 935 q 87 917 69 917 l 264 917 q 334 889 305 917 q 366 818 366 860 q 311 728 366 771 q 193 656 292 715 q 78 571 115 610 q 27 449 27 515 l 27 410 q 37 391 27 399 q 64 380 48 380 l 409 380 q 437 391 426 380 q 447 410 447 399 l 447 412 q 437 431 447 422 q 409 442 426 442 l 106 442 q 161 560 106 510 q 277 637 192 588 q 392 715 360 684 q 442 818 442 762 q 391 931 442 883 q 264 978 339 978 "},"³":{"ha":404,"x_min":27,"x_max":376,"o":"m 188 978 l 64 978 q 37 968 48 978 q 27 947 27 959 l 27 947 q 37 927 27 935 q 64 917 48 917 l 188 917 q 259 889 229 917 q 290 818 290 860 q 258 747 290 776 q 188 720 229 720 l 84 719 q 56 709 67 719 q 47 689 47 700 l 47 688 q 58 667 47 677 q 84 658 67 658 l 188 658 q 266 628 233 658 q 300 550 300 596 q 266 472 300 504 q 188 442 233 442 l 64 442 q 39 433 48 442 q 27 412 27 422 l 27 410 q 37 391 27 399 q 64 380 48 380 l 188 380 q 321 430 267 380 q 376 550 376 481 q 296 690 376 632 q 366 818 366 745 q 316 930 366 883 q 188 978 262 978 "},"⁴":{"ha":534,"x_min":27,"x_max":507,"o":"m 265 961 l 31 570 q 27 557 27 564 l 27 528 q 37 509 27 517 q 64 498 48 498 l 326 498 l 326 410 q 336 391 326 399 q 364 380 347 380 l 365 380 q 393 391 382 380 q 403 410 403 399 l 403 498 l 469 498 q 496 507 486 498 q 507 528 507 517 l 507 530 q 497 549 507 541 q 469 560 486 560 l 403 560 l 403 947 q 393 968 403 959 q 365 978 382 978 l 299 978 q 265 961 275 978 m 326 560 l 109 560 l 326 923 l 326 560 "},"⁵":{"ha":456,"x_min":27,"x_max":429,"o":"m 64 658 l 241 658 q 318 628 286 658 q 353 550 353 596 q 318 472 353 504 q 241 442 286 442 l 64 442 q 39 433 48 442 q 27 412 27 422 l 27 410 q 37 391 27 399 q 64 380 48 380 l 241 380 q 374 430 319 380 q 429 550 429 481 q 376 668 429 619 q 241 719 319 719 l 103 719 l 103 917 l 334 917 q 361 927 350 917 q 371 947 371 935 l 371 947 q 361 968 371 959 q 334 978 350 978 l 64 978 q 37 968 48 978 q 27 947 27 959 l 27 688 q 37 668 27 677 q 64 658 48 658 "},"⁶":{"ha":489,"x_min":27,"x_max":462,"o":"m 103 658 l 273 658 q 351 628 319 658 q 385 550 385 596 q 351 472 385 504 q 273 442 319 442 l 215 442 q 138 472 170 442 q 103 550 103 504 l 103 658 m 215 380 l 273 380 q 407 430 352 380 q 462 550 462 481 q 408 668 462 619 q 273 719 352 719 l 103 719 l 103 808 q 136 885 103 854 q 215 917 170 917 l 350 917 q 378 927 367 917 q 388 947 388 935 l 388 947 q 378 968 388 959 q 350 978 367 978 l 215 978 q 81 926 136 978 q 27 808 27 878 l 27 550 q 82 430 27 481 q 215 380 136 380 "},"⁷":{"ha":428,"x_min":27,"x_max":401,"o":"m 401 410 l 401 947 q 392 968 401 959 q 363 978 380 978 l 64 978 q 37 968 48 978 q 27 947 27 959 l 27 947 q 37 927 27 935 q 64 917 48 917 l 325 917 l 325 410 q 334 391 325 399 q 363 380 346 380 l 363 380 q 391 389 380 380 q 401 410 401 399 "},"⁸":{"ha":496,"x_min":27,"x_max":469,"o":"m 281 978 l 215 978 q 89 931 140 978 q 37 818 37 883 q 108 690 37 745 q 27 550 27 632 q 82 430 27 481 q 215 380 136 380 l 281 380 q 416 431 361 380 q 469 550 469 481 q 389 690 469 633 q 460 818 460 745 q 409 930 460 883 q 281 978 356 978 m 281 442 l 215 442 q 138 472 170 442 q 103 550 103 504 q 136 627 103 595 q 215 658 170 658 l 281 658 q 359 628 327 658 q 393 550 393 595 q 360 473 393 504 q 281 442 327 442 m 281 720 l 215 720 q 145 747 174 720 q 113 818 113 776 q 145 889 113 860 q 215 917 174 917 l 281 917 q 351 889 322 917 q 383 818 383 860 q 352 747 383 776 q 281 720 323 720 "},"⁹":{"ha":489,"x_min":27,"x_max":462,"o":"m 385 701 l 215 701 q 136 732 170 701 q 103 808 103 762 q 136 885 103 854 q 215 917 170 917 l 273 917 q 353 885 319 917 q 385 808 385 854 l 385 701 m 273 978 l 215 978 q 81 926 136 978 q 27 808 27 878 q 82 689 27 740 q 215 639 136 639 l 385 639 l 385 550 q 351 472 385 504 q 273 442 319 442 l 100 442 q 73 431 83 442 q 63 412 63 422 l 63 410 q 74 389 63 399 q 100 380 83 380 l 273 380 q 407 430 352 380 q 462 550 462 481 l 462 808 q 408 926 462 878 q 273 978 352 978 "},"⁺":{"ha":486,"x_min":27,"x_max":459,"o":"m 281 642 l 281 775 q 272 795 281 787 q 243 806 260 806 l 243 806 q 215 795 226 806 q 205 775 205 787 l 205 642 l 64 642 q 37 631 47 642 q 27 610 27 622 l 27 610 q 37 590 27 599 q 64 580 47 580 l 205 580 l 205 446 q 215 426 205 435 q 243 416 226 416 l 243 416 q 271 425 260 416 q 281 446 281 435 l 281 580 l 421 580 q 450 590 438 580 q 459 610 459 599 l 459 610 q 448 632 459 622 q 421 642 438 642 l 281 642 "},"⁻":{"ha":398,"x_min":27,"x_max":371,"o":"m 371 500 l 371 501 q 360 522 371 512 q 333 532 350 532 l 64 532 q 37 521 47 532 q 27 501 27 512 l 27 500 q 37 481 27 490 q 64 470 47 470 l 333 470 q 361 480 350 470 q 371 500 371 489 "},"⁼":{"ha":486,"x_min":27,"x_max":459,"o":"m 459 466 l 459 467 q 448 488 459 477 q 421 497 438 497 l 64 497 q 37 486 47 497 q 27 467 27 477 l 27 466 q 37 446 27 455 q 64 435 47 435 l 421 435 q 450 446 438 435 q 459 466 459 454 m 459 643 l 459 644 q 448 665 459 654 q 421 674 438 674 l 64 674 q 37 663 47 674 q 27 644 27 654 l 27 643 q 37 623 27 632 q 64 612 47 612 l 421 612 q 450 623 438 612 q 459 643 459 631 "},"ⁱ":{"ha":146,"x_min":27,"x_max":119,"o":"m 73 811 l 73 811 q 46 802 56 811 q 35 780 35 791 l 35 410 q 44 391 35 399 q 73 380 56 380 l 73 380 q 101 391 90 380 q 111 410 111 399 l 111 780 q 101 800 111 791 q 73 811 90 811 m 73 902 q 106 914 93 902 q 119 940 119 925 q 106 965 119 954 q 73 977 93 977 q 40 966 53 977 q 27 940 27 954 q 40 913 27 925 q 73 902 52 902 "},"⁽":{"ha":275,"x_min":27,"x_max":248,"o":"m 201 216 q 235 222 220 212 q 248 245 248 232 l 248 249 q 239 268 248 259 q 219 279 233 276 q 136 326 169 289 q 99 415 99 364 l 99 779 q 136 869 99 830 q 219 916 169 905 q 239 926 233 918 q 248 945 248 936 l 248 949 q 235 972 248 963 q 201 979 220 983 q 76 907 125 963 q 27 782 27 852 l 27 412 q 76 288 27 342 q 201 216 125 231 "},"⁾":{"ha":275,"x_min":27,"x_max":248,"o":"m 74 216 q 199 288 150 231 q 248 412 248 342 l 248 782 q 199 907 248 852 q 74 979 150 963 q 40 972 55 983 q 27 949 27 963 l 27 945 q 35 926 27 936 q 56 916 42 918 q 140 869 106 905 q 176 779 176 830 l 176 415 q 140 326 176 364 q 56 279 106 289 q 35 268 42 276 q 27 249 27 259 l 27 245 q 40 222 27 232 q 74 216 55 212 "},"ⁿ":{"ha":449,"x_min":27,"x_max":422,"o":"m 103 577 l 103 800 q 140 884 103 849 q 224 916 175 916 q 309 884 273 916 q 345 800 345 849 l 345 577 q 355 558 345 566 q 383 547 366 547 l 384 547 q 412 557 401 547 q 422 577 422 566 l 422 800 q 364 926 422 872 q 224 978 307 978 q 85 926 142 978 q 27 800 27 872 l 27 577 q 37 557 27 566 q 64 547 48 547 l 66 547 q 94 557 82 547 q 103 577 103 566 "},"₀":{"ha":496,"x_min":27,"x_max":469,"o":"m 248 279 q 92 220 156 279 q 27 79 27 160 l 27 -119 q 92 -260 27 -201 q 248 -319 156 -319 q 405 -260 340 -319 q 469 -119 469 -201 l 469 79 q 405 220 469 160 q 248 279 340 279 m 248 215 q 350 174 307 215 q 393 77 393 135 l 393 -117 q 350 -215 393 -175 q 248 -255 307 -255 q 147 -216 189 -255 q 103 -117 103 -175 l 103 77 q 147 176 103 135 q 248 215 189 215 "},"₁":{"ha":256,"x_min":27,"x_max":229,"o":"m 229 -289 l 229 248 q 220 269 229 260 q 191 279 208 279 l 64 279 q 37 269 48 279 q 27 248 27 260 l 27 248 q 37 227 27 236 q 64 217 48 217 l 153 217 l 153 -289 q 163 -310 153 -300 q 190 -319 174 -319 l 191 -319 q 218 -310 208 -319 q 229 -289 229 -300 "},"₂":{"ha":474,"x_min":27,"x_max":447,"o":"m 264 279 l 87 279 q 58 269 70 279 q 49 248 49 260 l 49 248 q 58 227 49 236 q 87 217 70 217 l 264 217 q 334 189 305 217 q 366 119 366 160 q 311 29 366 72 q 193 -43 293 16 q 78 -129 115 -90 q 27 -251 27 -184 l 27 -289 q 37 -309 27 -300 q 64 -319 48 -319 l 409 -319 q 437 -309 426 -319 q 447 -289 447 -300 l 447 -288 q 437 -268 447 -277 q 409 -258 426 -258 l 106 -258 q 161 -140 106 -189 q 277 -62 192 -112 q 392 16 360 -15 q 442 119 442 62 q 391 231 442 184 q 264 279 339 279 "},"₃":{"ha":404,"x_min":27,"x_max":376,"o":"m 188 279 l 64 279 q 37 269 48 279 q 27 248 27 260 l 27 248 q 37 227 27 236 q 64 217 48 217 l 188 217 q 259 189 229 217 q 290 119 290 160 q 258 47 290 76 q 188 20 229 20 l 84 20 q 56 9 67 20 q 47 -11 47 1 l 47 -12 q 57 -33 47 -23 q 84 -41 67 -41 l 188 -41 q 267 -72 233 -41 q 300 -150 300 -104 q 266 -228 300 -196 q 188 -258 233 -258 l 64 -258 q 38 -267 48 -258 q 27 -288 27 -277 l 27 -289 q 37 -309 27 -300 q 64 -319 48 -319 l 188 -319 q 321 -269 267 -319 q 376 -150 376 -218 q 296 -10 376 -68 q 366 119 366 45 q 316 230 366 184 q 188 279 262 279 "},"₄":{"ha":534,"x_min":27,"x_max":507,"o":"m 265 261 l 31 -130 q 27 -142 27 -136 l 27 -171 q 37 -191 27 -182 q 64 -201 48 -201 l 326 -201 l 326 -289 q 336 -309 326 -300 q 364 -319 348 -319 l 365 -319 q 393 -309 381 -319 q 403 -289 403 -300 l 403 -201 l 469 -201 q 496 -192 486 -201 q 507 -171 507 -182 l 507 -170 q 498 -150 507 -159 q 469 -140 486 -140 l 403 -140 l 403 248 q 393 269 403 260 q 365 279 382 279 l 299 279 q 265 261 275 279 m 326 -140 l 109 -140 l 326 224 l 326 -140 "},"₅":{"ha":456,"x_min":27,"x_max":429,"o":"m 64 -41 l 241 -41 q 319 -72 286 -41 q 353 -150 353 -104 q 318 -228 353 -196 q 241 -258 286 -258 l 64 -258 q 38 -267 48 -258 q 27 -288 27 -277 l 27 -289 q 37 -309 27 -300 q 64 -319 48 -319 l 241 -319 q 374 -269 319 -319 q 429 -150 429 -218 q 376 -31 429 -81 q 241 20 319 20 l 103 20 l 103 217 l 334 217 q 361 227 350 217 q 371 248 371 236 l 371 248 q 361 269 371 260 q 334 279 350 279 l 64 279 q 37 269 48 279 q 27 248 27 260 l 27 -12 q 37 -31 27 -22 q 64 -41 48 -41 "},"₆":{"ha":489,"x_min":27,"x_max":462,"o":"m 103 -41 l 273 -41 q 351 -72 319 -41 q 385 -150 385 -104 q 351 -228 385 -196 q 273 -258 319 -258 l 215 -258 q 138 -228 170 -258 q 103 -150 103 -196 l 103 -41 m 215 -319 l 273 -319 q 407 -269 352 -319 q 462 -150 462 -218 q 408 -31 462 -81 q 273 20 352 20 l 103 20 l 103 109 q 136 186 103 155 q 215 217 170 217 l 350 217 q 378 227 367 217 q 388 248 388 236 l 388 248 q 378 269 388 260 q 350 279 367 279 l 215 279 q 81 227 136 279 q 27 109 27 178 l 27 -150 q 82 -269 27 -218 q 215 -319 136 -319 "},"₇":{"ha":428,"x_min":27,"x_max":401,"o":"m 401 -289 l 401 248 q 392 269 401 260 q 363 279 380 279 l 64 279 q 37 269 48 279 q 27 248 27 260 l 27 248 q 37 227 27 236 q 64 217 48 217 l 325 217 l 325 -289 q 334 -309 325 -300 q 363 -319 346 -319 l 363 -319 q 391 -310 380 -319 q 401 -289 401 -300 "},"₈":{"ha":496,"x_min":27,"x_max":469,"o":"m 281 279 l 215 279 q 89 231 140 279 q 37 119 37 184 q 108 -10 37 45 q 27 -150 27 -68 q 82 -269 27 -218 q 215 -319 136 -319 l 281 -319 q 416 -268 361 -319 q 469 -150 469 -218 q 389 -10 469 -67 q 460 119 460 45 q 409 230 460 184 q 281 279 356 279 m 281 -258 l 215 -258 q 138 -228 170 -258 q 103 -150 103 -196 q 136 -73 103 -104 q 215 -41 170 -41 l 281 -41 q 359 -72 327 -41 q 393 -150 393 -104 q 360 -227 393 -196 q 281 -258 327 -258 m 281 20 l 215 20 q 145 47 175 20 q 113 119 113 76 q 145 189 113 160 q 215 217 174 217 l 281 217 q 351 189 322 217 q 383 119 383 160 q 352 47 383 76 q 281 20 322 20 "},"₉":{"ha":489,"x_min":27,"x_max":462,"o":"m 385 1 l 215 1 q 136 33 170 1 q 103 109 103 63 q 136 186 103 155 q 215 217 170 217 l 273 217 q 352 186 319 217 q 385 109 385 155 l 385 1 m 273 279 l 215 279 q 81 227 136 279 q 27 109 27 178 q 82 -10 27 40 q 215 -60 136 -60 l 385 -60 l 385 -150 q 351 -228 385 -196 q 273 -258 319 -258 l 100 -258 q 73 -268 83 -258 q 63 -288 63 -277 l 63 -289 q 74 -310 63 -300 q 100 -319 83 -319 l 273 -319 q 407 -269 352 -319 q 462 -150 462 -218 l 462 109 q 408 227 462 178 q 273 279 352 279 "},"₊":{"ha":486,"x_min":27,"x_max":459,"o":"m 281 10 l 281 144 q 272 164 281 155 q 243 175 260 175 l 243 175 q 215 164 226 175 q 205 144 205 156 l 205 10 l 64 10 q 37 0 47 10 q 27 -20 27 -9 l 27 -21 q 37 -41 27 -32 q 64 -52 47 -52 l 205 -52 l 205 -184 q 215 -205 205 -196 q 243 -216 226 -216 l 243 -216 q 270 -206 260 -216 q 281 -184 281 -196 l 281 -52 l 421 -52 q 450 -41 438 -52 q 459 -21 459 -32 l 459 -20 q 448 1 459 -9 q 421 10 438 10 l 281 10 "},"₋":{"ha":398,"x_min":27,"x_max":371,"o":"m 371 -21 l 371 -20 q 359 1 371 -9 q 333 11 350 11 l 64 11 q 37 0 47 11 q 27 -20 27 -9 l 27 -21 q 37 -41 27 -32 q 64 -51 47 -51 l 333 -51 q 361 -41 350 -51 q 371 -21 371 -32 "},"₌":{"ha":486,"x_min":27,"x_max":459,"o":"m 459 -109 l 459 -109 q 448 -87 459 -98 q 421 -78 438 -78 l 64 -78 q 37 -89 47 -78 q 27 -109 27 -98 l 27 -109 q 37 -129 27 -120 q 64 -140 47 -140 l 421 -140 q 450 -130 438 -140 q 459 -109 459 -121 m 459 68 l 459 68 q 448 90 459 79 q 421 99 438 99 l 64 99 q 37 88 47 99 q 27 68 27 79 l 27 68 q 37 48 27 57 q 64 37 47 37 l 421 37 q 450 47 438 37 q 459 68 459 56 "},"₍":{"ha":275,"x_min":27,"x_max":248,"o":"m 201 -279 q 235 -273 220 -283 q 248 -250 248 -263 l 248 -246 q 239 -227 248 -237 q 219 -216 233 -219 q 136 -170 169 -206 q 99 -81 99 -131 l 99 284 q 136 374 99 334 q 219 420 169 410 q 239 431 233 423 q 248 450 248 440 l 248 454 q 235 476 248 467 q 201 484 220 488 q 76 412 125 468 q 27 287 27 357 l 27 -83 q 75 -208 27 -153 q 201 -279 125 -264 "},"₎":{"ha":275,"x_min":27,"x_max":248,"o":"m 74 -279 q 199 -208 150 -264 q 248 -83 248 -153 l 248 287 q 199 412 248 357 q 74 484 150 468 q 40 476 55 488 q 27 454 27 467 l 27 450 q 35 431 27 440 q 56 420 42 423 q 140 374 106 410 q 176 284 176 334 l 176 -80 q 140 -170 176 -131 q 56 -216 106 -206 q 35 -227 42 -219 q 27 -246 27 -237 l 27 -250 q 40 -273 27 -263 q 74 -279 55 -283 "},"⃝":{"ha":1316,"x_min":68,"x_max":1249,"o":"m 659 978 q 240 805 413 978 q 68 387 68 633 q 240 -30 68 142 q 659 -203 413 -203 q 1076 -30 903 -203 q 1249 387 1249 142 q 1076 805 1249 633 q 659 978 903 978 m 659 916 q 1032 761 877 916 q 1187 387 1187 606 q 1032 14 1187 169 q 659 -141 877 -141 q 284 14 439 -141 q 130 387 130 169 q 284 761 130 606 q 659 916 439 916 "},"Ⓐ":{"ha":1276,"x_min":68,"x_max":1249,"o":"m 892 36 l 892 525 q 823 696 892 625 q 650 770 752 770 q 479 696 550 770 q 410 525 410 625 l 410 36 q 419 13 410 22 q 449 0 432 0 l 451 0 q 481 13 468 0 q 490 36 490 22 l 490 300 l 812 300 l 812 36 q 822 13 812 22 q 851 0 833 0 l 852 0 q 882 13 870 0 q 892 36 892 22 m 812 373 l 490 373 l 490 525 q 538 648 490 597 q 650 697 585 697 q 763 648 716 697 q 812 525 812 597 l 812 373 m 659 978 q 240 805 413 978 q 68 387 68 633 q 240 -30 68 142 q 659 -203 413 -203 q 1076 -30 903 -203 q 1249 387 1249 142 q 1076 805 1249 633 q 659 978 903 978 m 659 916 q 1032 761 877 916 q 1187 387 1187 606 q 1032 14 1187 169 q 659 -141 877 -141 q 284 14 439 -141 q 130 387 130 169 q 284 761 130 606 q 659 916 439 916 "},"Ⓑ":{"ha":1276,"x_min":68,"x_max":1249,"o":"m 511 434 l 511 649 q 524 684 511 669 q 551 697 536 697 l 673 697 q 757 660 722 697 q 794 566 794 621 q 757 470 794 509 q 672 434 722 434 l 511 434 m 430 649 l 430 121 q 466 35 430 73 q 551 0 500 0 l 673 0 q 823 64 762 0 q 886 217 886 129 q 791 398 886 322 q 875 566 875 471 q 815 710 875 649 q 673 770 758 770 l 551 770 q 464 733 500 770 q 430 649 430 698 m 673 73 l 551 73 q 524 85 536 73 q 511 121 511 100 l 511 361 l 673 361 q 765 321 726 361 q 806 217 806 278 q 765 113 806 156 q 673 73 726 73 m 659 978 q 240 805 413 978 q 68 387 68 633 q 240 -30 68 142 q 659 -203 413 -203 q 1076 -30 903 -203 q 1249 387 1249 142 q 1076 805 1249 633 q 659 978 903 978 m 659 916 q 1032 761 877 916 q 1187 387 1187 606 q 1032 14 1187 169 q 659 -141 877 -141 q 284 14 439 -141 q 130 387 130 169 q 284 761 130 606 q 659 916 439 916 "},"Ⓒ":{"ha":1276,"x_min":68,"x_max":1249,"o":"m 669 764 q 405 650 513 764 q 294 378 294 536 q 405 106 294 220 q 669 -7 513 -7 q 764 5 718 -7 q 793 40 793 13 l 793 41 q 779 68 793 58 q 743 76 763 81 q 669 66 707 66 q 463 155 549 66 q 375 378 375 248 q 461 599 375 509 q 669 690 549 690 q 743 681 707 690 q 779 688 763 675 q 793 715 793 699 l 793 717 q 764 751 793 743 q 669 764 718 764 m 659 978 q 240 805 413 978 q 68 387 68 633 q 240 -30 68 142 q 659 -203 413 -203 q 1076 -30 903 -203 q 1249 387 1249 142 q 1076 805 1249 633 q 659 978 903 978 m 659 916 q 1032 761 877 916 q 1187 387 1187 606 q 1032 14 1187 169 q 659 -141 877 -141 q 284 14 439 -141 q 130 387 130 169 q 284 761 130 606 q 659 916 439 916 "},"Ⓓ":{"ha":1276,"x_min":68,"x_max":1249,"o":"m 511 121 l 511 649 q 524 684 511 669 q 551 697 536 697 l 628 697 q 838 606 749 697 q 924 385 924 516 q 836 162 924 254 q 628 73 749 73 l 551 73 q 524 85 536 73 q 511 121 511 100 m 628 770 l 551 770 q 464 733 500 770 q 430 649 430 698 l 430 121 q 466 35 430 73 q 551 0 500 0 l 628 0 q 893 113 785 0 q 1004 385 1004 227 q 893 657 1004 543 q 628 770 785 770 m 659 978 q 240 805 413 978 q 68 387 68 633 q 240 -30 68 142 q 659 -203 413 -203 q 1076 -30 903 -203 q 1249 387 1249 142 q 1076 805 1249 633 q 659 978 903 978 m 659 916 q 1032 761 877 916 q 1187 387 1187 606 q 1032 14 1187 169 q 659 -141 877 -141 q 284 14 439 -141 q 130 387 130 169 q 284 761 130 606 q 659 916 439 916 "},"Ⓔ":{"ha":1276,"x_min":68,"x_max":1249,"o":"m 531 422 l 531 605 q 555 670 531 644 q 614 696 582 696 l 795 696 q 823 707 813 696 q 835 733 835 720 l 835 734 q 825 758 835 748 q 795 770 813 770 l 614 770 q 498 722 545 770 q 450 605 450 672 l 450 165 q 498 48 450 98 q 614 0 545 0 l 795 0 q 825 13 813 0 q 835 36 835 22 l 835 37 q 823 63 835 51 q 795 73 813 73 l 614 73 q 555 100 581 73 q 531 165 531 125 l 531 349 l 795 349 q 825 361 813 349 q 835 385 835 371 l 835 386 q 825 410 835 399 q 795 422 813 422 l 531 422 m 659 978 q 240 805 413 978 q 68 387 68 633 q 240 -30 68 142 q 659 -203 413 -203 q 1076 -30 903 -203 q 1249 387 1249 142 q 1076 805 1249 633 q 659 978 903 978 m 659 916 q 1032 761 877 916 q 1187 387 1187 606 q 1032 14 1187 169 q 659 -141 877 -141 q 284 14 439 -141 q 130 387 130 169 q 284 761 130 606 q 659 916 439 916 "},"Ⓕ":{"ha":1276,"x_min":68,"x_max":1249,"o":"m 545 422 l 545 605 q 568 670 545 645 q 627 697 595 697 l 784 697 q 814 709 802 697 q 823 733 823 720 l 823 734 q 814 758 823 748 q 784 770 802 770 l 627 770 q 512 722 558 770 q 464 605 464 672 l 464 36 q 473 13 464 22 q 503 0 486 0 l 505 0 q 535 13 522 0 q 545 36 545 22 l 545 349 l 779 349 q 808 361 796 349 q 818 385 818 371 l 818 386 q 808 410 818 399 q 779 422 796 422 l 545 422 m 659 978 q 240 805 413 978 q 68 387 68 633 q 240 -30 68 142 q 659 -203 413 -203 q 1076 -30 903 -203 q 1249 387 1249 142 q 1076 805 1249 633 q 659 978 903 978 m 659 916 q 1032 761 877 916 q 1187 387 1187 606 q 1032 14 1187 169 q 659 -141 877 -141 q 284 14 439 -141 q 130 387 130 169 q 284 761 130 606 q 659 916 439 916 "},"Ⓖ":{"ha":1276,"x_min":68,"x_max":1249,"o":"m 663 764 q 398 650 506 764 q 288 378 288 536 q 398 106 288 220 q 663 -7 506 -7 q 930 108 819 -7 q 1038 378 1038 220 l 1038 379 q 1028 403 1038 393 q 998 415 1017 415 l 675 415 q 646 403 657 415 q 636 379 636 393 l 636 378 q 648 353 636 364 q 675 342 658 342 l 956 342 q 853 140 936 214 q 663 66 770 66 q 456 155 543 66 q 368 378 368 248 q 454 599 368 509 q 663 690 543 690 q 878 591 791 690 q 905 578 888 580 q 936 588 921 576 l 937 589 q 949 611 948 596 q 941 637 951 626 q 663 764 829 764 m 659 978 q 240 805 413 978 q 68 387 68 633 q 240 -30 68 142 q 659 -203 413 -203 q 1076 -30 903 -203 q 1249 387 1249 142 q 1076 805 1249 633 q 659 978 903 978 m 659 916 q 1032 761 877 916 q 1187 387 1187 606 q 1032 14 1187 169 q 659 -141 877 -141 q 284 14 439 -141 q 130 387 130 169 q 284 761 130 606 q 659 916 439 916 "},"Ⓗ":{"ha":1276,"x_min":68,"x_max":1249,"o":"m 444 770 l 442 770 q 412 758 425 770 q 403 734 403 748 l 403 36 q 412 13 403 22 q 442 0 425 0 l 444 0 q 474 13 461 0 q 484 36 484 22 l 484 349 l 809 349 l 809 36 q 819 13 809 22 q 849 0 831 0 l 850 0 q 880 13 867 0 q 890 36 890 22 l 890 734 q 880 758 890 748 q 850 770 868 770 l 849 770 q 819 758 831 770 q 809 734 809 748 l 809 422 l 484 422 l 484 734 q 474 758 484 748 q 444 770 462 770 m 659 978 q 240 805 413 978 q 68 387 68 633 q 240 -30 68 142 q 659 -203 413 -203 q 1076 -30 903 -203 q 1249 387 1249 142 q 1076 805 1249 633 q 659 978 903 978 m 659 916 q 1032 761 877 916 q 1187 387 1187 606 q 1032 14 1187 169 q 659 -141 877 -141 q 284 14 439 -141 q 130 387 130 169 q 284 761 130 606 q 659 916 439 916 "},"Ⓘ":{"ha":1276,"x_min":68,"x_max":1249,"o":"m 637 770 l 635 770 q 605 758 617 770 q 595 734 595 748 l 595 36 q 605 13 595 22 q 635 0 618 0 l 637 0 q 667 13 654 0 q 676 36 676 22 l 676 734 q 667 758 676 748 q 637 770 654 770 m 659 978 q 240 805 413 978 q 68 387 68 633 q 240 -30 68 142 q 659 -203 413 -203 q 1076 -30 903 -203 q 1249 387 1249 142 q 1076 805 1249 633 q 659 978 903 978 m 659 916 q 1032 761 877 916 q 1187 387 1187 606 q 1032 14 1187 169 q 659 -141 877 -141 q 284 14 439 -141 q 130 387 130 169 q 284 761 130 606 q 659 916 439 916 "},"Ⓙ":{"ha":1276,"x_min":68,"x_max":1249,"o":"m 689 734 l 689 165 q 665 100 689 125 q 606 73 639 73 l 511 73 q 484 63 494 73 q 472 37 472 51 l 472 36 q 481 13 472 22 q 511 0 494 0 l 606 0 q 721 48 675 0 q 769 165 769 98 l 769 734 q 760 758 769 748 q 730 770 748 770 l 729 770 q 699 758 711 770 q 689 734 689 748 m 659 978 q 240 805 413 978 q 68 387 68 633 q 240 -30 68 142 q 659 -203 413 -203 q 1076 -30 903 -203 q 1249 387 1249 142 q 1076 805 1249 633 q 659 978 903 978 m 659 916 q 1032 761 877 916 q 1187 387 1187 606 q 1032 14 1187 169 q 659 -141 877 -141 q 284 14 439 -141 q 130 387 130 169 q 284 761 130 606 q 659 916 439 916 "},"Ⓚ":{"ha":1276,"x_min":68,"x_max":1249,"o":"m 464 770 l 462 770 q 432 758 444 770 q 422 734 422 748 l 422 36 q 432 13 422 22 q 462 0 445 0 l 464 0 q 494 13 481 0 q 503 36 503 22 l 503 374 l 600 374 q 734 314 677 374 q 791 172 790 256 l 791 36 q 802 11 791 22 q 830 0 812 0 l 831 0 q 859 11 849 0 q 871 36 871 22 l 871 172 q 836 308 871 244 q 726 417 802 370 q 849 650 849 513 l 849 734 q 840 758 849 748 q 810 770 827 770 l 808 770 q 781 760 790 770 q 768 734 768 748 l 768 650 q 711 505 768 565 q 578 448 655 448 l 503 448 l 503 734 q 494 758 503 748 q 464 770 481 770 m 659 978 q 240 805 413 978 q 68 387 68 633 q 240 -30 68 142 q 659 -203 413 -203 q 1076 -30 903 -203 q 1249 387 1249 142 q 1076 805 1249 633 q 659 978 903 978 m 659 916 q 1032 761 877 916 q 1187 387 1187 606 q 1032 14 1187 169 q 659 -141 877 -141 q 284 14 439 -141 q 130 387 130 169 q 284 761 130 606 q 659 916 439 916 "},"Ⓛ":{"ha":1276,"x_min":68,"x_max":1249,"o":"m 557 165 l 557 734 q 547 758 557 748 q 517 770 535 770 l 515 770 q 486 758 498 770 q 476 734 476 748 l 476 165 q 524 48 476 98 q 640 0 570 0 l 788 0 q 818 13 806 0 q 828 36 828 23 l 828 37 q 817 63 828 51 q 788 73 806 73 l 640 73 q 581 100 607 73 q 557 165 557 125 m 659 978 q 240 805 413 978 q 68 387 68 633 q 240 -30 68 142 q 659 -203 413 -203 q 1076 -30 903 -203 q 1249 387 1249 142 q 1076 805 1249 633 q 659 978 903 978 m 659 916 q 1032 761 877 916 q 1187 387 1187 606 q 1032 14 1187 169 q 659 -141 877 -141 q 284 14 439 -141 q 130 387 130 169 q 284 761 130 606 q 659 916 439 916 "},"Ⓜ":{"ha":1276,"x_min":68,"x_max":1249,"o":"m 313 63 l 313 571 q 354 680 313 636 q 454 724 397 724 q 555 680 512 724 q 597 571 597 636 l 597 63 q 607 40 597 50 q 637 27 618 27 l 637 27 q 667 40 656 27 q 677 63 677 50 l 677 571 q 718 680 677 636 q 819 724 762 724 q 920 680 877 724 q 962 571 962 636 l 962 63 q 972 40 962 50 q 1002 27 983 27 l 1002 27 q 1030 38 1020 27 q 1042 63 1042 50 l 1042 571 q 977 731 1042 663 q 819 798 913 798 q 637 701 707 798 q 454 798 566 798 q 298 731 361 798 q 232 571 232 663 l 232 63 q 241 40 232 50 q 271 27 254 27 l 273 27 q 303 40 290 27 q 313 63 313 50 m 659 978 q 240 805 413 978 q 68 387 68 633 q 240 -30 68 142 q 659 -203 413 -203 q 1076 -30 903 -203 q 1249 387 1249 142 q 1076 805 1249 633 q 659 978 903 978 m 659 916 q 1032 761 877 916 q 1187 387 1187 606 q 1032 14 1187 169 q 659 -141 877 -141 q 284 14 439 -141 q 130 387 130 169 q 284 761 130 606 q 659 916 439 916 "},"Ⓝ":{"ha":1276,"x_min":68,"x_max":1249,"o":"m 892 36 l 892 525 q 823 696 892 625 q 650 770 752 770 q 479 696 550 770 q 410 525 410 625 l 410 36 q 419 13 410 22 q 449 0 432 0 l 451 0 q 481 13 468 0 q 490 36 490 22 l 490 525 q 538 648 490 597 q 650 697 585 697 q 763 648 716 697 q 812 525 812 597 l 812 36 q 822 13 812 22 q 851 0 833 0 l 852 0 q 882 13 870 0 q 892 36 892 22 m 659 978 q 240 805 413 978 q 68 387 68 633 q 240 -30 68 142 q 659 -203 413 -203 q 1076 -30 903 -203 q 1249 387 1249 142 q 1076 805 1249 633 q 659 978 903 978 m 659 916 q 1032 761 877 916 q 1187 387 1187 606 q 1032 14 1187 169 q 659 -141 877 -141 q 284 14 439 -141 q 130 387 130 169 q 284 761 130 606 q 659 916 439 916 "},"Ⓞ":{"ha":1276,"x_min":68,"x_max":1249,"o":"m 649 770 q 385 657 492 770 q 274 385 274 543 q 385 113 274 227 q 649 0 492 0 q 916 115 806 0 q 1025 385 1025 227 q 916 655 1025 543 q 649 770 806 770 m 649 697 q 859 606 770 697 q 945 385 945 516 q 857 162 945 254 q 649 73 770 73 q 442 162 529 73 q 355 385 355 254 q 441 606 355 516 q 649 697 529 697 m 659 978 q 240 805 413 978 q 68 387 68 633 q 240 -30 68 142 q 659 -203 413 -203 q 1076 -30 903 -203 q 1249 387 1249 142 q 1076 805 1249 633 q 659 978 903 978 m 659 916 q 1032 761 877 916 q 1187 387 1187 606 q 1032 14 1187 169 q 659 -141 877 -141 q 284 14 439 -141 q 130 387 130 169 q 284 761 130 606 q 659 916 439 916 "},"Ⓟ":{"ha":1276,"x_min":68,"x_max":1249,"o":"m 497 338 l 497 517 q 547 646 497 593 q 665 697 596 697 q 782 646 732 697 q 832 517 832 593 q 783 391 832 441 q 665 338 732 338 l 497 338 m 497 264 l 665 264 q 841 340 769 264 q 913 517 913 414 q 840 696 913 621 q 665 770 769 770 q 488 694 561 770 q 416 517 416 621 l 416 36 q 426 13 416 22 q 456 0 439 0 l 458 0 q 488 13 475 0 q 497 36 497 22 l 497 264 m 659 978 q 240 805 413 978 q 68 387 68 633 q 240 -30 68 142 q 659 -203 413 -203 q 1076 -30 903 -203 q 1249 387 1249 142 q 1076 805 1249 633 q 659 978 903 978 m 659 916 q 1032 761 877 916 q 1187 387 1187 606 q 1032 14 1187 169 q 659 -141 877 -141 q 284 14 439 -141 q 130 387 130 169 q 284 761 130 606 q 659 916 439 916 "},"Ⓠ":{"ha":1276,"x_min":68,"x_max":1249,"o":"m 642 770 q 378 657 486 770 q 267 385 267 543 q 361 132 267 240 q 602 2 454 21 l 602 -106 q 614 -132 602 -120 q 642 -142 624 -142 l 643 -142 q 673 -130 661 -142 q 683 -106 683 -120 l 683 2 q 924 132 831 21 q 1018 385 1018 239 q 909 655 1018 543 q 642 770 799 770 m 643 256 l 642 256 q 612 243 624 256 q 602 220 602 234 l 602 77 q 420 180 490 95 q 348 385 348 268 q 434 606 348 516 q 642 697 522 697 q 852 606 764 697 q 938 385 938 516 q 865 180 938 269 q 683 77 795 95 l 683 220 q 671 245 683 234 q 643 256 661 256 m 659 978 q 240 805 413 978 q 68 387 68 633 q 240 -30 68 142 q 659 -203 413 -203 q 1076 -30 903 -203 q 1249 387 1249 142 q 1076 805 1249 633 q 659 978 903 978 m 659 916 q 1032 761 877 916 q 1187 387 1187 606 q 1032 14 1187 169 q 659 -141 877 -141 q 284 14 439 -141 q 130 387 130 169 q 284 761 130 606 q 659 916 439 916 "},"Ⓡ":{"ha":1276,"x_min":68,"x_max":1249,"o":"m 652 370 l 490 370 l 490 587 q 491 612 490 603 q 521 669 497 646 q 593 696 549 696 l 652 696 q 758 651 713 696 q 804 533 804 602 q 758 416 804 465 q 652 370 713 370 m 804 134 l 804 36 q 814 13 804 22 q 844 0 827 0 l 845 0 q 875 13 862 0 q 884 36 884 22 l 884 134 q 817 301 884 231 q 779 333 806 311 q 817 366 806 355 q 884 533 884 437 q 818 699 884 630 q 652 770 750 770 l 586 770 q 461 718 511 770 q 410 592 410 664 l 410 36 q 420 13 410 22 q 449 0 431 0 l 450 0 q 478 11 468 0 q 490 36 490 22 l 490 297 l 663 297 q 758 251 718 294 q 804 134 804 203 m 659 978 q 240 805 413 978 q 68 387 68 633 q 240 -30 68 142 q 659 -203 413 -203 q 1076 -30 903 -203 q 1249 387 1249 142 q 1076 805 1249 633 q 659 978 903 978 m 659 916 q 1032 761 877 916 q 1187 387 1187 606 q 1032 14 1187 169 q 659 -141 877 -141 q 284 14 439 -141 q 130 387 130 169 q 284 761 130 606 q 659 916 439 916 "},"Ⓢ":{"ha":1276,"x_min":68,"x_max":1249,"o":"m 635 699 l 777 699 q 807 711 795 699 q 817 734 817 721 l 817 737 q 805 762 817 751 q 777 773 795 773 l 640 773 q 493 711 552 773 q 431 562 431 648 q 481 431 431 478 q 601 368 518 397 q 728 319 704 335 q 789 212 789 283 q 749 113 789 154 q 662 75 711 75 l 463 75 q 435 64 446 75 q 423 39 423 52 l 423 36 q 435 11 423 23 q 463 0 446 0 l 656 0 q 805 64 744 0 q 865 212 865 125 q 814 349 865 301 q 695 409 778 383 q 569 454 591 440 q 509 562 509 490 q 545 658 509 619 q 635 699 584 699 m 659 978 q 240 805 413 978 q 68 387 68 633 q 240 -30 68 142 q 659 -203 413 -203 q 1076 -30 903 -203 q 1249 387 1249 142 q 1076 805 1249 633 q 659 978 903 978 m 659 916 q 1032 761 877 916 q 1187 387 1187 606 q 1032 14 1187 169 q 659 -141 877 -141 q 284 14 439 -141 q 130 387 130 169 q 284 761 130 606 q 659 916 439 916 "},"Ⓣ":{"ha":1276,"x_min":68,"x_max":1249,"o":"m 861 713 l 861 714 q 849 740 861 728 q 821 750 840 750 l 449 750 q 419 738 431 750 q 410 714 410 728 l 410 713 q 419 689 410 699 q 449 677 431 677 l 595 677 l 595 16 q 607 -9 595 2 q 635 -20 617 -20 l 636 -20 q 664 -9 654 -20 q 675 16 675 2 l 675 677 l 821 677 q 849 687 840 677 q 861 713 861 699 m 659 978 q 240 805 413 978 q 68 387 68 633 q 240 -30 68 142 q 659 -203 413 -203 q 1076 -30 903 -203 q 1249 387 1249 142 q 1076 805 1249 633 q 659 978 903 978 m 659 916 q 1032 761 877 916 q 1187 387 1187 606 q 1032 14 1187 169 q 659 -141 877 -141 q 284 14 439 -141 q 130 387 130 169 q 284 761 130 606 q 659 916 439 916 "},"Ⓤ":{"ha":1276,"x_min":68,"x_max":1249,"o":"m 878 245 l 878 734 q 869 758 878 748 q 839 770 857 770 l 838 770 q 808 758 820 770 q 798 734 798 748 l 798 245 q 749 121 798 173 q 637 73 703 73 q 525 121 572 73 q 477 245 477 173 l 477 734 q 467 758 477 748 q 437 770 455 770 l 435 770 q 406 758 418 770 q 396 734 396 748 l 396 245 q 465 74 396 145 q 637 0 536 0 q 809 74 739 0 q 878 245 878 145 m 659 978 q 240 805 413 978 q 68 387 68 633 q 240 -30 68 142 q 659 -203 413 -203 q 1076 -30 903 -203 q 1249 387 1249 142 q 1076 805 1249 633 q 659 978 903 978 m 659 916 q 1032 761 877 916 q 1187 387 1187 606 q 1032 14 1187 169 q 659 -141 877 -141 q 284 14 439 -141 q 130 387 130 169 q 284 761 130 606 q 659 916 439 916 "},"Ⓥ":{"ha":1276,"x_min":68,"x_max":1249,"o":"m 659 97 q 463 745 635 161 q 425 770 454 770 l 421 770 q 387 753 399 770 q 384 724 378 740 l 591 45 q 659 0 609 0 l 660 0 q 725 45 707 1 l 932 724 q 928 753 939 739 q 895 770 917 770 l 892 770 q 854 745 863 770 q 659 97 682 165 m 659 978 q 240 805 413 978 q 68 387 68 633 q 240 -30 68 142 q 659 -203 413 -203 q 1076 -30 903 -203 q 1249 387 1249 142 q 1076 805 1249 633 q 659 978 903 978 m 659 916 q 1032 761 877 916 q 1187 387 1187 606 q 1032 14 1187 169 q 659 -141 877 -141 q 284 14 439 -141 q 130 387 130 169 q 284 761 130 606 q 659 916 439 916 "},"Ⓦ":{"ha":1276,"x_min":68,"x_max":1249,"o":"m 328 179 l 328 687 q 318 711 328 701 q 288 723 306 723 l 286 723 q 256 711 269 723 q 247 687 247 701 l 247 179 q 313 19 247 86 q 469 -47 376 -47 q 652 49 581 -47 q 834 -47 722 -47 q 991 19 928 -47 q 1057 179 1057 86 l 1057 687 q 1047 711 1057 701 q 1017 723 1036 723 l 1017 723 q 989 713 998 723 q 977 687 977 701 l 977 179 q 935 71 977 114 q 834 26 892 26 q 733 71 777 26 q 692 179 692 114 l 692 687 q 680 713 692 701 q 652 723 671 723 l 652 723 q 621 711 633 723 q 612 687 612 701 l 612 179 q 570 71 612 114 q 469 26 527 26 q 369 71 412 26 q 328 179 328 114 m 659 978 q 240 805 413 978 q 68 387 68 633 q 240 -30 68 142 q 659 -203 413 -203 q 1076 -30 903 -203 q 1249 387 1249 142 q 1076 805 1249 633 q 659 978 903 978 m 659 916 q 1032 761 877 916 q 1187 387 1187 606 q 1032 14 1187 169 q 659 -141 877 -141 q 284 14 439 -141 q 130 387 130 169 q 284 761 130 606 q 659 916 439 916 "},"Ⓧ":{"ha":1276,"x_min":68,"x_max":1249,"o":"m 885 36 l 885 196 q 772 405 885 320 q 885 614 885 490 l 885 734 q 876 758 885 748 q 846 770 863 770 l 844 770 q 815 758 827 770 q 805 734 805 748 l 805 614 q 756 490 805 541 q 644 441 709 441 q 532 490 578 441 q 484 614 484 541 l 484 734 q 474 758 484 748 q 444 770 462 770 l 442 770 q 412 758 425 770 q 403 734 403 748 l 403 614 q 516 405 403 490 q 403 196 403 320 l 403 36 q 412 13 403 22 q 442 0 425 0 l 444 0 q 474 13 461 0 q 484 36 484 22 l 484 196 q 532 320 484 269 q 644 369 578 369 q 756 320 709 369 q 805 196 805 269 l 805 36 q 815 13 805 22 q 844 0 827 0 l 846 0 q 875 13 863 0 q 885 36 885 22 m 659 978 q 240 805 413 978 q 68 387 68 633 q 240 -30 68 142 q 659 -203 413 -203 q 1076 -30 903 -203 q 1249 387 1249 142 q 1076 805 1249 633 q 659 978 903 978 m 659 916 q 1032 761 877 916 q 1187 387 1187 606 q 1032 14 1187 169 q 659 -141 877 -141 q 284 14 439 -141 q 130 387 130 169 q 284 761 130 606 q 659 916 439 916 "},"Ⓨ":{"ha":1276,"x_min":68,"x_max":1249,"o":"m 885 499 l 885 734 q 876 758 885 748 q 846 770 863 770 l 844 770 q 815 758 827 770 q 805 734 805 748 l 805 499 q 756 375 805 426 q 644 327 709 327 q 532 375 578 327 q 484 499 484 426 l 484 734 q 474 758 484 748 q 444 770 462 770 l 442 770 q 412 758 425 770 q 403 734 403 748 l 403 499 q 457 344 403 412 q 604 256 513 275 l 604 36 q 613 13 604 22 q 644 0 626 0 l 645 0 q 675 13 662 0 q 684 36 684 22 l 684 256 q 831 344 775 275 q 885 499 885 411 m 659 978 q 240 805 413 978 q 68 387 68 633 q 240 -30 68 142 q 659 -203 413 -203 q 1076 -30 903 -203 q 1249 387 1249 142 q 1076 805 1249 633 q 659 978 903 978 m 659 916 q 1032 761 877 916 q 1187 387 1187 606 q 1032 14 1187 169 q 659 -141 877 -141 q 284 14 439 -141 q 130 387 130 169 q 284 761 130 606 q 659 916 439 916 "},"Ⓩ":{"ha":1276,"x_min":68,"x_max":1249,"o":"m 425 734 l 425 733 q 435 709 425 720 q 465 697 446 697 l 796 697 l 412 125 q 403 85 403 106 q 426 28 403 54 q 481 0 447 4 l 835 0 q 864 13 852 0 q 874 36 874 22 l 874 37 q 864 61 874 51 q 835 73 852 73 l 473 73 l 852 640 q 865 685 865 660 q 840 745 865 718 q 780 770 817 770 l 465 770 q 435 758 446 770 q 425 734 425 748 m 659 978 q 240 805 413 978 q 68 387 68 633 q 240 -30 68 142 q 659 -203 413 -203 q 1076 -30 903 -203 q 1249 387 1249 142 q 1076 805 1249 633 q 659 978 903 978 m 659 916 q 1032 761 877 916 q 1187 387 1187 606 q 1032 14 1187 169 q 659 -141 877 -141 q 284 14 439 -141 q 130 387 130 169 q 284 761 130 606 q 659 916 439 916 "},"ⓐ":{"ha":1316,"x_min":68,"x_max":1249,"o":"m 659 978 q 240 805 413 978 q 68 387 68 633 q 240 -30 68 142 q 659 -203 413 -203 q 1076 -30 903 -203 q 1249 387 1249 142 q 1076 805 1249 633 q 659 978 903 978 m 659 916 q 1032 761 877 916 q 1187 387 1187 606 q 1032 14 1187 169 q 659 -141 877 -141 q 284 14 439 -141 q 130 387 130 169 q 284 761 130 606 q 659 916 439 916 m 664 638 q 491 567 562 638 q 419 393 419 495 q 491 220 419 292 q 664 149 562 149 q 850 231 757 149 l 850 177 q 858 157 850 166 q 879 149 867 149 l 880 149 q 900 157 892 149 q 909 177 909 166 l 909 393 q 837 567 909 495 q 664 638 766 638 m 664 579 q 795 525 741 579 q 850 393 850 470 q 795 262 850 317 q 664 208 741 208 q 533 262 587 208 q 478 393 478 317 q 533 525 478 470 q 664 579 587 579 "},"ⓑ":{"ha":1316,"x_min":68,"x_max":1249,"o":"m 659 978 q 240 805 413 978 q 68 387 68 633 q 240 -30 68 142 q 659 -203 413 -203 q 1076 -30 903 -203 q 1249 387 1249 142 q 1076 805 1249 633 q 659 978 903 978 m 659 916 q 1032 761 877 916 q 1187 387 1187 606 q 1032 14 1187 169 q 659 -141 877 -141 q 284 14 439 -141 q 130 387 130 169 q 284 761 130 606 q 659 916 439 916 m 684 481 q 815 427 762 481 q 870 295 870 372 q 815 164 870 219 q 684 109 762 109 q 553 164 608 109 q 499 295 499 219 q 553 427 499 372 q 684 481 608 481 m 470 736 l 468 736 q 448 728 457 736 q 439 707 439 719 l 439 295 q 512 123 440 194 q 684 52 583 52 q 858 123 786 52 q 929 296 929 195 q 858 470 929 398 q 684 541 786 541 q 499 459 591 541 l 499 707 q 490 728 499 719 q 470 736 482 736 "},"ⓒ":{"ha":1316,"x_min":68,"x_max":1249,"o":"m 659 978 q 240 805 413 978 q 68 387 68 633 q 240 -30 68 142 q 659 -203 413 -203 q 1076 -30 903 -203 q 1249 387 1249 142 q 1076 805 1249 633 q 659 978 903 978 m 659 916 q 1032 761 877 916 q 1187 387 1187 606 q 1032 14 1187 169 q 659 -141 877 -141 q 284 14 439 -141 q 130 387 130 169 q 284 761 130 606 q 659 916 439 916 m 712 638 q 539 567 611 638 q 467 393 467 495 q 539 220 467 292 q 712 149 611 149 q 786 160 750 149 q 807 187 807 167 q 795 211 807 203 q 769 215 783 220 q 712 206 742 206 q 581 261 635 206 q 527 392 527 316 q 581 524 527 469 q 712 578 635 578 q 769 569 742 578 q 795 573 783 564 q 807 597 807 582 l 807 599 q 786 627 807 620 q 712 638 750 638 "},"ⓓ":{"ha":1316,"x_min":68,"x_max":1249,"o":"m 659 978 q 240 805 413 978 q 68 387 68 633 q 240 -30 68 142 q 659 -203 413 -203 q 1076 -30 903 -203 q 1249 387 1249 142 q 1076 805 1249 633 q 659 978 903 978 m 659 916 q 1032 761 877 916 q 1187 387 1187 606 q 1032 14 1187 169 q 659 -141 877 -141 q 284 14 439 -141 q 130 387 130 169 q 284 761 130 606 q 659 916 439 916 m 630 481 q 761 427 708 481 q 816 295 816 372 q 761 164 816 219 q 630 109 708 109 q 499 164 553 109 q 445 295 445 219 q 499 427 445 372 q 630 481 553 481 m 846 736 l 845 736 q 824 728 833 736 q 816 707 816 719 l 816 459 q 630 541 723 541 q 457 470 529 541 q 385 296 385 398 q 457 123 385 195 q 630 52 529 52 q 803 123 731 52 q 875 295 875 194 l 875 707 q 867 728 875 719 q 846 736 858 736 "},"ⓔ":{"ha":1316,"x_min":68,"x_max":1249,"o":"m 659 978 q 240 805 413 978 q 68 387 68 633 q 240 -30 68 142 q 659 -203 413 -203 q 1076 -30 903 -203 q 1249 387 1249 142 q 1076 805 1249 633 q 659 978 903 978 m 659 916 q 1032 761 877 916 q 1187 387 1187 606 q 1032 14 1187 169 q 659 -141 877 -141 q 284 14 439 -141 q 130 387 130 169 q 284 761 130 606 q 659 916 439 916 m 670 578 q 824 497 757 578 l 489 346 q 485 392 485 378 q 539 524 485 469 q 670 578 593 578 m 893 495 q 804 599 863 560 q 670 638 743 638 q 497 567 569 638 q 425 393 425 495 q 497 220 425 292 q 670 149 569 149 q 814 195 749 149 q 901 312 876 240 q 898 339 907 327 q 874 351 889 351 q 845 331 852 351 q 779 242 826 276 q 670 206 730 206 q 513 292 579 206 q 704 378 570 317 q 879 457 812 427 q 894 473 889 462 q 893 495 898 484 "},"ⓕ":{"ha":1316,"x_min":68,"x_max":1249,"o":"m 659 978 q 240 805 413 978 q 68 387 68 633 q 240 -30 68 142 q 659 -203 413 -203 q 1076 -30 903 -203 q 1249 387 1249 142 q 1076 805 1249 633 q 659 978 903 978 m 659 916 q 1032 761 877 916 q 1187 387 1187 606 q 1032 14 1187 169 q 659 -141 877 -141 q 284 14 439 -141 q 130 387 130 169 q 284 761 130 606 q 659 916 439 916 m 754 736 l 727 736 q 599 683 651 736 q 546 556 547 631 l 546 80 q 554 60 546 69 q 575 52 563 52 l 576 52 q 597 60 588 52 q 605 80 605 69 l 605 482 l 754 482 q 775 490 766 482 q 783 511 783 499 l 783 512 q 775 532 783 524 q 754 541 766 541 l 605 541 l 605 556 q 641 642 606 606 q 727 677 676 677 l 754 677 q 775 685 766 677 q 783 706 783 694 l 783 707 q 775 728 783 719 q 754 736 766 736 "},"ⓖ":{"ha":1316,"x_min":68,"x_max":1249,"o":"m 659 978 q 240 805 413 978 q 68 387 68 633 q 240 -30 68 142 q 659 -203 413 -203 q 1076 -30 903 -203 q 1249 387 1249 142 q 1076 805 1249 633 q 659 978 903 978 m 659 916 q 1032 761 877 916 q 1187 387 1187 606 q 1032 14 1187 169 q 659 -141 877 -141 q 284 14 439 -141 q 130 387 130 169 q 284 761 130 606 q 659 916 439 916 m 498 194 q 464 206 486 213 l 463 206 q 445 188 449 201 q 448 162 440 174 q 664 51 519 51 q 832 123 757 51 q 909 296 909 197 l 909 492 q 837 665 909 593 q 664 736 765 736 q 491 664 562 736 q 419 491 419 593 q 491 318 419 390 q 664 246 562 246 q 850 329 757 246 l 850 296 q 791 165 850 221 q 664 110 735 110 q 498 194 554 110 m 850 494 l 850 491 q 795 360 850 414 q 664 306 741 306 q 533 360 587 306 q 478 491 478 414 q 533 622 478 568 q 664 677 587 677 q 794 623 740 677 q 850 494 849 570 "},"ⓗ":{"ha":1316,"x_min":68,"x_max":1249,"o":"m 659 978 q 240 805 413 978 q 68 387 68 633 q 240 -30 68 142 q 659 -203 413 -203 q 1076 -30 903 -203 q 1249 387 1249 142 q 1076 805 1249 633 q 659 978 903 978 m 659 916 q 1032 761 877 916 q 1187 387 1187 606 q 1032 14 1187 169 q 659 -141 877 -141 q 284 14 439 -141 q 130 387 130 169 q 284 761 130 606 q 659 916 439 916 m 494 736 l 492 736 q 472 728 480 736 q 463 707 463 719 l 463 80 q 472 60 463 69 q 492 52 480 52 l 494 52 q 514 60 505 52 q 523 80 523 69 l 523 340 q 564 440 523 399 q 664 482 606 482 q 765 440 723 482 q 806 340 806 399 l 806 80 q 814 60 806 69 q 835 52 823 52 l 836 52 q 857 60 848 52 q 865 80 865 69 l 865 340 q 806 483 865 424 q 664 541 748 541 q 523 485 598 541 l 523 707 q 514 728 523 719 q 494 736 505 736 "},"ⓘ":{"ha":1316,"x_min":68,"x_max":1249,"o":"m 659 978 q 240 805 413 978 q 68 387 68 633 q 240 -30 68 142 q 659 -203 413 -203 q 1076 -30 903 -203 q 1249 387 1249 142 q 1076 805 1249 633 q 659 978 903 978 m 659 916 q 1032 761 877 916 q 1187 387 1187 606 q 1032 14 1187 169 q 659 -141 877 -141 q 284 14 439 -141 q 130 387 130 169 q 284 761 130 606 q 659 916 439 916 m 665 541 l 664 541 q 643 533 652 541 q 635 512 635 524 l 635 80 q 643 60 635 69 q 664 52 652 52 l 665 52 q 685 60 677 52 q 694 80 694 69 l 694 512 q 685 533 694 524 q 665 541 677 541 m 665 660 q 691 671 680 660 q 703 698 703 682 q 691 725 703 713 q 665 736 680 736 q 638 725 648 736 q 627 698 627 714 q 638 671 627 682 q 665 660 648 660 "},"ⓙ":{"ha":1316,"x_min":68,"x_max":1249,"o":"m 659 978 q 240 805 413 978 q 68 387 68 633 q 240 -30 68 142 q 659 -203 413 -203 q 1076 -30 903 -203 q 1249 387 1249 142 q 1076 805 1249 633 q 659 978 903 978 m 659 916 q 1032 761 877 916 q 1187 387 1187 606 q 1032 14 1187 169 q 659 -141 877 -141 q 284 14 439 -141 q 130 387 130 169 q 284 761 130 606 q 659 916 439 916 m 544 -47 l 571 -47 q 699 6 647 -47 q 752 134 751 58 l 752 609 q 744 630 752 621 q 723 638 735 638 l 722 638 q 701 630 709 638 q 693 609 693 621 l 693 134 q 657 48 692 83 q 571 13 622 13 l 544 13 q 523 4 532 13 q 515 -16 515 -4 l 515 -18 q 523 -38 515 -30 q 544 -47 532 -47 m 722 758 q 748 769 737 758 q 760 796 760 780 q 748 823 760 811 q 722 834 737 834 q 695 823 706 834 q 684 796 684 812 q 695 769 684 780 q 722 758 706 758 "},"ⓚ":{"ha":1316,"x_min":68,"x_max":1249,"o":"m 659 978 q 240 805 413 978 q 68 387 68 633 q 240 -30 68 142 q 659 -203 413 -203 q 1076 -30 903 -203 q 1249 387 1249 142 q 1076 805 1249 633 q 659 978 903 978 m 659 916 q 1032 761 877 916 q 1187 387 1187 606 q 1032 14 1187 169 q 659 -141 877 -141 q 284 14 439 -141 q 130 387 130 169 q 284 761 130 606 q 659 916 439 916 m 536 736 l 535 736 q 514 728 523 736 q 506 707 506 719 l 506 80 q 514 60 506 69 q 535 52 523 52 l 536 52 q 557 60 548 52 q 565 80 565 69 l 565 289 l 633 289 q 764 235 709 289 q 818 105 818 182 l 818 80 q 827 60 818 69 q 847 52 835 52 l 849 52 q 869 60 861 52 q 878 80 878 69 l 878 105 q 845 227 878 170 q 741 325 814 281 q 855 509 845 402 q 848 532 857 522 q 827 541 840 541 l 825 541 q 806 534 814 541 q 796 515 797 526 q 737 398 789 446 q 612 350 683 350 l 565 350 l 565 707 q 557 728 565 719 q 536 736 548 736 "},"ⓛ":{"ha":1316,"x_min":68,"x_max":1249,"o":"m 659 978 q 240 805 413 978 q 68 387 68 633 q 240 -30 68 142 q 659 -203 413 -203 q 1076 -30 903 -203 q 1249 387 1249 142 q 1076 805 1249 633 q 659 978 903 978 m 659 916 q 1032 761 877 916 q 1187 387 1187 606 q 1032 14 1187 169 q 659 -141 877 -141 q 284 14 439 -141 q 130 387 130 169 q 284 761 130 606 q 659 916 439 916 m 645 736 l 643 736 q 623 728 632 736 q 614 707 614 719 l 614 80 q 623 60 614 69 q 643 52 632 52 l 645 52 q 665 60 657 52 q 674 80 674 69 l 674 707 q 665 728 674 719 q 645 736 657 736 "},"ⓜ":{"ha":1316,"x_min":68,"x_max":1249,"o":"m 659 978 q 240 805 413 978 q 68 387 68 633 q 240 -30 68 142 q 659 -203 413 -203 q 1076 -30 903 -203 q 1249 387 1249 142 q 1076 805 1249 633 q 659 978 903 978 m 659 916 q 1032 761 877 916 q 1187 387 1187 606 q 1032 14 1187 169 q 659 -141 877 -141 q 284 14 439 -141 q 130 387 130 169 q 284 761 130 606 q 659 916 439 916 m 354 177 l 354 439 q 395 538 354 496 q 494 579 436 579 q 593 538 552 579 q 635 439 635 496 l 635 177 q 643 157 635 166 q 664 149 652 149 l 665 149 q 686 157 677 149 q 694 177 694 166 l 694 439 q 735 538 694 496 q 835 579 777 579 q 934 538 893 579 q 976 439 976 496 l 976 177 q 984 157 976 166 q 1005 149 993 149 l 1005 149 q 1026 157 1018 149 q 1034 177 1034 165 l 1034 439 q 976 580 1034 521 q 835 638 918 638 q 665 544 736 638 q 494 638 593 638 q 353 580 411 638 q 294 439 294 521 l 294 177 q 303 157 294 166 q 323 149 311 149 l 325 149 q 345 157 337 149 q 354 177 354 166 "},"ⓝ":{"ha":1316,"x_min":68,"x_max":1249,"o":"m 659 978 q 240 805 413 978 q 68 387 68 633 q 240 -30 68 142 q 659 -203 413 -203 q 1076 -30 903 -203 q 1249 387 1249 142 q 1076 805 1249 633 q 659 978 903 978 m 659 916 q 1032 761 877 916 q 1187 387 1187 606 q 1032 14 1187 169 q 659 -141 877 -141 q 284 14 439 -141 q 130 387 130 169 q 284 761 130 606 q 659 916 439 916 m 523 177 l 523 437 q 564 537 523 496 q 664 579 606 579 q 765 537 723 579 q 806 437 806 496 l 806 177 q 814 157 806 166 q 835 149 823 149 l 836 149 q 857 157 848 149 q 865 177 865 166 l 865 437 q 806 580 865 521 q 664 638 748 638 q 522 580 581 638 q 463 437 463 521 l 463 177 q 472 157 463 166 q 492 149 480 149 l 494 149 q 514 157 505 149 q 523 177 523 166 "},"ⓞ":{"ha":1316,"x_min":68,"x_max":1249,"o":"m 659 978 q 240 805 413 978 q 68 387 68 633 q 240 -30 68 142 q 659 -203 413 -203 q 1076 -30 903 -203 q 1249 387 1249 142 q 1076 805 1249 633 q 659 978 903 978 m 659 916 q 1032 761 877 916 q 1187 387 1187 606 q 1032 14 1187 169 q 659 -141 877 -141 q 284 14 439 -141 q 130 387 130 169 q 284 761 130 606 q 659 916 439 916 m 664 578 q 795 524 741 578 q 850 392 850 469 q 795 261 850 316 q 664 206 741 206 q 533 261 587 206 q 478 392 478 316 q 533 524 478 469 q 664 578 587 578 m 664 638 q 491 567 562 638 q 419 393 419 495 q 491 220 419 292 q 664 149 562 149 q 837 220 766 149 q 909 393 909 292 q 837 567 909 495 q 664 638 766 638 "},"ⓟ":{"ha":1316,"x_min":68,"x_max":1249,"o":"m 659 978 q 240 805 413 978 q 68 387 68 633 q 240 -30 68 142 q 659 -203 413 -203 q 1076 -30 903 -203 q 1249 387 1249 142 q 1076 805 1249 633 q 659 978 903 978 m 659 916 q 1032 761 877 916 q 1187 387 1187 606 q 1032 14 1187 169 q 659 -141 877 -141 q 284 14 439 -141 q 130 387 130 169 q 284 761 130 606 q 659 916 439 916 m 691 266 q 560 320 614 266 q 506 451 506 375 q 560 583 506 528 q 691 637 614 637 q 822 583 768 637 q 877 451 877 528 q 822 320 877 375 q 691 266 769 266 m 475 10 l 477 10 q 497 19 488 10 q 506 39 506 27 l 506 288 q 691 205 598 205 q 864 277 793 205 q 936 450 936 349 q 864 624 936 552 q 691 695 793 695 q 518 624 590 695 q 446 451 447 553 l 446 39 q 455 19 446 27 q 475 10 463 10 "},"ⓠ":{"ha":1316,"x_min":68,"x_max":1249,"o":"m 659 978 q 240 805 413 978 q 68 387 68 633 q 240 -30 68 142 q 659 -203 413 -203 q 1076 -30 903 -203 q 1249 387 1249 142 q 1076 805 1249 633 q 659 978 903 978 m 659 916 q 1032 761 877 916 q 1187 387 1187 606 q 1032 14 1187 169 q 659 -141 877 -141 q 284 14 439 -141 q 130 387 130 169 q 284 761 130 606 q 659 916 439 916 m 651 279 q 519 334 574 279 q 465 465 465 389 q 519 596 465 542 q 651 651 574 651 q 782 596 727 651 q 836 465 836 542 q 782 334 836 389 q 651 279 728 279 m 865 24 l 867 24 q 887 32 878 24 q 895 53 895 41 l 895 465 q 823 638 895 566 q 651 709 752 709 q 477 637 549 709 q 406 464 406 566 q 477 291 406 362 q 651 219 549 219 q 836 302 743 219 l 836 53 q 845 32 836 41 q 865 24 853 24 "},"ⓡ":{"ha":1316,"x_min":68,"x_max":1249,"o":"m 659 978 q 240 805 413 978 q 68 387 68 633 q 240 -30 68 142 q 659 -203 413 -203 q 1076 -30 903 -203 q 1249 387 1249 142 q 1076 805 1249 633 q 659 978 903 978 m 659 916 q 1032 761 877 916 q 1187 387 1187 606 q 1032 14 1187 169 q 659 -141 877 -141 q 284 14 439 -141 q 130 387 130 169 q 284 761 130 606 q 659 916 439 916 m 761 638 l 734 638 q 605 586 658 638 q 553 458 554 533 l 553 177 q 561 157 553 166 q 582 149 570 149 l 583 149 q 604 157 595 149 q 612 177 612 166 l 612 458 q 648 543 613 508 q 734 579 683 579 l 761 579 q 782 588 773 579 q 790 608 790 596 l 790 609 q 782 630 790 621 q 761 638 773 638 "},"ⓢ":{"ha":1316,"x_min":68,"x_max":1249,"o":"m 659 978 q 240 805 413 978 q 68 387 68 633 q 240 -30 68 142 q 659 -203 413 -203 q 1076 -30 903 -203 q 1249 387 1249 142 q 1076 805 1249 633 q 659 978 903 978 m 659 916 q 1032 761 877 916 q 1187 387 1187 606 q 1032 14 1187 169 q 659 -141 877 -141 q 284 14 439 -141 q 130 387 130 169 q 284 761 130 606 q 659 916 439 916 m 657 579 l 749 579 q 770 588 762 579 q 779 608 779 596 l 779 609 q 770 630 779 621 q 749 638 762 638 l 662 638 q 565 598 605 638 q 525 501 525 558 q 556 412 525 443 q 627 376 578 391 q 712 351 703 355 q 755 286 755 330 q 732 231 755 253 q 677 208 709 208 l 548 208 q 528 199 537 208 q 519 178 519 191 l 519 177 q 528 157 519 166 q 548 149 537 149 l 672 149 q 770 188 729 149 q 810 286 810 229 q 779 372 810 343 q 707 407 757 393 q 622 433 634 427 q 579 501 579 456 q 602 556 579 533 q 657 579 625 579 "},"ⓣ":{"ha":1316,"x_min":68,"x_max":1249,"o":"m 659 978 q 240 805 413 978 q 68 387 68 633 q 240 -30 68 142 q 659 -203 413 -203 q 1076 -30 903 -203 q 1249 387 1249 142 q 1076 805 1249 633 q 659 978 903 978 m 659 916 q 1032 761 877 916 q 1187 387 1187 606 q 1032 14 1187 169 q 659 -141 877 -141 q 284 14 439 -141 q 130 387 130 169 q 284 761 130 606 q 659 916 439 916 m 635 736 l 633 736 q 613 728 621 736 q 604 707 604 719 l 604 172 q 639 87 604 122 q 725 52 675 52 l 763 52 q 784 60 775 52 q 792 80 792 69 l 792 81 q 784 102 792 94 q 763 111 775 111 l 725 111 q 682 129 700 111 q 664 172 664 147 l 664 482 l 763 482 q 784 491 775 482 q 792 511 792 499 l 792 512 q 784 533 792 524 q 763 541 775 541 l 664 541 l 664 707 q 655 728 664 719 q 635 736 646 736 "},"ⓤ":{"ha":1316,"x_min":68,"x_max":1249,"o":"m 659 978 q 240 805 413 978 q 68 387 68 633 q 240 -30 68 142 q 659 -203 413 -203 q 1076 -30 903 -203 q 1249 387 1249 142 q 1076 805 1249 633 q 659 978 903 978 m 659 916 q 1032 761 877 916 q 1187 387 1187 606 q 1032 14 1187 169 q 659 -141 877 -141 q 284 14 439 -141 q 130 387 130 169 q 284 761 130 606 q 659 916 439 916 m 523 349 l 523 609 q 514 630 523 621 q 494 638 505 638 l 492 638 q 472 630 480 638 q 463 609 463 621 l 463 349 q 522 207 463 266 q 664 149 581 149 q 806 207 748 149 q 865 349 865 266 l 865 609 q 857 630 865 621 q 836 638 848 638 l 835 638 q 814 630 823 638 q 806 609 806 621 l 806 349 q 765 249 806 291 q 664 208 723 208 q 564 249 606 208 q 523 349 523 291 "},"ⓥ":{"ha":1316,"x_min":68,"x_max":1249,"o":"m 659 978 q 240 805 413 978 q 68 387 68 633 q 240 -30 68 142 q 659 -203 413 -203 q 1076 -30 903 -203 q 1249 387 1249 142 q 1076 805 1249 633 q 659 978 903 978 m 659 916 q 1032 761 877 916 q 1187 387 1187 606 q 1032 14 1187 169 q 659 -141 877 -141 q 284 14 439 -141 q 130 387 130 169 q 284 761 130 606 q 659 916 439 916 m 665 225 q 650 244 658 225 l 648 250 l 489 620 q 462 638 481 638 l 461 638 q 437 626 446 638 q 435 598 429 612 l 611 186 q 665 149 628 149 q 720 186 703 149 l 896 598 q 894 626 902 612 q 870 638 885 638 l 869 638 q 842 620 850 638 l 683 250 l 681 244 q 669 225 673 225 q 665 225 665 225 "},"ⓦ":{"ha":1316,"x_min":68,"x_max":1249,"o":"m 659 978 q 240 805 413 978 q 68 387 68 633 q 240 -30 68 142 q 659 -203 413 -203 q 1076 -30 903 -203 q 1249 387 1249 142 q 1076 805 1249 633 q 659 978 903 978 m 659 916 q 1032 761 877 916 q 1187 387 1187 606 q 1032 14 1187 169 q 659 -141 877 -141 q 284 14 439 -141 q 130 387 130 169 q 284 761 130 606 q 659 916 439 916 m 354 348 l 354 609 q 345 630 354 621 q 325 638 337 638 l 323 638 q 303 630 311 638 q 294 609 294 621 l 294 348 q 353 207 294 265 q 494 149 411 149 q 665 242 593 149 q 835 149 736 149 q 976 207 918 149 q 1034 348 1034 265 l 1034 609 q 1026 630 1034 621 q 1005 638 1018 638 l 1005 638 q 984 630 993 638 q 976 609 976 621 l 976 348 q 934 249 976 290 q 835 208 893 208 q 735 249 777 208 q 694 348 694 290 l 694 609 q 686 630 694 621 q 665 638 677 638 l 664 638 q 643 630 652 638 q 635 609 635 621 l 635 348 q 593 249 635 290 q 494 208 552 208 q 395 249 436 208 q 354 348 354 290 "},"ⓧ":{"ha":1316,"x_min":68,"x_max":1249,"o":"m 659 978 q 240 805 413 978 q 68 387 68 633 q 240 -30 68 142 q 659 -203 413 -203 q 1076 -30 903 -203 q 1249 387 1249 142 q 1076 805 1249 633 q 659 978 903 978 m 659 916 q 1032 761 877 916 q 1187 387 1187 606 q 1032 14 1187 169 q 659 -141 877 -141 q 284 14 439 -141 q 130 387 130 169 q 284 761 130 606 q 659 916 439 916 m 523 567 l 523 609 q 514 630 523 621 q 494 638 506 638 l 492 638 q 472 630 481 638 q 464 609 464 621 l 464 567 q 558 396 464 468 q 464 224 464 324 l 464 177 q 472 157 464 166 q 492 149 481 149 l 494 149 q 514 157 506 149 q 523 177 523 166 l 523 224 q 564 325 523 283 q 665 366 606 366 q 765 325 723 366 q 806 224 806 283 l 806 177 q 815 157 806 166 q 836 149 823 149 l 837 149 q 857 157 849 149 q 866 177 866 166 l 866 224 q 772 396 866 324 q 866 567 866 468 l 866 609 q 857 630 866 621 q 837 638 849 638 l 836 638 q 815 630 823 638 q 806 609 806 621 l 806 567 q 765 467 806 509 q 665 425 723 425 q 564 467 606 425 q 523 567 523 509 "},"ⓨ":{"ha":1316,"x_min":68,"x_max":1249,"o":"m 659 978 q 240 805 413 978 q 68 387 68 633 q 240 -30 68 142 q 659 -203 413 -203 q 1076 -30 903 -203 q 1249 387 1249 142 q 1076 805 1249 633 q 659 978 903 978 m 659 916 q 1032 761 877 916 q 1187 387 1187 606 q 1032 14 1187 169 q 659 -141 877 -141 q 284 14 439 -141 q 130 387 130 169 q 284 761 130 606 q 659 916 439 916 m 523 434 l 523 684 q 514 704 523 696 q 494 713 505 713 l 492 713 q 472 704 480 713 q 463 684 463 696 l 463 434 q 522 292 463 351 q 664 234 581 234 q 806 289 730 234 l 806 229 q 763 129 806 171 q 664 87 721 87 q 583 109 621 87 q 527 167 546 131 q 512 180 522 176 q 493 181 502 184 l 491 180 q 473 163 478 176 q 474 140 468 151 q 549 59 500 89 q 664 28 601 28 q 803 87 743 28 q 865 229 865 148 l 865 684 q 857 704 865 696 q 836 713 848 713 l 835 713 q 814 704 823 713 q 806 684 806 696 l 806 434 q 764 334 806 375 q 664 292 723 292 q 564 334 606 292 q 523 434 523 376 "},"ⓩ":{"ha":1316,"x_min":68,"x_max":1249,"o":"m 659 978 q 240 805 413 978 q 68 387 68 633 q 240 -30 68 142 q 659 -203 413 -203 q 1076 -30 903 -203 q 1249 387 1249 142 q 1076 805 1249 633 q 659 978 903 978 m 659 916 q 1032 761 877 916 q 1187 387 1187 606 q 1032 14 1187 169 q 659 -141 877 -141 q 284 14 439 -141 q 130 387 130 169 q 284 761 130 606 q 659 916 439 916 m 854 601 q 860 578 860 589 q 842 536 861 555 l 523 206 l 834 206 q 854 198 846 206 q 863 177 863 189 l 863 176 q 854 155 863 164 q 834 147 846 147 l 528 147 q 472 183 488 146 q 485 248 457 219 l 805 578 l 514 578 q 493 586 502 578 q 485 607 485 595 l 485 608 q 493 629 485 620 q 514 637 502 637 l 799 637 q 854 601 839 638 "},"⓪":{"ha":1316,"x_min":68,"x_max":1249,"o":"m 659 978 q 240 805 413 978 q 68 387 68 633 q 240 -30 68 142 q 659 -203 413 -203 q 1076 -30 903 -203 q 1249 387 1249 142 q 1076 805 1249 633 q 659 978 903 978 m 659 916 q 1032 761 877 916 q 1187 387 1187 606 q 1032 14 1187 169 q 659 -141 877 -141 q 284 14 439 -141 q 130 387 130 169 q 284 761 130 606 q 659 916 439 916 m 659 686 q 502 627 566 686 q 437 487 437 568 l 437 288 q 502 147 437 207 q 659 88 566 88 q 815 147 751 88 q 880 288 880 207 l 880 487 q 815 627 880 568 q 659 686 751 686 m 659 623 q 760 582 717 623 q 804 484 804 543 l 804 291 q 760 193 804 233 q 659 153 717 153 q 557 191 600 153 q 513 291 513 233 l 513 484 q 557 583 513 543 q 659 623 600 623 "},"⓫":{"ha":1316,"x_min":68,"x_max":1249,"o":"m 659 978 q 240 805 413 978 q 68 387 68 633 q 240 -30 68 142 q 659 -203 413 -203 q 1076 -30 903 -203 q 1249 387 1249 142 q 1076 805 1249 633 q 659 978 903 978 m 611 656 l 611 119 q 587 68 611 90 q 533 48 565 48 l 532 48 q 478 68 499 48 q 454 119 454 90 l 454 585 l 406 585 q 351 604 375 585 q 328 655 328 626 l 328 656 q 351 706 328 685 q 406 727 375 727 l 533 727 q 589 706 565 727 q 611 656 611 685 m 955 656 l 955 119 q 931 68 955 90 q 877 48 909 48 l 876 48 q 822 68 843 48 q 798 119 798 90 l 798 585 l 750 585 q 695 604 719 585 q 672 655 672 626 l 672 656 q 695 706 672 685 q 750 727 719 727 l 877 727 q 932 706 909 727 q 955 656 955 685 "},"⓬":{"ha":1316,"x_min":68,"x_max":1249,"o":"m 659 978 q 240 805 413 978 q 68 387 68 633 q 240 -30 68 142 q 659 -203 413 -203 q 1076 -30 903 -203 q 1249 387 1249 142 q 1076 805 1249 633 q 659 978 903 978 m 530 656 l 530 119 q 506 68 530 90 q 452 48 484 48 l 450 48 q 397 68 418 48 q 372 119 372 90 l 372 585 l 325 585 q 270 604 294 585 q 247 655 247 626 l 247 656 q 270 706 247 685 q 325 727 294 727 l 452 727 q 507 706 484 727 q 530 656 530 685 m 677 727 l 854 727 q 1008 669 946 727 q 1074 526 1074 609 q 1011 393 1074 452 q 888 310 975 360 q 779 239 807 264 q 738 191 738 201 l 1000 191 q 1056 170 1033 191 q 1078 120 1078 149 l 1078 119 q 1055 69 1078 89 q 1000 48 1033 48 l 655 48 q 600 69 623 48 q 577 119 577 89 l 577 157 q 639 307 577 240 q 764 400 680 351 q 877 469 861 458 q 916 526 916 500 q 898 568 916 551 q 854 585 880 585 l 677 585 q 622 605 645 585 q 599 655 599 626 l 599 656 q 622 706 599 685 q 677 727 644 727 "},"⓭":{"ha":1316,"x_min":68,"x_max":1249,"o":"m 659 978 q 240 805 413 978 q 68 387 68 633 q 240 -30 68 142 q 659 -203 413 -203 q 1076 -30 903 -203 q 1249 387 1249 142 q 1076 805 1249 633 q 659 978 903 978 m 577 656 l 577 119 q 553 68 577 90 q 499 48 531 48 l 498 48 q 444 68 465 48 q 420 119 420 90 l 420 585 l 372 585 q 317 604 341 585 q 294 655 294 626 l 294 656 q 317 706 294 685 q 372 727 341 727 l 499 727 q 555 706 531 727 q 577 656 577 685 m 682 727 l 806 727 q 961 668 897 727 q 1025 526 1025 609 q 981 399 1025 433 q 1035 258 1035 362 q 966 109 1035 172 q 806 48 901 48 l 682 48 q 627 69 650 48 q 604 119 604 89 l 604 120 q 628 171 604 149 q 682 191 650 191 l 806 191 q 857 210 835 191 q 877 258 877 230 q 857 307 877 287 q 806 326 835 326 l 702 326 q 647 346 669 326 q 624 397 624 368 l 624 397 q 646 447 624 426 q 702 468 669 468 l 806 469 q 849 485 831 469 q 867 526 867 502 q 848 568 867 551 q 806 585 831 585 l 682 585 q 627 604 651 585 q 604 655 604 626 l 604 656 q 627 706 604 685 q 682 727 651 727 "},"⓮":{"ha":1316,"x_min":68,"x_max":1249,"o":"m 659 978 q 240 805 413 978 q 68 387 68 633 q 240 -30 68 142 q 659 -203 413 -203 q 1076 -30 903 -203 q 1249 387 1249 142 q 1076 805 1249 633 q 659 978 903 978 m 523 656 l 523 119 q 499 68 523 90 q 445 48 477 48 l 444 48 q 390 68 411 48 q 366 119 366 90 l 366 585 l 318 585 q 263 604 287 585 q 240 655 240 626 l 240 656 q 263 706 240 685 q 318 727 287 727 l 445 727 q 500 706 477 727 q 523 656 523 685 m 586 299 l 821 690 q 890 727 843 727 l 956 727 q 1011 706 987 727 q 1034 656 1034 685 l 1034 309 l 1060 309 q 1116 288 1093 309 q 1138 238 1138 267 l 1138 237 q 1114 186 1138 208 q 1060 166 1092 166 l 1034 166 l 1034 119 q 1011 68 1034 89 q 956 48 987 48 l 955 48 q 899 68 923 48 q 876 119 876 89 l 876 166 l 655 166 q 600 187 623 166 q 577 237 577 207 l 577 265 q 586 299 577 283 m 772 309 l 876 309 l 876 484 l 772 309 "},"⓯":{"ha":1316,"x_min":68,"x_max":1249,"o":"m 659 978 q 240 805 413 978 q 68 387 68 633 q 240 -30 68 142 q 659 -203 413 -203 q 1076 -30 903 -203 q 1249 387 1249 142 q 1076 805 1249 633 q 659 978 903 978 m 550 656 l 550 119 q 526 68 550 90 q 472 48 504 48 l 471 48 q 417 68 438 48 q 393 119 393 90 l 393 585 l 345 585 q 290 604 314 585 q 267 655 267 626 l 267 656 q 290 706 267 685 q 345 727 314 727 l 472 727 q 528 706 504 727 q 550 656 550 685 m 831 326 l 655 326 q 600 347 623 326 q 577 397 577 368 l 577 656 q 600 706 577 685 q 655 727 624 727 l 924 727 q 979 706 956 727 q 1002 656 1002 685 l 1002 655 q 979 604 1002 626 q 924 585 956 585 l 734 585 l 734 468 l 831 468 q 994 406 926 468 q 1061 258 1061 345 q 992 109 1061 172 q 831 48 926 48 l 655 48 q 600 69 623 48 q 577 119 577 89 l 577 120 q 601 171 577 149 q 655 191 623 191 l 831 191 q 882 210 861 191 q 903 258 903 230 q 882 307 903 287 q 831 326 861 326 "},"⓰":{"ha":1316,"x_min":68,"x_max":1249,"o":"m 659 978 q 240 805 413 978 q 68 387 68 633 q 240 -30 68 142 q 659 -203 413 -203 q 1076 -30 903 -203 q 1249 387 1249 142 q 1076 805 1249 633 q 659 978 903 978 m 536 656 l 536 119 q 513 68 536 90 q 458 48 490 48 l 457 48 q 404 68 425 48 q 379 119 379 90 l 379 585 l 332 585 q 277 604 300 585 q 254 655 254 626 l 254 656 q 277 706 254 685 q 332 727 300 727 l 458 727 q 514 706 490 727 q 536 656 536 685 m 850 326 l 721 326 l 721 258 q 742 210 721 230 q 792 191 764 191 l 850 191 q 901 210 880 191 q 922 258 922 230 q 901 307 922 287 q 850 326 880 326 m 850 48 l 792 48 q 632 109 697 48 q 564 258 564 172 l 564 517 q 631 665 564 604 q 792 727 697 727 l 927 727 q 983 706 959 727 q 1006 656 1006 685 l 1006 655 q 983 604 1006 626 q 927 585 959 585 l 792 585 q 741 564 764 585 q 721 517 721 545 l 721 468 l 850 468 q 1013 406 945 468 q 1080 258 1080 345 q 1011 109 1080 172 q 850 48 945 48 "},"⓱":{"ha":1316,"x_min":68,"x_max":1249,"o":"m 659 978 q 240 805 413 978 q 68 387 68 633 q 240 -30 68 142 q 659 -203 413 -203 q 1076 -30 903 -203 q 1249 387 1249 142 q 1076 805 1249 633 q 659 978 903 978 m 550 656 l 550 119 q 526 68 550 90 q 472 48 504 48 l 471 48 q 417 68 438 48 q 393 119 393 90 l 393 585 l 345 585 q 290 604 314 585 q 267 655 267 626 l 267 656 q 290 706 267 685 q 345 727 314 727 l 472 727 q 528 706 504 727 q 550 656 550 685 m 1012 656 l 1012 119 q 988 68 1012 90 q 934 48 966 48 l 933 48 q 878 69 900 48 q 854 119 854 89 l 854 585 l 635 585 q 580 604 604 585 q 557 655 557 626 l 557 656 q 580 706 557 685 q 635 727 604 727 l 934 727 q 989 706 966 727 q 1012 656 1012 685 "},"⓲":{"ha":1316,"x_min":68,"x_max":1249,"o":"m 659 978 q 240 805 413 978 q 68 387 68 633 q 240 -30 68 142 q 659 -203 413 -203 q 1076 -30 903 -203 q 1249 387 1249 142 q 1076 805 1249 633 q 659 978 903 978 m 509 656 l 509 119 q 486 68 509 90 q 431 48 463 48 l 430 48 q 376 68 397 48 q 352 119 352 90 l 352 585 l 304 585 q 250 604 273 585 q 227 655 227 626 l 227 656 q 250 706 227 685 q 304 727 273 727 l 431 727 q 487 706 463 727 q 509 656 509 685 m 765 727 l 831 727 q 986 668 922 727 q 1050 526 1050 609 q 1007 399 1050 433 q 1060 258 1060 361 q 994 110 1060 172 q 831 48 927 48 l 765 48 q 605 109 670 48 q 536 258 536 172 q 590 399 536 362 q 547 526 547 433 q 612 669 547 609 q 765 727 674 727 m 765 191 l 831 191 q 883 212 861 191 q 903 258 903 230 q 881 307 903 286 q 831 326 861 326 l 765 326 q 713 305 736 326 q 694 258 694 286 q 715 210 694 230 q 765 191 736 191 m 765 469 l 831 469 q 875 485 857 469 q 892 526 892 502 q 874 568 892 551 q 831 585 856 585 l 765 585 q 722 568 741 585 q 704 526 704 551 q 722 485 704 502 q 765 469 741 469 "},"⓳":{"ha":1316,"x_min":68,"x_max":1249,"o":"m 659 978 q 240 805 413 978 q 68 387 68 633 q 240 -30 68 142 q 659 -203 413 -203 q 1076 -30 903 -203 q 1249 387 1249 142 q 1076 805 1249 633 q 659 978 903 978 m 516 656 l 516 119 q 492 68 516 90 q 438 48 470 48 l 437 48 q 383 68 404 48 q 359 119 359 90 l 359 585 l 311 585 q 256 604 280 585 q 233 655 233 626 l 233 656 q 256 706 233 685 q 311 727 280 727 l 438 727 q 494 706 470 727 q 516 656 516 685 m 772 450 l 901 450 l 901 517 q 881 564 901 545 q 830 585 859 585 l 772 585 q 720 564 743 585 q 701 517 701 545 q 720 470 701 488 q 772 450 743 450 m 772 727 l 830 727 q 992 665 925 727 q 1059 517 1059 604 l 1059 258 q 991 109 1059 172 q 830 48 925 48 l 657 48 q 602 68 624 48 q 579 119 579 90 l 579 120 q 601 170 579 149 q 657 191 624 191 l 830 191 q 880 210 859 191 q 901 258 901 230 l 901 307 l 772 307 q 612 368 677 307 q 543 517 543 431 q 610 665 543 604 q 772 727 677 727 "},"⓴":{"ha":1316,"x_min":68,"x_max":1249,"o":"m 659 978 q 240 805 413 978 q 68 387 68 633 q 240 -30 68 142 q 659 -203 413 -203 q 1076 -30 903 -203 q 1249 387 1249 142 q 1076 805 1249 633 q 659 978 903 978 m 271 727 l 448 727 q 602 669 540 727 q 667 526 667 609 q 605 393 667 452 q 482 310 569 360 q 373 239 401 264 q 332 191 332 201 l 593 191 q 650 170 627 191 q 672 120 672 149 l 672 119 q 649 69 672 89 q 593 48 627 48 l 249 48 q 194 69 216 48 q 171 119 171 89 l 171 157 q 233 307 171 240 q 357 400 273 351 q 471 469 455 458 q 510 526 510 500 q 492 568 510 551 q 448 585 473 585 l 271 585 q 216 605 239 585 q 193 655 193 626 l 193 656 q 216 706 193 685 q 271 727 238 727 m 934 727 q 1118 657 1042 727 q 1196 487 1196 585 l 1196 288 q 1118 117 1196 189 q 934 47 1042 47 q 750 117 825 47 q 672 288 672 189 l 672 487 q 750 657 672 585 q 934 727 825 727 m 934 582 q 860 553 891 582 q 829 484 829 525 l 829 291 q 860 221 829 250 q 934 193 891 193 q 1008 222 976 193 q 1038 291 1038 250 l 1038 484 q 1008 552 1038 525 q 934 582 976 582 "},"⓵":{"ha":1276,"x_min":66,"x_max":1251,"o":"m 696 79 l 696 616 q 687 637 696 628 q 659 647 675 647 l 532 647 q 504 637 515 647 q 494 616 494 628 l 494 616 q 504 596 494 604 q 532 586 515 586 l 620 586 l 620 79 q 631 58 620 68 q 657 50 641 50 l 659 50 q 686 58 675 50 q 696 79 696 68 m 659 948 q 261 784 425 948 q 98 387 98 621 q 261 -9 98 155 q 659 -173 425 -173 q 1055 -9 891 -173 q 1219 387 1219 155 q 1055 784 1219 621 q 659 948 891 948 m 659 979 q 1077 806 903 979 q 1251 387 1251 633 q 1077 -31 1251 142 q 659 -205 903 -205 q 240 -31 413 -205 q 66 387 66 142 q 240 806 66 633 q 659 979 413 979 m 659 879 q 311 735 454 879 q 167 387 167 591 q 311 40 167 184 q 659 -104 454 -104 q 1006 40 862 -104 q 1149 387 1149 184 q 1006 735 1149 591 q 659 879 862 879 m 659 911 q 1028 758 875 911 q 1181 387 1181 604 q 1028 18 1181 171 q 659 -136 875 -136 q 288 18 441 -136 q 135 387 135 171 q 288 758 135 604 q 659 911 441 911 "},"⓶":{"ha":1276,"x_min":66,"x_max":1251,"o":"m 665 670 l 488 670 q 460 660 471 670 q 450 640 450 651 l 450 639 q 460 618 450 627 q 488 609 471 609 l 665 609 q 736 581 707 609 q 768 510 768 552 q 712 420 768 463 q 595 349 694 408 q 479 263 516 302 q 429 141 429 208 l 429 102 q 438 83 429 92 q 466 73 450 73 l 810 73 q 839 83 827 73 q 848 102 848 92 l 848 104 q 838 123 848 115 q 810 134 827 134 l 508 134 q 563 252 508 202 q 679 329 593 280 q 793 407 762 376 q 844 510 844 454 q 792 623 844 575 q 665 670 741 670 m 659 948 q 261 784 425 948 q 98 387 98 621 q 261 -9 98 155 q 659 -173 425 -173 q 1055 -9 891 -173 q 1219 387 1219 155 q 1055 784 1219 621 q 659 948 891 948 m 659 979 q 1077 806 903 979 q 1251 387 1251 633 q 1077 -31 1251 142 q 659 -205 903 -205 q 240 -31 413 -205 q 66 387 66 142 q 240 806 66 633 q 659 979 413 979 m 659 879 q 311 735 454 879 q 167 387 167 591 q 311 40 167 184 q 659 -104 454 -104 q 1006 40 862 -104 q 1149 387 1149 184 q 1006 735 1149 591 q 659 879 862 879 m 659 911 q 1028 758 875 911 q 1181 387 1181 604 q 1028 18 1181 171 q 659 -136 875 -136 q 288 18 441 -136 q 135 387 135 171 q 288 758 135 604 q 659 911 441 911 "},"⓷":{"ha":1276,"x_min":66,"x_max":1251,"o":"m 656 656 l 532 656 q 505 646 516 656 q 495 626 495 637 l 495 625 q 505 606 495 614 q 532 595 516 595 l 656 595 q 727 568 697 595 q 758 496 758 538 q 726 425 758 454 q 656 398 697 398 l 552 397 q 524 387 535 397 q 515 368 515 378 l 515 367 q 526 346 515 355 q 552 336 535 336 l 656 336 q 734 307 701 336 q 768 229 768 275 q 734 151 768 182 q 656 121 701 121 l 532 121 q 507 111 516 121 q 495 90 495 101 l 495 89 q 505 69 495 78 q 532 59 516 59 l 656 59 q 789 109 735 59 q 844 229 844 159 q 764 368 844 311 q 834 496 834 423 q 784 608 834 562 q 656 656 730 656 m 659 948 q 261 784 425 948 q 98 387 98 621 q 261 -9 98 155 q 659 -173 425 -173 q 1055 -9 891 -173 q 1219 387 1219 155 q 1055 784 1219 621 q 659 948 891 948 m 659 979 q 1077 806 903 979 q 1251 387 1251 633 q 1077 -31 1251 142 q 659 -205 903 -205 q 240 -31 413 -205 q 66 387 66 142 q 240 806 66 633 q 659 979 413 979 m 659 879 q 311 735 454 879 q 167 387 167 591 q 311 40 167 184 q 659 -104 454 -104 q 1006 40 862 -104 q 1149 387 1149 184 q 1006 735 1149 591 q 659 879 862 879 m 659 911 q 1028 758 875 911 q 1181 387 1181 604 q 1028 18 1181 171 q 659 -136 875 -136 q 288 18 441 -136 q 135 387 135 171 q 288 758 135 604 q 659 911 441 911 "},"⓸":{"ha":1276,"x_min":66,"x_max":1251,"o":"m 606 641 l 371 250 q 368 237 368 244 l 368 208 q 377 189 368 197 q 405 178 389 178 l 667 178 l 667 90 q 676 71 667 79 q 705 60 688 60 l 705 60 q 734 71 722 60 q 743 90 743 79 l 743 178 l 810 178 q 837 187 827 178 q 847 208 847 197 l 847 210 q 838 229 847 220 q 810 240 826 240 l 743 240 l 743 627 q 734 648 743 639 q 705 658 722 658 l 640 658 q 606 641 616 658 m 667 240 l 450 240 l 667 603 l 667 240 m 659 948 q 261 784 425 948 q 98 387 98 621 q 261 -9 98 155 q 659 -173 425 -173 q 1055 -9 891 -173 q 1219 387 1219 155 q 1055 784 1219 621 q 659 948 891 948 m 659 979 q 1077 806 903 979 q 1251 387 1251 633 q 1077 -31 1251 142 q 659 -205 903 -205 q 240 -31 413 -205 q 66 387 66 142 q 240 806 66 633 q 659 979 413 979 m 659 879 q 311 735 454 879 q 167 387 167 591 q 311 40 167 184 q 659 -104 454 -104 q 1006 40 862 -104 q 1149 387 1149 184 q 1006 735 1149 591 q 659 879 862 879 m 659 911 q 1028 758 875 911 q 1181 387 1181 604 q 1028 18 1181 171 q 659 -136 875 -136 q 288 18 441 -136 q 135 387 135 171 q 288 758 135 604 q 659 911 441 911 "},"⓹":{"ha":1276,"x_min":66,"x_max":1251,"o":"m 490 333 l 667 333 q 744 303 712 333 q 779 225 779 271 q 744 147 779 179 q 667 117 712 117 l 490 117 q 465 108 474 117 q 453 87 453 98 l 453 85 q 463 66 453 75 q 490 56 474 56 l 667 56 q 800 105 745 56 q 855 225 855 156 q 802 343 855 294 q 667 394 745 394 l 529 394 l 529 592 l 760 592 q 787 602 776 592 q 797 622 797 610 l 797 623 q 787 643 797 634 q 760 653 776 653 l 490 653 q 463 643 474 653 q 453 623 453 634 l 453 363 q 463 343 453 352 q 490 333 474 333 m 659 948 q 261 784 425 948 q 98 387 98 621 q 261 -9 98 155 q 659 -173 425 -173 q 1055 -9 891 -173 q 1219 387 1219 155 q 1055 784 1219 621 q 659 948 891 948 m 659 979 q 1077 806 903 979 q 1251 387 1251 633 q 1077 -31 1251 142 q 659 -205 903 -205 q 240 -31 413 -205 q 66 387 66 142 q 240 806 66 633 q 659 979 413 979 m 659 879 q 311 735 454 879 q 167 387 167 591 q 311 40 167 184 q 659 -104 454 -104 q 1006 40 862 -104 q 1149 387 1149 184 q 1006 735 1149 591 q 659 879 862 879 m 659 911 q 1028 758 875 911 q 1181 387 1181 604 q 1028 18 1181 171 q 659 -136 875 -136 q 288 18 441 -136 q 135 387 135 171 q 288 758 135 604 q 659 911 441 911 "},"⓺":{"ha":1276,"x_min":66,"x_max":1251,"o":"m 500 341 l 671 341 q 748 311 716 341 q 783 233 783 279 q 748 155 783 187 q 671 125 716 125 l 612 125 q 535 155 568 125 q 500 233 500 187 l 500 341 m 612 64 l 671 64 q 804 113 749 64 q 859 233 859 164 q 806 351 859 302 q 671 402 749 402 l 500 402 l 500 492 q 534 568 500 538 q 612 600 568 600 l 747 600 q 776 610 764 600 q 785 630 785 618 l 785 631 q 776 651 785 642 q 747 661 764 661 l 612 661 q 478 610 534 661 q 425 492 425 561 l 425 233 q 479 113 425 164 q 612 64 534 64 m 659 948 q 261 784 425 948 q 98 387 98 621 q 261 -9 98 155 q 659 -173 425 -173 q 1055 -9 891 -173 q 1219 387 1219 155 q 1055 784 1219 621 q 659 948 891 948 m 659 979 q 1077 806 903 979 q 1251 387 1251 633 q 1077 -31 1251 142 q 659 -205 903 -205 q 240 -31 413 -205 q 66 387 66 142 q 240 806 66 633 q 659 979 413 979 m 659 879 q 311 735 454 879 q 167 387 167 591 q 311 40 167 184 q 659 -104 454 -104 q 1006 40 862 -104 q 1149 387 1149 184 q 1006 735 1149 591 q 659 879 862 879 m 659 911 q 1028 758 875 911 q 1181 387 1181 604 q 1028 18 1181 171 q 659 -136 875 -136 q 288 18 441 -136 q 135 387 135 171 q 288 758 135 604 q 659 911 441 911 "},"⓻":{"ha":1276,"x_min":66,"x_max":1251,"o":"m 754 73 l 754 610 q 745 631 754 622 q 717 641 734 641 l 418 641 q 390 631 401 641 q 380 610 380 622 l 380 610 q 390 590 380 598 q 418 580 401 580 l 678 580 l 678 73 q 688 54 678 62 q 716 43 699 43 l 717 43 q 744 52 734 43 q 754 73 754 62 m 659 948 q 261 784 425 948 q 98 387 98 621 q 261 -9 98 155 q 659 -173 425 -173 q 1055 -9 891 -173 q 1219 387 1219 155 q 1055 784 1219 621 q 659 948 891 948 m 659 979 q 1077 806 903 979 q 1251 387 1251 633 q 1077 -31 1251 142 q 659 -205 903 -205 q 240 -31 413 -205 q 66 387 66 142 q 240 806 66 633 q 659 979 413 979 m 659 879 q 311 735 454 879 q 167 387 167 591 q 311 40 167 184 q 659 -104 454 -104 q 1006 40 862 -104 q 1149 387 1149 184 q 1006 735 1149 591 q 659 879 862 879 m 659 911 q 1028 758 875 911 q 1181 387 1181 604 q 1028 18 1181 171 q 659 -136 875 -136 q 288 18 441 -136 q 135 387 135 171 q 288 758 135 604 q 659 911 441 911 "},"⓼":{"ha":1276,"x_min":66,"x_max":1251,"o":"m 663 656 l 596 656 q 470 609 522 656 q 418 496 418 561 q 489 368 418 422 q 408 228 408 310 q 463 108 408 159 q 596 58 517 58 l 663 58 q 798 109 742 58 q 850 228 850 159 q 770 368 850 311 q 841 496 841 422 q 790 608 841 561 q 663 656 737 656 m 663 120 l 596 120 q 519 150 551 120 q 484 228 484 182 q 517 304 484 273 q 596 336 551 336 l 663 336 q 741 306 708 336 q 774 228 774 273 q 741 151 774 182 q 663 120 708 120 m 663 397 l 596 397 q 526 425 555 397 q 494 496 494 454 q 526 567 494 538 q 596 595 555 595 l 663 595 q 732 567 703 595 q 764 496 764 538 q 733 425 764 454 q 663 397 704 397 m 659 948 q 261 784 425 948 q 98 387 98 621 q 261 -9 98 155 q 659 -173 425 -173 q 1055 -9 891 -173 q 1219 387 1219 155 q 1055 784 1219 621 q 659 948 891 948 m 659 979 q 1077 806 903 979 q 1251 387 1251 633 q 1077 -31 1251 142 q 659 -205 903 -205 q 240 -31 413 -205 q 66 387 66 142 q 240 806 66 633 q 659 979 413 979 m 659 879 q 311 735 454 879 q 167 387 167 591 q 311 40 167 184 q 659 -104 454 -104 q 1006 40 862 -104 q 1149 387 1149 184 q 1006 735 1149 591 q 659 879 862 879 m 659 911 q 1028 758 875 911 q 1181 387 1181 604 q 1028 18 1181 171 q 659 -136 875 -136 q 288 18 441 -136 q 135 387 135 171 q 288 758 135 604 q 659 911 441 911 "},"⓽":{"ha":1276,"x_min":66,"x_max":1251,"o":"m 774 380 l 604 380 q 525 412 559 380 q 492 488 492 442 q 525 565 492 534 q 604 597 559 597 l 662 597 q 741 565 707 597 q 774 488 774 534 l 774 380 m 662 658 l 604 658 q 469 606 525 658 q 416 488 416 557 q 471 369 416 420 q 604 319 525 319 l 774 319 l 774 230 q 739 152 774 184 q 662 122 707 122 l 489 122 q 461 111 472 122 q 452 92 452 102 l 452 90 q 463 69 452 79 q 489 60 472 60 l 662 60 q 795 110 741 60 q 850 230 850 161 l 850 488 q 797 606 850 557 q 662 658 741 658 m 659 948 q 261 784 425 948 q 98 387 98 621 q 261 -9 98 155 q 659 -173 425 -173 q 1055 -9 891 -173 q 1219 387 1219 155 q 1055 784 1219 621 q 659 948 891 948 m 659 979 q 1077 806 903 979 q 1251 387 1251 633 q 1077 -31 1251 142 q 659 -205 903 -205 q 240 -31 413 -205 q 66 387 66 142 q 240 806 66 633 q 659 979 413 979 m 659 879 q 311 735 454 879 q 167 387 167 591 q 311 40 167 184 q 659 -104 454 -104 q 1006 40 862 -104 q 1149 387 1149 184 q 1006 735 1149 591 q 659 879 862 879 m 659 911 q 1028 758 875 911 q 1181 387 1181 604 q 1028 18 1181 171 q 659 -136 875 -136 q 288 18 441 -136 q 135 387 135 171 q 288 758 135 604 q 659 911 441 911 "},"⓾":{"ha":1276,"x_min":66,"x_max":1251,"o":"m 494 85 l 494 623 q 486 643 494 634 q 457 653 474 653 l 330 653 q 302 643 314 653 q 293 623 293 634 l 293 622 q 302 602 293 610 q 330 592 314 592 l 418 592 l 418 85 q 429 64 418 75 q 456 56 439 56 l 457 56 q 484 64 474 56 q 494 85 494 75 m 797 653 q 640 594 705 653 q 576 454 576 534 l 576 255 q 640 114 576 174 q 797 55 705 55 q 954 114 889 55 q 1018 255 1018 174 l 1018 454 q 954 594 1018 534 q 797 653 889 653 m 797 589 q 899 549 855 589 q 942 451 942 509 l 942 258 q 899 159 942 199 q 797 119 855 119 q 696 158 738 119 q 652 258 652 199 l 652 451 q 696 550 652 509 q 797 589 738 589 m 659 948 q 261 784 425 948 q 98 387 98 621 q 261 -9 98 155 q 659 -173 425 -173 q 1055 -9 891 -173 q 1219 387 1219 155 q 1055 784 1219 621 q 659 948 891 948 m 659 979 q 1077 806 903 979 q 1251 387 1251 633 q 1077 -31 1251 142 q 659 -205 903 -205 q 240 -31 413 -205 q 66 387 66 142 q 240 806 66 633 q 659 979 413 979 m 659 879 q 311 735 454 879 q 167 387 167 591 q 311 40 167 184 q 659 -104 454 -104 q 1006 40 862 -104 q 1149 387 1149 184 q 1006 735 1149 591 q 659 879 862 879 m 659 911 q 1028 758 875 911 q 1181 387 1181 604 q 1028 18 1181 171 q 659 -136 875 -136 q 288 18 441 -136 q 135 387 135 171 q 288 758 135 604 q 659 911 441 911 "},"⓿":{"ha":1316,"x_min":68,"x_max":1249,"o":"m 659 978 q 240 805 413 978 q 68 387 68 633 q 240 -30 68 142 q 659 -203 413 -203 q 1076 -30 903 -203 q 1249 387 1249 142 q 1076 805 1249 633 q 659 978 903 978 m 659 727 q 842 657 767 727 q 920 487 920 585 l 920 288 q 842 117 920 189 q 659 47 767 47 q 475 117 550 47 q 397 288 397 189 l 397 487 q 475 657 397 585 q 659 727 550 727 m 659 582 q 585 553 616 582 q 554 484 554 525 l 554 291 q 585 221 554 250 q 659 193 616 193 q 733 222 701 193 q 763 291 763 250 l 763 484 q 733 552 763 525 q 659 582 701 582 "},"○":{"ha":1316,"x_min":68,"x_max":1249,"o":"m 659 978 q 240 805 413 978 q 68 387 68 633 q 240 -30 68 142 q 659 -203 413 -203 q 1076 -30 903 -203 q 1249 387 1249 142 q 1076 805 1249 633 q 659 978 903 978 m 659 916 q 1032 761 877 916 q 1187 387 1187 606 q 1032 14 1187 169 q 659 -141 877 -141 q 284 14 439 -141 q 130 387 130 169 q 284 761 130 606 q 659 916 439 916 "},"●":{"ha":1316,"x_min":68,"x_max":1249,"o":"m 659 978 q 240 805 413 978 q 68 387 68 633 q 240 -30 68 142 q 659 -203 413 -203 q 1076 -30 903 -203 q 1249 387 1249 142 q 1076 805 1249 633 q 659 978 903 978 "}}}
